G04 MADE WITH FRITZING*
G04 WWW.FRITZING.ORG*
G04 DOUBLE SIDED*
G04 HOLES PLATED*
G04 CONTOUR ON CENTER OF CONTOUR VECTOR*
%ASAXBY*%
%FSLAX23Y23*%
%MOIN*%
%OFA0B0*%
%SFA1.0B1.0*%
%ADD10C,0.085000*%
%ADD11C,0.088000*%
%ADD12C,0.088740*%
%ADD13C,0.049370*%
%ADD14C,0.175354*%
%ADD15C,0.096000*%
%ADD16C,0.057244*%
%ADD17C,0.080925*%
%ADD18C,0.080866*%
%ADD19C,0.084000*%
%ADD20C,0.072992*%
%ADD21C,0.080000*%
%ADD22C,0.109000*%
%ADD23C,0.075000*%
%ADD24R,0.085000X0.085000*%
%ADD25R,0.072992X0.072992*%
%ADD26R,0.109000X0.109000*%
%ADD27R,0.001000X0.001000*%
%LNMASK0*%
G90*
G70*
G54D10*
X1567Y1775D03*
X1867Y1775D03*
X1567Y1675D03*
X1867Y1675D03*
X1567Y1575D03*
X1867Y1575D03*
X1567Y1475D03*
X1867Y1475D03*
X1567Y1375D03*
X1867Y1375D03*
X1567Y1275D03*
X1867Y1275D03*
X1567Y1175D03*
X1867Y1175D03*
X1567Y1075D03*
X1867Y1075D03*
X1567Y975D03*
X1867Y975D03*
X1567Y875D03*
X1867Y875D03*
X1567Y775D03*
X1867Y775D03*
X1567Y675D03*
X1867Y675D03*
X1567Y575D03*
X1867Y575D03*
X1567Y475D03*
X1867Y475D03*
G54D11*
X1267Y1775D03*
X1267Y1675D03*
X1267Y1575D03*
X1267Y1475D03*
X1267Y1375D03*
X1267Y1275D03*
X1267Y775D03*
X1267Y675D03*
X1267Y575D03*
X1267Y475D03*
G54D12*
X2167Y1775D03*
X2167Y1675D03*
X2167Y1575D03*
X2167Y1475D03*
X2167Y1375D03*
X2167Y1275D03*
X2167Y1175D03*
X2167Y1075D03*
X2167Y975D03*
G54D13*
X3267Y975D03*
G54D11*
X3567Y1875D03*
X3567Y1775D03*
X3567Y1675D03*
X3667Y1875D03*
X3667Y1775D03*
X3667Y1675D03*
G54D14*
X91Y2273D03*
X91Y95D03*
X3762Y96D03*
G54D11*
X1467Y275D03*
X1367Y275D03*
X1267Y275D03*
X1167Y275D03*
X1067Y275D03*
X967Y275D03*
X867Y275D03*
X767Y275D03*
X2267Y275D03*
X2167Y275D03*
X2067Y275D03*
X1967Y275D03*
X3567Y1275D03*
X3567Y1375D03*
X267Y1275D03*
X267Y1375D03*
X267Y1675D03*
X267Y1575D03*
X2167Y875D03*
X2167Y775D03*
X2167Y675D03*
X2167Y575D03*
X2167Y475D03*
X3467Y2275D03*
X3367Y2275D03*
X3267Y2275D03*
X3167Y2275D03*
X3067Y2275D03*
X2967Y2275D03*
X2867Y2275D03*
X2767Y2275D03*
X2667Y2275D03*
X2567Y2275D03*
X2467Y2275D03*
X2367Y2275D03*
X2267Y2275D03*
X2167Y2275D03*
X2067Y2275D03*
X1967Y2275D03*
G54D10*
X2672Y1285D03*
X2972Y1285D03*
X2672Y1185D03*
X2972Y1185D03*
X2672Y1085D03*
X2972Y1085D03*
X2672Y985D03*
X2972Y985D03*
X2667Y775D03*
X2967Y775D03*
X2667Y675D03*
X2967Y675D03*
X2667Y575D03*
X2967Y575D03*
X2667Y475D03*
X2967Y475D03*
G54D15*
X167Y875D03*
X364Y973D03*
X364Y1072D03*
X364Y776D03*
X364Y678D03*
G54D16*
X167Y1072D03*
X68Y1072D03*
X68Y678D03*
X167Y678D03*
X364Y875D03*
G54D15*
X3664Y872D03*
X3467Y773D03*
X3467Y675D03*
X3467Y970D03*
X3467Y1069D03*
G54D16*
X3664Y675D03*
X3762Y675D03*
X3762Y1069D03*
X3664Y1069D03*
X3467Y872D03*
G54D17*
X1067Y782D03*
G54D18*
X1067Y975D03*
G54D10*
X2467Y475D03*
X2467Y175D03*
X1767Y2075D03*
X1467Y2075D03*
G54D19*
X367Y1875D03*
X367Y2131D03*
X545Y1875D03*
X545Y2131D03*
X3467Y475D03*
X3467Y219D03*
X3289Y475D03*
X3289Y219D03*
X567Y475D03*
X567Y219D03*
X389Y475D03*
X389Y219D03*
G54D20*
X714Y2275D03*
X812Y2275D03*
X968Y2275D03*
X1067Y2275D03*
G54D21*
X2367Y1175D03*
X2467Y1175D03*
X2367Y1075D03*
X2467Y1075D03*
X2467Y875D03*
X2467Y975D03*
X3167Y1075D03*
X3167Y1175D03*
X2367Y1275D03*
X2467Y1275D03*
X1467Y1175D03*
X1467Y1075D03*
G54D19*
X767Y1275D03*
X867Y1275D03*
X967Y1275D03*
G54D22*
X3367Y1575D03*
X3167Y1575D03*
X3267Y1775D03*
G54D21*
X766Y775D03*
X867Y775D03*
X766Y975D03*
X867Y975D03*
G54D11*
X1567Y2275D03*
X1667Y2275D03*
X1767Y2275D03*
G54D10*
X1067Y1775D03*
X1067Y2075D03*
X667Y1775D03*
X667Y2075D03*
X867Y2075D03*
X867Y1775D03*
X3167Y475D03*
X3167Y175D03*
G54D23*
X967Y1575D03*
X1067Y1575D03*
X667Y1575D03*
X567Y1575D03*
G54D14*
X3764Y2261D03*
G54D24*
X1567Y1775D03*
X2672Y1285D03*
X2667Y775D03*
G54D25*
X714Y2275D03*
X968Y2275D03*
G54D26*
X3167Y1575D03*
G54D27*
X529Y1612D02*
X603Y1612D01*
X1029Y1612D02*
X1103Y1612D01*
X529Y1611D02*
X603Y1611D01*
X1029Y1611D02*
X1103Y1611D01*
X529Y1610D02*
X603Y1610D01*
X1029Y1610D02*
X1103Y1610D01*
X529Y1609D02*
X603Y1609D01*
X1029Y1609D02*
X1103Y1609D01*
X529Y1608D02*
X603Y1608D01*
X1029Y1608D02*
X1103Y1608D01*
X529Y1607D02*
X603Y1607D01*
X1029Y1607D02*
X1103Y1607D01*
X529Y1606D02*
X603Y1606D01*
X1029Y1606D02*
X1103Y1606D01*
X529Y1605D02*
X603Y1605D01*
X1029Y1605D02*
X1103Y1605D01*
X529Y1604D02*
X603Y1604D01*
X1029Y1604D02*
X1103Y1604D01*
X529Y1603D02*
X603Y1603D01*
X1029Y1603D02*
X1103Y1603D01*
X529Y1602D02*
X603Y1602D01*
X1029Y1602D02*
X1103Y1602D01*
X529Y1601D02*
X603Y1601D01*
X1029Y1601D02*
X1103Y1601D01*
X529Y1600D02*
X603Y1600D01*
X1029Y1600D02*
X1103Y1600D01*
X529Y1599D02*
X603Y1599D01*
X1029Y1599D02*
X1103Y1599D01*
X529Y1598D02*
X603Y1598D01*
X1029Y1598D02*
X1103Y1598D01*
X529Y1597D02*
X603Y1597D01*
X1029Y1597D02*
X1103Y1597D01*
X529Y1596D02*
X603Y1596D01*
X1029Y1596D02*
X1103Y1596D01*
X529Y1595D02*
X603Y1595D01*
X1029Y1595D02*
X1103Y1595D01*
X529Y1594D02*
X603Y1594D01*
X1029Y1594D02*
X1103Y1594D01*
X529Y1593D02*
X603Y1593D01*
X1029Y1593D02*
X1103Y1593D01*
X529Y1592D02*
X603Y1592D01*
X1029Y1592D02*
X1103Y1592D01*
X529Y1591D02*
X603Y1591D01*
X1029Y1591D02*
X1103Y1591D01*
X529Y1590D02*
X603Y1590D01*
X1029Y1590D02*
X1103Y1590D01*
X529Y1589D02*
X603Y1589D01*
X1029Y1589D02*
X1103Y1589D01*
X529Y1588D02*
X603Y1588D01*
X1029Y1588D02*
X1103Y1588D01*
X529Y1587D02*
X603Y1587D01*
X1029Y1587D02*
X1103Y1587D01*
X529Y1586D02*
X603Y1586D01*
X1029Y1586D02*
X1103Y1586D01*
X529Y1585D02*
X603Y1585D01*
X1029Y1585D02*
X1103Y1585D01*
X529Y1584D02*
X564Y1584D01*
X568Y1584D02*
X603Y1584D01*
X1029Y1584D02*
X1064Y1584D01*
X1068Y1584D02*
X1103Y1584D01*
X529Y1583D02*
X562Y1583D01*
X571Y1583D02*
X603Y1583D01*
X1029Y1583D02*
X1061Y1583D01*
X1071Y1583D02*
X1103Y1583D01*
X529Y1582D02*
X560Y1582D01*
X572Y1582D02*
X603Y1582D01*
X1029Y1582D02*
X1060Y1582D01*
X1072Y1582D02*
X1103Y1582D01*
X529Y1581D02*
X559Y1581D01*
X573Y1581D02*
X603Y1581D01*
X1029Y1581D02*
X1059Y1581D01*
X1073Y1581D02*
X1103Y1581D01*
X529Y1580D02*
X558Y1580D01*
X574Y1580D02*
X603Y1580D01*
X1029Y1580D02*
X1058Y1580D01*
X1074Y1580D02*
X1103Y1580D01*
X529Y1579D02*
X558Y1579D01*
X575Y1579D02*
X603Y1579D01*
X1029Y1579D02*
X1058Y1579D01*
X1075Y1579D02*
X1103Y1579D01*
X529Y1578D02*
X557Y1578D01*
X575Y1578D02*
X603Y1578D01*
X1029Y1578D02*
X1057Y1578D01*
X1075Y1578D02*
X1103Y1578D01*
X529Y1577D02*
X557Y1577D01*
X575Y1577D02*
X603Y1577D01*
X1029Y1577D02*
X1057Y1577D01*
X1075Y1577D02*
X1103Y1577D01*
X529Y1576D02*
X557Y1576D01*
X575Y1576D02*
X603Y1576D01*
X1029Y1576D02*
X1057Y1576D01*
X1075Y1576D02*
X1103Y1576D01*
X529Y1575D02*
X557Y1575D01*
X575Y1575D02*
X603Y1575D01*
X1029Y1575D02*
X1057Y1575D01*
X1075Y1575D02*
X1103Y1575D01*
X529Y1574D02*
X557Y1574D01*
X575Y1574D02*
X603Y1574D01*
X1029Y1574D02*
X1057Y1574D01*
X1075Y1574D02*
X1103Y1574D01*
X529Y1573D02*
X557Y1573D01*
X575Y1573D02*
X603Y1573D01*
X1029Y1573D02*
X1057Y1573D01*
X1075Y1573D02*
X1103Y1573D01*
X529Y1572D02*
X557Y1572D01*
X575Y1572D02*
X603Y1572D01*
X1029Y1572D02*
X1057Y1572D01*
X1075Y1572D02*
X1103Y1572D01*
X529Y1571D02*
X558Y1571D01*
X574Y1571D02*
X603Y1571D01*
X1029Y1571D02*
X1058Y1571D01*
X1074Y1571D02*
X1103Y1571D01*
X529Y1570D02*
X558Y1570D01*
X574Y1570D02*
X603Y1570D01*
X1029Y1570D02*
X1058Y1570D01*
X1074Y1570D02*
X1103Y1570D01*
X529Y1569D02*
X559Y1569D01*
X573Y1569D02*
X603Y1569D01*
X1029Y1569D02*
X1059Y1569D01*
X1073Y1569D02*
X1103Y1569D01*
X529Y1568D02*
X561Y1568D01*
X572Y1568D02*
X603Y1568D01*
X1029Y1568D02*
X1061Y1568D01*
X1072Y1568D02*
X1103Y1568D01*
X529Y1567D02*
X563Y1567D01*
X570Y1567D02*
X603Y1567D01*
X1029Y1567D02*
X1062Y1567D01*
X1070Y1567D02*
X1103Y1567D01*
X529Y1566D02*
X603Y1566D01*
X1029Y1566D02*
X1103Y1566D01*
X529Y1565D02*
X603Y1565D01*
X1029Y1565D02*
X1103Y1565D01*
X529Y1564D02*
X603Y1564D01*
X1029Y1564D02*
X1103Y1564D01*
X529Y1563D02*
X603Y1563D01*
X1029Y1563D02*
X1103Y1563D01*
X529Y1562D02*
X603Y1562D01*
X1029Y1562D02*
X1103Y1562D01*
X529Y1561D02*
X603Y1561D01*
X1029Y1561D02*
X1103Y1561D01*
X529Y1560D02*
X603Y1560D01*
X1029Y1560D02*
X1103Y1560D01*
X529Y1559D02*
X603Y1559D01*
X1029Y1559D02*
X1103Y1559D01*
X529Y1558D02*
X603Y1558D01*
X1029Y1558D02*
X1103Y1558D01*
X529Y1557D02*
X603Y1557D01*
X1029Y1557D02*
X1103Y1557D01*
X529Y1556D02*
X603Y1556D01*
X1029Y1556D02*
X1103Y1556D01*
X529Y1555D02*
X603Y1555D01*
X1029Y1555D02*
X1103Y1555D01*
X529Y1554D02*
X603Y1554D01*
X1029Y1554D02*
X1103Y1554D01*
X529Y1553D02*
X603Y1553D01*
X1029Y1553D02*
X1103Y1553D01*
X529Y1552D02*
X603Y1552D01*
X1029Y1552D02*
X1103Y1552D01*
X529Y1551D02*
X603Y1551D01*
X1029Y1551D02*
X1103Y1551D01*
X529Y1550D02*
X603Y1550D01*
X1029Y1550D02*
X1103Y1550D01*
X529Y1549D02*
X603Y1549D01*
X1029Y1549D02*
X1103Y1549D01*
X529Y1548D02*
X603Y1548D01*
X1029Y1548D02*
X1103Y1548D01*
X529Y1547D02*
X603Y1547D01*
X1029Y1547D02*
X1103Y1547D01*
X529Y1546D02*
X603Y1546D01*
X1029Y1546D02*
X1103Y1546D01*
X529Y1545D02*
X603Y1545D01*
X1029Y1545D02*
X1103Y1545D01*
X529Y1544D02*
X603Y1544D01*
X1029Y1544D02*
X1103Y1544D01*
X529Y1543D02*
X603Y1543D01*
X1029Y1543D02*
X1103Y1543D01*
X529Y1542D02*
X603Y1542D01*
X1029Y1542D02*
X1103Y1542D01*
X529Y1541D02*
X603Y1541D01*
X1029Y1541D02*
X1103Y1541D01*
X529Y1540D02*
X603Y1540D01*
X1029Y1540D02*
X1103Y1540D01*
X529Y1539D02*
X603Y1539D01*
X1029Y1539D02*
X1103Y1539D01*
X529Y1538D02*
X603Y1538D01*
X1029Y1538D02*
X1103Y1538D01*
X725Y1317D02*
X807Y1317D01*
X725Y1316D02*
X808Y1316D01*
X725Y1315D02*
X808Y1315D01*
X725Y1314D02*
X808Y1314D01*
X725Y1313D02*
X808Y1313D01*
X725Y1312D02*
X808Y1312D01*
X725Y1311D02*
X808Y1311D01*
X725Y1310D02*
X808Y1310D01*
X725Y1309D02*
X808Y1309D01*
X725Y1308D02*
X808Y1308D01*
X725Y1307D02*
X808Y1307D01*
X725Y1306D02*
X808Y1306D01*
X725Y1305D02*
X808Y1305D01*
X725Y1304D02*
X808Y1304D01*
X725Y1303D02*
X808Y1303D01*
X725Y1302D02*
X808Y1302D01*
X725Y1301D02*
X808Y1301D01*
X725Y1300D02*
X808Y1300D01*
X725Y1299D02*
X808Y1299D01*
X725Y1298D02*
X808Y1298D01*
X725Y1297D02*
X808Y1297D01*
X725Y1296D02*
X808Y1296D01*
X725Y1295D02*
X808Y1295D01*
X725Y1294D02*
X808Y1294D01*
X725Y1293D02*
X808Y1293D01*
X725Y1292D02*
X808Y1292D01*
X725Y1291D02*
X808Y1291D01*
X725Y1290D02*
X808Y1290D01*
X725Y1289D02*
X760Y1289D01*
X772Y1289D02*
X808Y1289D01*
X725Y1288D02*
X758Y1288D01*
X774Y1288D02*
X808Y1288D01*
X725Y1287D02*
X756Y1287D01*
X776Y1287D02*
X808Y1287D01*
X725Y1286D02*
X755Y1286D01*
X777Y1286D02*
X808Y1286D01*
X725Y1285D02*
X754Y1285D01*
X778Y1285D02*
X808Y1285D01*
X725Y1284D02*
X753Y1284D01*
X779Y1284D02*
X808Y1284D01*
X725Y1283D02*
X753Y1283D01*
X779Y1283D02*
X808Y1283D01*
X725Y1282D02*
X752Y1282D01*
X780Y1282D02*
X808Y1282D01*
X725Y1281D02*
X752Y1281D01*
X780Y1281D02*
X808Y1281D01*
X725Y1280D02*
X752Y1280D01*
X781Y1280D02*
X808Y1280D01*
X725Y1279D02*
X751Y1279D01*
X781Y1279D02*
X808Y1279D01*
X725Y1278D02*
X751Y1278D01*
X781Y1278D02*
X808Y1278D01*
X725Y1277D02*
X751Y1277D01*
X781Y1277D02*
X808Y1277D01*
X725Y1276D02*
X751Y1276D01*
X781Y1276D02*
X808Y1276D01*
X725Y1275D02*
X751Y1275D01*
X781Y1275D02*
X808Y1275D01*
X725Y1274D02*
X751Y1274D01*
X781Y1274D02*
X808Y1274D01*
X725Y1273D02*
X751Y1273D01*
X781Y1273D02*
X808Y1273D01*
X725Y1272D02*
X751Y1272D01*
X781Y1272D02*
X808Y1272D01*
X725Y1271D02*
X751Y1271D01*
X781Y1271D02*
X808Y1271D01*
X725Y1270D02*
X752Y1270D01*
X780Y1270D02*
X808Y1270D01*
X725Y1269D02*
X752Y1269D01*
X780Y1269D02*
X808Y1269D01*
X725Y1268D02*
X753Y1268D01*
X780Y1268D02*
X808Y1268D01*
X725Y1267D02*
X753Y1267D01*
X779Y1267D02*
X808Y1267D01*
X725Y1266D02*
X754Y1266D01*
X778Y1266D02*
X808Y1266D01*
X725Y1265D02*
X755Y1265D01*
X778Y1265D02*
X808Y1265D01*
X725Y1264D02*
X756Y1264D01*
X776Y1264D02*
X808Y1264D01*
X725Y1263D02*
X757Y1263D01*
X775Y1263D02*
X808Y1263D01*
X725Y1262D02*
X759Y1262D01*
X773Y1262D02*
X808Y1262D01*
X725Y1261D02*
X762Y1261D01*
X770Y1261D02*
X808Y1261D01*
X725Y1260D02*
X808Y1260D01*
X725Y1259D02*
X808Y1259D01*
X725Y1258D02*
X808Y1258D01*
X725Y1257D02*
X808Y1257D01*
X725Y1256D02*
X808Y1256D01*
X725Y1255D02*
X808Y1255D01*
X725Y1254D02*
X808Y1254D01*
X725Y1253D02*
X808Y1253D01*
X725Y1252D02*
X808Y1252D01*
X725Y1251D02*
X808Y1251D01*
X725Y1250D02*
X808Y1250D01*
X725Y1249D02*
X808Y1249D01*
X725Y1248D02*
X808Y1248D01*
X725Y1247D02*
X808Y1247D01*
X725Y1246D02*
X808Y1246D01*
X725Y1245D02*
X808Y1245D01*
X725Y1244D02*
X808Y1244D01*
X725Y1243D02*
X808Y1243D01*
X725Y1242D02*
X808Y1242D01*
X725Y1241D02*
X808Y1241D01*
X725Y1240D02*
X808Y1240D01*
X725Y1239D02*
X808Y1239D01*
X725Y1238D02*
X808Y1238D01*
X725Y1237D02*
X808Y1237D01*
X725Y1236D02*
X808Y1236D01*
X725Y1235D02*
X808Y1235D01*
X725Y1234D02*
X808Y1234D01*
D02*
G04 End of Mask0*
M02*