G04 MADE WITH FRITZING*
G04 WWW.FRITZING.ORG*
G04 DOUBLE SIDED*
G04 HOLES PLATED*
G04 CONTOUR ON CENTER OF CONTOUR VECTOR*
%ASAXBY*%
%FSLAX23Y23*%
%MOIN*%
%OFA0B0*%
%SFA1.0B1.0*%
%ADD10C,0.075000*%
%ADD11C,0.078000*%
%ADD12C,0.078740*%
%ADD13C,0.039370*%
%ADD14C,0.165354*%
%ADD15C,0.086000*%
%ADD16C,0.070925*%
%ADD17C,0.070866*%
%ADD18C,0.074000*%
%ADD19C,0.062992*%
%ADD20C,0.070000*%
%ADD21C,0.099000*%
%ADD22C,0.065000*%
%ADD23R,0.075000X0.075000*%
%ADD24R,0.062992X0.062992*%
%ADD25R,0.099000X0.099000*%
%ADD26C,0.024000*%
%ADD27R,0.001000X0.001000*%
%LNCOPPER1*%
G90*
G70*
G54D10*
X1567Y1775D03*
X1867Y1775D03*
X1567Y1675D03*
X1867Y1675D03*
X1567Y1575D03*
X1867Y1575D03*
X1567Y1475D03*
X1867Y1475D03*
X1567Y1375D03*
X1867Y1375D03*
X1567Y1275D03*
X1867Y1275D03*
X1567Y1175D03*
X1867Y1175D03*
X1567Y1075D03*
X1867Y1075D03*
X1567Y975D03*
X1867Y975D03*
X1567Y875D03*
X1867Y875D03*
X1567Y775D03*
X1867Y775D03*
X1567Y675D03*
X1867Y675D03*
X1567Y575D03*
X1867Y575D03*
X1567Y475D03*
X1867Y475D03*
G54D11*
X1267Y1775D03*
X1267Y1675D03*
X1267Y1575D03*
X1267Y1475D03*
X1267Y1375D03*
X1267Y1275D03*
X1267Y775D03*
X1267Y675D03*
X1267Y575D03*
X1267Y475D03*
G54D12*
X2167Y1775D03*
X2167Y1675D03*
X2167Y1575D03*
X2167Y1475D03*
X2167Y1375D03*
X2167Y1275D03*
X2167Y1175D03*
X2167Y1075D03*
X2167Y975D03*
G54D13*
X3267Y975D03*
G54D11*
X3567Y1875D03*
X3567Y1775D03*
X3567Y1675D03*
X3667Y1875D03*
X3667Y1775D03*
X3667Y1675D03*
G54D14*
X91Y2273D03*
X91Y95D03*
X3762Y96D03*
G54D11*
X1467Y275D03*
X1367Y275D03*
X1267Y275D03*
X1167Y275D03*
X1067Y275D03*
X967Y275D03*
X867Y275D03*
X767Y275D03*
X2267Y275D03*
X2167Y275D03*
X2067Y275D03*
X1967Y275D03*
X3567Y1275D03*
X3567Y1375D03*
X267Y1275D03*
X267Y1375D03*
X267Y1675D03*
X267Y1575D03*
X2167Y875D03*
X2167Y775D03*
X2167Y675D03*
X2167Y575D03*
X2167Y475D03*
X3467Y2275D03*
X3367Y2275D03*
X3267Y2275D03*
X3167Y2275D03*
X3067Y2275D03*
X2967Y2275D03*
X2867Y2275D03*
X2767Y2275D03*
X2667Y2275D03*
X2567Y2275D03*
X2467Y2275D03*
X2367Y2275D03*
X2267Y2275D03*
X2167Y2275D03*
X2067Y2275D03*
X1967Y2275D03*
G54D10*
X2672Y1285D03*
X2972Y1285D03*
X2672Y1185D03*
X2972Y1185D03*
X2672Y1085D03*
X2972Y1085D03*
X2672Y985D03*
X2972Y985D03*
X2667Y775D03*
X2967Y775D03*
X2667Y675D03*
X2967Y675D03*
X2667Y575D03*
X2967Y575D03*
X2667Y475D03*
X2967Y475D03*
G54D15*
X167Y875D03*
X364Y973D03*
X364Y1072D03*
X364Y776D03*
X364Y678D03*
X167Y875D03*
X364Y973D03*
X364Y1072D03*
X364Y776D03*
X364Y678D03*
X3664Y872D03*
X3467Y773D03*
X3467Y675D03*
X3467Y970D03*
X3467Y1069D03*
X3664Y872D03*
X3467Y773D03*
X3467Y675D03*
X3467Y970D03*
X3467Y1069D03*
G54D16*
X1067Y782D03*
G54D17*
X1067Y975D03*
G54D10*
X2467Y475D03*
X2467Y175D03*
X1767Y2075D03*
X1467Y2075D03*
G54D18*
X367Y1875D03*
X367Y2131D03*
X545Y1875D03*
X545Y2131D03*
X367Y1875D03*
X367Y2131D03*
X545Y1875D03*
X545Y2131D03*
X3467Y475D03*
X3467Y219D03*
X3289Y475D03*
X3289Y219D03*
X3467Y475D03*
X3467Y219D03*
X3289Y475D03*
X3289Y219D03*
X567Y475D03*
X567Y219D03*
X389Y475D03*
X389Y219D03*
X567Y475D03*
X567Y219D03*
X389Y475D03*
X389Y219D03*
G54D19*
X714Y2275D03*
X812Y2275D03*
X968Y2275D03*
X1067Y2275D03*
G54D20*
X2367Y1175D03*
X2467Y1175D03*
X2367Y1075D03*
X2467Y1075D03*
X2467Y875D03*
X2467Y975D03*
X3167Y1075D03*
X3167Y1175D03*
X2367Y1275D03*
X2467Y1275D03*
X1467Y1175D03*
X1467Y1075D03*
G54D18*
X767Y1275D03*
X867Y1275D03*
X967Y1275D03*
X767Y1275D03*
X867Y1275D03*
X967Y1275D03*
G54D21*
X3367Y1575D03*
X3167Y1575D03*
X3267Y1775D03*
G54D20*
X766Y775D03*
X867Y775D03*
X766Y975D03*
X867Y975D03*
G54D11*
X1567Y2275D03*
X1667Y2275D03*
X1767Y2275D03*
G54D10*
X1067Y1775D03*
X1067Y2075D03*
X667Y1775D03*
X667Y2075D03*
X867Y2075D03*
X867Y1775D03*
X3167Y475D03*
X3167Y175D03*
G54D22*
X967Y1575D03*
X1067Y1575D03*
X967Y1575D03*
X1067Y1575D03*
X667Y1575D03*
X567Y1575D03*
X667Y1575D03*
X567Y1575D03*
G54D14*
X3764Y2261D03*
G54D23*
X1567Y1775D03*
X2672Y1285D03*
X2667Y775D03*
G54D24*
X714Y2275D03*
X968Y2275D03*
G54D25*
X3167Y1575D03*
G54D26*
X1065Y1173D02*
X988Y1253D01*
D02*
X1441Y1175D02*
X1065Y1173D01*
D02*
X1168Y876D02*
X1538Y875D01*
D02*
X1169Y575D02*
X1169Y373D01*
D02*
X1169Y373D02*
X1088Y296D01*
D02*
X1246Y653D02*
X1169Y575D01*
D02*
X1086Y800D02*
X1168Y876D01*
D02*
X1094Y975D02*
X1538Y975D01*
D02*
X1297Y1575D02*
X1538Y1575D01*
D02*
X1297Y1675D02*
X1538Y1675D01*
D02*
X1297Y1775D02*
X1538Y1775D01*
D02*
X1297Y675D02*
X1538Y675D01*
D02*
X3380Y2248D02*
X3553Y1902D01*
D02*
X1059Y1551D02*
X976Y1304D01*
D02*
X365Y1275D02*
X288Y1353D01*
D02*
X750Y1300D02*
X580Y1554D01*
D02*
X543Y1583D02*
X295Y1665D01*
D02*
X1297Y775D02*
X1538Y775D01*
D02*
X1297Y1275D02*
X1538Y1275D01*
D02*
X1297Y1375D02*
X1538Y1375D01*
D02*
X1297Y1475D02*
X1538Y1475D01*
D02*
X668Y175D02*
X577Y445D01*
D02*
X967Y175D02*
X668Y175D01*
D02*
X1045Y254D02*
X967Y175D01*
D02*
X1544Y558D02*
X1191Y293D01*
D02*
X1538Y575D02*
X1297Y575D01*
D02*
X2136Y1075D02*
X1895Y1075D01*
D02*
X2265Y774D02*
X2188Y853D01*
D02*
X2668Y876D02*
X2468Y774D01*
D02*
X2468Y676D02*
X2265Y774D01*
D02*
X2136Y975D02*
X1895Y975D01*
D02*
X568Y1376D02*
X467Y1474D01*
D02*
X2137Y775D02*
X1895Y775D01*
D02*
X2137Y875D02*
X1895Y875D01*
D02*
X2136Y1175D02*
X1895Y1175D01*
D02*
X2136Y1375D02*
X1895Y1375D01*
D02*
X2136Y1275D02*
X1895Y1275D01*
D02*
X2639Y580D02*
X2196Y669D01*
D02*
X2638Y675D02*
X2468Y676D01*
D02*
X2265Y1375D02*
X2197Y1375D01*
D02*
X3166Y1974D02*
X3167Y2245D01*
D02*
X2265Y1274D02*
X3166Y1974D01*
D02*
X1266Y1973D02*
X1267Y1805D01*
D02*
X1167Y2076D02*
X1266Y1973D01*
D02*
X1441Y1075D02*
X866Y1073D01*
D02*
X2367Y876D02*
X2367Y974D01*
D02*
X3168Y876D02*
X2668Y876D01*
D02*
X2468Y774D02*
X2367Y876D01*
D02*
X2367Y974D02*
X2367Y1049D01*
D02*
X3436Y695D02*
X3168Y876D01*
D02*
X1095Y2075D02*
X1167Y2076D01*
D02*
X2197Y1275D02*
X2265Y1274D01*
D02*
X866Y1073D02*
X785Y993D01*
D02*
X2136Y1775D02*
X1895Y1775D01*
D02*
X2136Y1675D02*
X1895Y1675D01*
D02*
X2136Y1575D02*
X1895Y1575D01*
D02*
X2136Y1475D02*
X1895Y1475D01*
D02*
X2265Y1777D02*
X2267Y2245D01*
D02*
X2188Y1697D02*
X2265Y1777D01*
D02*
X2366Y1676D02*
X2367Y2245D01*
D02*
X2265Y1576D02*
X2366Y1676D01*
D02*
X2197Y1575D02*
X2265Y1576D01*
D02*
X2466Y1676D02*
X2467Y2245D01*
D02*
X2265Y1475D02*
X2466Y1676D01*
D02*
X2197Y1475D02*
X2265Y1475D01*
D02*
X2969Y1974D02*
X2265Y1375D01*
D02*
X2967Y2245D02*
X2969Y1974D01*
D02*
X3266Y374D02*
X3282Y444D01*
D02*
X1767Y374D02*
X3266Y374D01*
D02*
X1587Y555D02*
X1767Y374D01*
D02*
X2438Y475D02*
X2197Y475D01*
D02*
X2167Y1806D02*
X2167Y2245D01*
D02*
X3266Y1475D02*
X3344Y1553D01*
D02*
X2644Y984D02*
X2493Y976D01*
D02*
X3001Y1083D02*
X3141Y1076D01*
D02*
X3248Y975D02*
X3001Y984D01*
D02*
X3567Y1705D02*
X3567Y1745D01*
D02*
X3567Y1805D02*
X3567Y1845D01*
D02*
X3465Y1275D02*
X3466Y1105D01*
D02*
X3545Y1354D02*
X3465Y1275D01*
D02*
X3395Y1589D02*
X3540Y1661D01*
D02*
X2441Y188D02*
X2294Y261D01*
D02*
X767Y575D02*
X568Y774D01*
D02*
X568Y774D02*
X568Y876D01*
D02*
X568Y876D02*
X568Y1376D01*
D02*
X467Y1474D02*
X166Y1475D01*
D02*
X166Y1475D02*
X67Y1575D01*
D02*
X67Y1575D02*
X68Y1875D01*
D02*
X68Y1875D02*
X166Y1975D01*
D02*
X767Y305D02*
X767Y575D01*
D02*
X3368Y575D02*
X3368Y174D01*
D02*
X468Y174D02*
X468Y575D01*
D02*
X468Y575D02*
X390Y652D01*
D02*
X566Y76D02*
X468Y174D01*
D02*
X3368Y174D02*
X3265Y76D01*
D02*
X3441Y649D02*
X3368Y575D01*
D02*
X1266Y174D02*
X1968Y173D01*
D02*
X1968Y173D02*
X2046Y253D01*
D02*
X1267Y245D02*
X1266Y174D01*
D02*
X1667Y276D02*
X1566Y374D01*
D02*
X1566Y374D02*
X1566Y446D01*
D02*
X1937Y275D02*
X1667Y276D01*
D02*
X166Y1975D02*
X468Y1973D01*
D02*
X468Y1973D02*
X526Y1899D01*
D02*
X3567Y974D02*
X3493Y1043D01*
D02*
X3567Y774D02*
X3567Y974D01*
D02*
X3493Y701D02*
X3567Y774D01*
D02*
X268Y774D02*
X268Y974D01*
D02*
X268Y974D02*
X338Y1045D01*
D02*
X338Y704D02*
X268Y774D01*
D02*
X364Y1108D02*
X365Y1275D01*
D02*
X2137Y675D02*
X1895Y675D01*
D02*
X2137Y575D02*
X1895Y575D01*
D02*
X2137Y475D02*
X1895Y475D01*
D02*
X2768Y1374D02*
X2766Y1076D01*
D02*
X3266Y1475D02*
X2867Y1473D01*
D02*
X2766Y1076D02*
X2693Y1005D01*
D02*
X2867Y1473D02*
X2768Y1374D01*
D02*
X1040Y975D02*
X893Y975D01*
D02*
X1040Y781D02*
X893Y776D01*
D02*
X1538Y1175D02*
X1493Y1175D01*
D02*
X2493Y1276D02*
X2644Y1284D01*
D02*
X2493Y1176D02*
X2644Y1184D01*
D02*
X2493Y1076D02*
X2644Y1084D01*
D02*
X1594Y1166D02*
X1840Y1084D01*
D02*
X1867Y1046D02*
X1867Y1003D01*
D02*
X2967Y603D02*
X2967Y646D01*
D02*
X3267Y1806D02*
X3267Y2245D01*
D02*
X1769Y2076D02*
X1767Y2245D01*
D02*
X2066Y2075D02*
X1769Y2076D01*
D02*
X1479Y2100D02*
X1553Y2248D01*
D02*
X1767Y2245D02*
X1767Y2103D01*
D02*
X1067Y1746D02*
X1067Y1600D01*
D02*
X1666Y1274D02*
X1587Y1195D01*
D02*
X1667Y2245D02*
X1666Y1274D01*
D02*
X767Y1875D02*
X576Y1875D01*
D02*
X1043Y2059D02*
X767Y1875D01*
D02*
X3265Y76D02*
X566Y76D01*
D02*
X2066Y2075D02*
X2067Y2245D01*
D02*
X895Y1775D02*
X1038Y1775D01*
D02*
X695Y1775D02*
X838Y1775D01*
D02*
X673Y2103D02*
X708Y2249D01*
D02*
X880Y2100D02*
X956Y2251D01*
D02*
X265Y575D02*
X178Y840D01*
D02*
X364Y494D02*
X265Y575D01*
G54D27*
X534Y1607D02*
X598Y1607D01*
X1034Y1607D02*
X1098Y1607D01*
X534Y1606D02*
X598Y1606D01*
X1034Y1606D02*
X1098Y1606D01*
X534Y1605D02*
X598Y1605D01*
X1034Y1605D02*
X1098Y1605D01*
X534Y1604D02*
X598Y1604D01*
X1034Y1604D02*
X1098Y1604D01*
X534Y1603D02*
X598Y1603D01*
X1034Y1603D02*
X1098Y1603D01*
X534Y1602D02*
X598Y1602D01*
X1034Y1602D02*
X1098Y1602D01*
X534Y1601D02*
X598Y1601D01*
X1034Y1601D02*
X1098Y1601D01*
X534Y1600D02*
X598Y1600D01*
X1034Y1600D02*
X1098Y1600D01*
X534Y1599D02*
X598Y1599D01*
X1034Y1599D02*
X1098Y1599D01*
X534Y1598D02*
X598Y1598D01*
X1034Y1598D02*
X1098Y1598D01*
X534Y1597D02*
X598Y1597D01*
X1034Y1597D02*
X1098Y1597D01*
X534Y1596D02*
X598Y1596D01*
X1034Y1596D02*
X1098Y1596D01*
X534Y1595D02*
X598Y1595D01*
X1034Y1595D02*
X1098Y1595D01*
X534Y1594D02*
X598Y1594D01*
X1034Y1594D02*
X1098Y1594D01*
X534Y1593D02*
X598Y1593D01*
X1034Y1593D02*
X1098Y1593D01*
X534Y1592D02*
X598Y1592D01*
X1034Y1592D02*
X1098Y1592D01*
X534Y1591D02*
X598Y1591D01*
X1034Y1591D02*
X1098Y1591D01*
X534Y1590D02*
X598Y1590D01*
X1034Y1590D02*
X1098Y1590D01*
X534Y1589D02*
X565Y1589D01*
X567Y1589D02*
X598Y1589D01*
X1034Y1589D02*
X1065Y1589D01*
X1067Y1589D02*
X1098Y1589D01*
X534Y1588D02*
X561Y1588D01*
X572Y1588D02*
X598Y1588D01*
X1034Y1588D02*
X1061Y1588D01*
X1072Y1588D02*
X1098Y1588D01*
X534Y1587D02*
X558Y1587D01*
X574Y1587D02*
X598Y1587D01*
X1034Y1587D02*
X1058Y1587D01*
X1074Y1587D02*
X1098Y1587D01*
X534Y1586D02*
X557Y1586D01*
X575Y1586D02*
X598Y1586D01*
X1034Y1586D02*
X1057Y1586D01*
X1075Y1586D02*
X1098Y1586D01*
X534Y1585D02*
X556Y1585D01*
X576Y1585D02*
X598Y1585D01*
X1034Y1585D02*
X1056Y1585D01*
X1076Y1585D02*
X1098Y1585D01*
X534Y1584D02*
X555Y1584D01*
X577Y1584D02*
X598Y1584D01*
X1034Y1584D02*
X1055Y1584D01*
X1077Y1584D02*
X1098Y1584D01*
X534Y1583D02*
X554Y1583D01*
X578Y1583D02*
X598Y1583D01*
X1034Y1583D02*
X1054Y1583D01*
X1078Y1583D02*
X1098Y1583D01*
X534Y1582D02*
X554Y1582D01*
X579Y1582D02*
X598Y1582D01*
X1034Y1582D02*
X1054Y1582D01*
X1079Y1582D02*
X1098Y1582D01*
X534Y1581D02*
X553Y1581D01*
X579Y1581D02*
X598Y1581D01*
X1034Y1581D02*
X1053Y1581D01*
X1079Y1581D02*
X1098Y1581D01*
X534Y1580D02*
X553Y1580D01*
X579Y1580D02*
X598Y1580D01*
X1034Y1580D02*
X1053Y1580D01*
X1079Y1580D02*
X1098Y1580D01*
X534Y1579D02*
X552Y1579D01*
X580Y1579D02*
X598Y1579D01*
X1034Y1579D02*
X1052Y1579D01*
X1080Y1579D02*
X1098Y1579D01*
X534Y1578D02*
X552Y1578D01*
X580Y1578D02*
X598Y1578D01*
X1034Y1578D02*
X1052Y1578D01*
X1080Y1578D02*
X1098Y1578D01*
X534Y1577D02*
X552Y1577D01*
X580Y1577D02*
X598Y1577D01*
X1034Y1577D02*
X1052Y1577D01*
X1080Y1577D02*
X1098Y1577D01*
X534Y1576D02*
X552Y1576D01*
X580Y1576D02*
X598Y1576D01*
X1034Y1576D02*
X1052Y1576D01*
X1080Y1576D02*
X1098Y1576D01*
X534Y1575D02*
X552Y1575D01*
X580Y1575D02*
X598Y1575D01*
X1034Y1575D02*
X1052Y1575D01*
X1080Y1575D02*
X1098Y1575D01*
X534Y1574D02*
X552Y1574D01*
X580Y1574D02*
X598Y1574D01*
X1034Y1574D02*
X1052Y1574D01*
X1080Y1574D02*
X1098Y1574D01*
X534Y1573D02*
X552Y1573D01*
X580Y1573D02*
X598Y1573D01*
X1034Y1573D02*
X1052Y1573D01*
X1080Y1573D02*
X1098Y1573D01*
X534Y1572D02*
X552Y1572D01*
X580Y1572D02*
X598Y1572D01*
X1034Y1572D02*
X1052Y1572D01*
X1080Y1572D02*
X1098Y1572D01*
X534Y1571D02*
X553Y1571D01*
X580Y1571D02*
X598Y1571D01*
X1034Y1571D02*
X1053Y1571D01*
X1080Y1571D02*
X1098Y1571D01*
X534Y1570D02*
X553Y1570D01*
X579Y1570D02*
X598Y1570D01*
X1034Y1570D02*
X1053Y1570D01*
X1079Y1570D02*
X1098Y1570D01*
X534Y1569D02*
X553Y1569D01*
X579Y1569D02*
X598Y1569D01*
X1034Y1569D02*
X1053Y1569D01*
X1079Y1569D02*
X1098Y1569D01*
X534Y1568D02*
X554Y1568D01*
X578Y1568D02*
X598Y1568D01*
X1034Y1568D02*
X1054Y1568D01*
X1078Y1568D02*
X1098Y1568D01*
X534Y1567D02*
X555Y1567D01*
X578Y1567D02*
X598Y1567D01*
X1034Y1567D02*
X1055Y1567D01*
X1078Y1567D02*
X1098Y1567D01*
X534Y1566D02*
X555Y1566D01*
X577Y1566D02*
X598Y1566D01*
X1034Y1566D02*
X1055Y1566D01*
X1077Y1566D02*
X1098Y1566D01*
X534Y1565D02*
X556Y1565D01*
X576Y1565D02*
X598Y1565D01*
X1034Y1565D02*
X1056Y1565D01*
X1076Y1565D02*
X1098Y1565D01*
X534Y1564D02*
X558Y1564D01*
X574Y1564D02*
X598Y1564D01*
X1034Y1564D02*
X1058Y1564D01*
X1074Y1564D02*
X1098Y1564D01*
X534Y1563D02*
X559Y1563D01*
X573Y1563D02*
X598Y1563D01*
X1034Y1563D02*
X1059Y1563D01*
X1073Y1563D02*
X1098Y1563D01*
X534Y1562D02*
X562Y1562D01*
X570Y1562D02*
X598Y1562D01*
X1034Y1562D02*
X1062Y1562D01*
X1070Y1562D02*
X1098Y1562D01*
X534Y1561D02*
X598Y1561D01*
X1034Y1561D02*
X1098Y1561D01*
X534Y1560D02*
X598Y1560D01*
X1034Y1560D02*
X1098Y1560D01*
X534Y1559D02*
X598Y1559D01*
X1034Y1559D02*
X1098Y1559D01*
X534Y1558D02*
X598Y1558D01*
X1034Y1558D02*
X1098Y1558D01*
X534Y1557D02*
X598Y1557D01*
X1034Y1557D02*
X1098Y1557D01*
X534Y1556D02*
X598Y1556D01*
X1034Y1556D02*
X1098Y1556D01*
X534Y1555D02*
X598Y1555D01*
X1034Y1555D02*
X1098Y1555D01*
X534Y1554D02*
X598Y1554D01*
X1034Y1554D02*
X1098Y1554D01*
X534Y1553D02*
X598Y1553D01*
X1034Y1553D02*
X1098Y1553D01*
X534Y1552D02*
X598Y1552D01*
X1034Y1552D02*
X1098Y1552D01*
X534Y1551D02*
X598Y1551D01*
X1034Y1551D02*
X1098Y1551D01*
X534Y1550D02*
X598Y1550D01*
X1034Y1550D02*
X1098Y1550D01*
X534Y1549D02*
X598Y1549D01*
X1034Y1549D02*
X1098Y1549D01*
X534Y1548D02*
X598Y1548D01*
X1034Y1548D02*
X1098Y1548D01*
X534Y1547D02*
X598Y1547D01*
X1034Y1547D02*
X1098Y1547D01*
X534Y1546D02*
X598Y1546D01*
X1034Y1546D02*
X1098Y1546D01*
X534Y1545D02*
X598Y1545D01*
X1034Y1545D02*
X1098Y1545D01*
X534Y1544D02*
X598Y1544D01*
X1034Y1544D02*
X1098Y1544D01*
X534Y1543D02*
X598Y1543D01*
X1034Y1543D02*
X1098Y1543D01*
X730Y1312D02*
X802Y1312D01*
X730Y1311D02*
X803Y1311D01*
X730Y1310D02*
X803Y1310D01*
X730Y1309D02*
X803Y1309D01*
X730Y1308D02*
X803Y1308D01*
X730Y1307D02*
X803Y1307D01*
X730Y1306D02*
X803Y1306D01*
X730Y1305D02*
X803Y1305D01*
X730Y1304D02*
X803Y1304D01*
X730Y1303D02*
X803Y1303D01*
X730Y1302D02*
X803Y1302D01*
X730Y1301D02*
X803Y1301D01*
X730Y1300D02*
X803Y1300D01*
X730Y1299D02*
X803Y1299D01*
X730Y1298D02*
X803Y1298D01*
X730Y1297D02*
X803Y1297D01*
X730Y1296D02*
X803Y1296D01*
X730Y1295D02*
X803Y1295D01*
X730Y1294D02*
X760Y1294D01*
X772Y1294D02*
X803Y1294D01*
X730Y1293D02*
X757Y1293D01*
X775Y1293D02*
X803Y1293D01*
X730Y1292D02*
X755Y1292D01*
X777Y1292D02*
X803Y1292D01*
X730Y1291D02*
X754Y1291D01*
X778Y1291D02*
X803Y1291D01*
X730Y1290D02*
X753Y1290D01*
X779Y1290D02*
X803Y1290D01*
X730Y1289D02*
X752Y1289D01*
X781Y1289D02*
X803Y1289D01*
X730Y1288D02*
X751Y1288D01*
X781Y1288D02*
X803Y1288D01*
X730Y1287D02*
X750Y1287D01*
X782Y1287D02*
X803Y1287D01*
X730Y1286D02*
X749Y1286D01*
X783Y1286D02*
X803Y1286D01*
X730Y1285D02*
X749Y1285D01*
X784Y1285D02*
X803Y1285D01*
X730Y1284D02*
X748Y1284D01*
X784Y1284D02*
X803Y1284D01*
X730Y1283D02*
X748Y1283D01*
X785Y1283D02*
X803Y1283D01*
X730Y1282D02*
X747Y1282D01*
X785Y1282D02*
X803Y1282D01*
X730Y1281D02*
X747Y1281D01*
X785Y1281D02*
X803Y1281D01*
X730Y1280D02*
X747Y1280D01*
X786Y1280D02*
X803Y1280D01*
X730Y1279D02*
X746Y1279D01*
X786Y1279D02*
X803Y1279D01*
X730Y1278D02*
X746Y1278D01*
X786Y1278D02*
X803Y1278D01*
X730Y1277D02*
X746Y1277D01*
X786Y1277D02*
X803Y1277D01*
X730Y1276D02*
X746Y1276D01*
X786Y1276D02*
X803Y1276D01*
X730Y1275D02*
X746Y1275D01*
X786Y1275D02*
X803Y1275D01*
X730Y1274D02*
X746Y1274D01*
X786Y1274D02*
X803Y1274D01*
X730Y1273D02*
X746Y1273D01*
X786Y1273D02*
X803Y1273D01*
X730Y1272D02*
X746Y1272D01*
X786Y1272D02*
X803Y1272D01*
X730Y1271D02*
X746Y1271D01*
X786Y1271D02*
X803Y1271D01*
X730Y1270D02*
X747Y1270D01*
X785Y1270D02*
X803Y1270D01*
X730Y1269D02*
X747Y1269D01*
X785Y1269D02*
X803Y1269D01*
X730Y1268D02*
X747Y1268D01*
X785Y1268D02*
X803Y1268D01*
X730Y1267D02*
X748Y1267D01*
X784Y1267D02*
X803Y1267D01*
X730Y1266D02*
X748Y1266D01*
X784Y1266D02*
X803Y1266D01*
X730Y1265D02*
X749Y1265D01*
X783Y1265D02*
X803Y1265D01*
X730Y1264D02*
X749Y1264D01*
X783Y1264D02*
X803Y1264D01*
X730Y1263D02*
X750Y1263D01*
X782Y1263D02*
X803Y1263D01*
X730Y1262D02*
X751Y1262D01*
X781Y1262D02*
X803Y1262D01*
X730Y1261D02*
X752Y1261D01*
X780Y1261D02*
X803Y1261D01*
X730Y1260D02*
X753Y1260D01*
X779Y1260D02*
X803Y1260D01*
X730Y1259D02*
X755Y1259D01*
X778Y1259D02*
X803Y1259D01*
X730Y1258D02*
X756Y1258D01*
X776Y1258D02*
X803Y1258D01*
X730Y1257D02*
X758Y1257D01*
X774Y1257D02*
X803Y1257D01*
X730Y1256D02*
X762Y1256D01*
X771Y1256D02*
X803Y1256D01*
X730Y1255D02*
X803Y1255D01*
X730Y1254D02*
X803Y1254D01*
X730Y1253D02*
X803Y1253D01*
X730Y1252D02*
X803Y1252D01*
X730Y1251D02*
X803Y1251D01*
X730Y1250D02*
X803Y1250D01*
X730Y1249D02*
X803Y1249D01*
X730Y1248D02*
X803Y1248D01*
X730Y1247D02*
X803Y1247D01*
X730Y1246D02*
X803Y1246D01*
X730Y1245D02*
X803Y1245D01*
X730Y1244D02*
X803Y1244D01*
X730Y1243D02*
X803Y1243D01*
X730Y1242D02*
X803Y1242D01*
X730Y1241D02*
X803Y1241D01*
X730Y1240D02*
X803Y1240D01*
X730Y1239D02*
X803Y1239D01*
D02*
G04 End of Copper1*
M02*