G04 MADE WITH FRITZING*
G04 WWW.FRITZING.ORG*
G04 DOUBLE SIDED*
G04 HOLES PLATED*
G04 CONTOUR ON CENTER OF CONTOUR VECTOR*
%ASAXBY*%
%FSLAX23Y23*%
%MOIN*%
%OFA0B0*%
%SFA1.0B1.0*%
%ADD10R,0.001000X0.001000*%
%LNSILK0*%
G90*
G70*
G54D10*
X0Y2362D02*
X3857Y2362D01*
X0Y2361D02*
X3857Y2361D01*
X0Y2360D02*
X79Y2360D01*
X102Y2360D02*
X3857Y2360D01*
X0Y2359D02*
X73Y2359D01*
X108Y2359D02*
X3857Y2359D01*
X0Y2358D02*
X69Y2358D01*
X111Y2358D02*
X3857Y2358D01*
X0Y2357D02*
X66Y2357D01*
X115Y2357D02*
X3857Y2357D01*
X0Y2356D02*
X63Y2356D01*
X118Y2356D02*
X3857Y2356D01*
X0Y2355D02*
X60Y2355D01*
X121Y2355D02*
X3857Y2355D01*
X0Y2354D02*
X7Y2354D01*
X3850Y2354D02*
X3857Y2354D01*
X0Y2353D02*
X7Y2353D01*
X3850Y2353D02*
X3857Y2353D01*
X0Y2352D02*
X7Y2352D01*
X3850Y2352D02*
X3857Y2352D01*
X0Y2351D02*
X7Y2351D01*
X3850Y2351D02*
X3857Y2351D01*
X0Y2350D02*
X7Y2350D01*
X3850Y2350D02*
X3857Y2350D01*
X0Y2349D02*
X7Y2349D01*
X3850Y2349D02*
X3857Y2349D01*
X0Y2348D02*
X7Y2348D01*
X3850Y2348D02*
X3857Y2348D01*
X0Y2347D02*
X7Y2347D01*
X3850Y2347D02*
X3857Y2347D01*
X0Y2346D02*
X7Y2346D01*
X3850Y2346D02*
X3857Y2346D01*
X0Y2345D02*
X7Y2345D01*
X3850Y2345D02*
X3857Y2345D01*
X0Y2344D02*
X7Y2344D01*
X3850Y2344D02*
X3857Y2344D01*
X0Y2343D02*
X7Y2343D01*
X3850Y2343D02*
X3857Y2343D01*
X0Y2342D02*
X7Y2342D01*
X3850Y2342D02*
X3857Y2342D01*
X0Y2341D02*
X7Y2341D01*
X3850Y2341D02*
X3857Y2341D01*
X0Y2340D02*
X7Y2340D01*
X3850Y2340D02*
X3857Y2340D01*
X0Y2339D02*
X7Y2339D01*
X3850Y2339D02*
X3857Y2339D01*
X0Y2338D02*
X7Y2338D01*
X3850Y2338D02*
X3857Y2338D01*
X0Y2337D02*
X7Y2337D01*
X3850Y2337D02*
X3857Y2337D01*
X0Y2336D02*
X7Y2336D01*
X3850Y2336D02*
X3857Y2336D01*
X0Y2335D02*
X7Y2335D01*
X3850Y2335D02*
X3857Y2335D01*
X0Y2334D02*
X7Y2334D01*
X3850Y2334D02*
X3857Y2334D01*
X0Y2333D02*
X7Y2333D01*
X3850Y2333D02*
X3857Y2333D01*
X0Y2332D02*
X7Y2332D01*
X3850Y2332D02*
X3857Y2332D01*
X0Y2331D02*
X7Y2331D01*
X3850Y2331D02*
X3857Y2331D01*
X0Y2330D02*
X7Y2330D01*
X3850Y2330D02*
X3857Y2330D01*
X0Y2329D02*
X7Y2329D01*
X3850Y2329D02*
X3857Y2329D01*
X0Y2328D02*
X7Y2328D01*
X3850Y2328D02*
X3857Y2328D01*
X0Y2327D02*
X7Y2327D01*
X3850Y2327D02*
X3857Y2327D01*
X0Y2326D02*
X7Y2326D01*
X3850Y2326D02*
X3857Y2326D01*
X0Y2325D02*
X7Y2325D01*
X3850Y2325D02*
X3857Y2325D01*
X0Y2324D02*
X7Y2324D01*
X3850Y2324D02*
X3857Y2324D01*
X0Y2323D02*
X7Y2323D01*
X3850Y2323D02*
X3857Y2323D01*
X0Y2322D02*
X7Y2322D01*
X3850Y2322D02*
X3857Y2322D01*
X0Y2321D02*
X7Y2321D01*
X3850Y2321D02*
X3857Y2321D01*
X0Y2320D02*
X7Y2320D01*
X3850Y2320D02*
X3857Y2320D01*
X0Y2319D02*
X7Y2319D01*
X3850Y2319D02*
X3857Y2319D01*
X0Y2318D02*
X7Y2318D01*
X3850Y2318D02*
X3857Y2318D01*
X0Y2317D02*
X7Y2317D01*
X3850Y2317D02*
X3857Y2317D01*
X0Y2316D02*
X7Y2316D01*
X3850Y2316D02*
X3857Y2316D01*
X0Y2315D02*
X7Y2315D01*
X3850Y2315D02*
X3857Y2315D01*
X0Y2314D02*
X7Y2314D01*
X3850Y2314D02*
X3857Y2314D01*
X0Y2313D02*
X7Y2313D01*
X3850Y2313D02*
X3857Y2313D01*
X0Y2312D02*
X7Y2312D01*
X3850Y2312D02*
X3857Y2312D01*
X0Y2311D02*
X7Y2311D01*
X3850Y2311D02*
X3857Y2311D01*
X0Y2310D02*
X7Y2310D01*
X3850Y2310D02*
X3857Y2310D01*
X0Y2309D02*
X7Y2309D01*
X3850Y2309D02*
X3857Y2309D01*
X0Y2308D02*
X7Y2308D01*
X3850Y2308D02*
X3857Y2308D01*
X0Y2307D02*
X7Y2307D01*
X3850Y2307D02*
X3857Y2307D01*
X0Y2306D02*
X7Y2306D01*
X3850Y2306D02*
X3857Y2306D01*
X0Y2305D02*
X7Y2305D01*
X3850Y2305D02*
X3857Y2305D01*
X0Y2304D02*
X7Y2304D01*
X3850Y2304D02*
X3857Y2304D01*
X0Y2303D02*
X7Y2303D01*
X3850Y2303D02*
X3857Y2303D01*
X0Y2302D02*
X7Y2302D01*
X3850Y2302D02*
X3857Y2302D01*
X0Y2301D02*
X7Y2301D01*
X3850Y2301D02*
X3857Y2301D01*
X0Y2300D02*
X7Y2300D01*
X3850Y2300D02*
X3857Y2300D01*
X0Y2299D02*
X7Y2299D01*
X3850Y2299D02*
X3857Y2299D01*
X0Y2298D02*
X6Y2298D01*
X3850Y2298D02*
X3857Y2298D01*
X0Y2297D02*
X6Y2297D01*
X3850Y2297D02*
X3857Y2297D01*
X0Y2296D02*
X6Y2296D01*
X3850Y2296D02*
X3857Y2296D01*
X0Y2295D02*
X5Y2295D01*
X3850Y2295D02*
X3857Y2295D01*
X0Y2294D02*
X5Y2294D01*
X3850Y2294D02*
X3857Y2294D01*
X0Y2293D02*
X5Y2293D01*
X3850Y2293D02*
X3857Y2293D01*
X0Y2292D02*
X5Y2292D01*
X3850Y2292D02*
X3857Y2292D01*
X0Y2291D02*
X4Y2291D01*
X3850Y2291D02*
X3857Y2291D01*
X0Y2290D02*
X4Y2290D01*
X3850Y2290D02*
X3857Y2290D01*
X0Y2289D02*
X4Y2289D01*
X3850Y2289D02*
X3857Y2289D01*
X0Y2288D02*
X4Y2288D01*
X3850Y2288D02*
X3857Y2288D01*
X0Y2287D02*
X4Y2287D01*
X3850Y2287D02*
X3857Y2287D01*
X0Y2286D02*
X3Y2286D01*
X3850Y2286D02*
X3857Y2286D01*
X0Y2285D02*
X3Y2285D01*
X3850Y2285D02*
X3857Y2285D01*
X0Y2284D02*
X3Y2284D01*
X3850Y2284D02*
X3857Y2284D01*
X0Y2283D02*
X3Y2283D01*
X3850Y2283D02*
X3857Y2283D01*
X0Y2282D02*
X3Y2282D01*
X3850Y2282D02*
X3857Y2282D01*
X0Y2281D02*
X3Y2281D01*
X3850Y2281D02*
X3857Y2281D01*
X0Y2280D02*
X3Y2280D01*
X3850Y2280D02*
X3857Y2280D01*
X0Y2279D02*
X3Y2279D01*
X3850Y2279D02*
X3857Y2279D01*
X0Y2278D02*
X2Y2278D01*
X3850Y2278D02*
X3857Y2278D01*
X0Y2277D02*
X2Y2277D01*
X3850Y2277D02*
X3857Y2277D01*
X0Y2276D02*
X2Y2276D01*
X3850Y2276D02*
X3857Y2276D01*
X0Y2275D02*
X2Y2275D01*
X3850Y2275D02*
X3857Y2275D01*
X0Y2274D02*
X2Y2274D01*
X3850Y2274D02*
X3857Y2274D01*
X0Y2273D02*
X2Y2273D01*
X3850Y2273D02*
X3857Y2273D01*
X0Y2272D02*
X2Y2272D01*
X3851Y2272D02*
X3857Y2272D01*
X0Y2271D02*
X2Y2271D01*
X3851Y2271D02*
X3857Y2271D01*
X0Y2270D02*
X2Y2270D01*
X3851Y2270D02*
X3857Y2270D01*
X0Y2269D02*
X2Y2269D01*
X3851Y2269D02*
X3857Y2269D01*
X0Y2268D02*
X2Y2268D01*
X3851Y2268D02*
X3857Y2268D01*
X0Y2267D02*
X3Y2267D01*
X3851Y2267D02*
X3857Y2267D01*
X0Y2266D02*
X3Y2266D01*
X3851Y2266D02*
X3857Y2266D01*
X0Y2265D02*
X3Y2265D01*
X3851Y2265D02*
X3857Y2265D01*
X0Y2264D02*
X3Y2264D01*
X3851Y2264D02*
X3857Y2264D01*
X0Y2263D02*
X3Y2263D01*
X3851Y2263D02*
X3857Y2263D01*
X0Y2262D02*
X3Y2262D01*
X3851Y2262D02*
X3857Y2262D01*
X0Y2261D02*
X3Y2261D01*
X3851Y2261D02*
X3857Y2261D01*
X0Y2260D02*
X3Y2260D01*
X3851Y2260D02*
X3857Y2260D01*
X0Y2259D02*
X4Y2259D01*
X3851Y2259D02*
X3857Y2259D01*
X0Y2258D02*
X4Y2258D01*
X3851Y2258D02*
X3857Y2258D01*
X0Y2257D02*
X4Y2257D01*
X3851Y2257D02*
X3857Y2257D01*
X0Y2256D02*
X4Y2256D01*
X3851Y2256D02*
X3857Y2256D01*
X0Y2255D02*
X4Y2255D01*
X3851Y2255D02*
X3857Y2255D01*
X0Y2254D02*
X5Y2254D01*
X3851Y2254D02*
X3857Y2254D01*
X0Y2253D02*
X5Y2253D01*
X3851Y2253D02*
X3857Y2253D01*
X0Y2252D02*
X5Y2252D01*
X3851Y2252D02*
X3857Y2252D01*
X0Y2251D02*
X6Y2251D01*
X3851Y2251D02*
X3857Y2251D01*
X0Y2250D02*
X6Y2250D01*
X3851Y2250D02*
X3857Y2250D01*
X0Y2249D02*
X6Y2249D01*
X3850Y2249D02*
X3857Y2249D01*
X0Y2248D02*
X6Y2248D01*
X3850Y2248D02*
X3857Y2248D01*
X0Y2247D02*
X7Y2247D01*
X3850Y2247D02*
X3857Y2247D01*
X0Y2246D02*
X7Y2246D01*
X3850Y2246D02*
X3857Y2246D01*
X0Y2245D02*
X7Y2245D01*
X3850Y2245D02*
X3857Y2245D01*
X0Y2244D02*
X7Y2244D01*
X3850Y2244D02*
X3857Y2244D01*
X0Y2243D02*
X7Y2243D01*
X3850Y2243D02*
X3857Y2243D01*
X0Y2242D02*
X7Y2242D01*
X3850Y2242D02*
X3857Y2242D01*
X0Y2241D02*
X7Y2241D01*
X3850Y2241D02*
X3857Y2241D01*
X0Y2240D02*
X7Y2240D01*
X3850Y2240D02*
X3857Y2240D01*
X0Y2239D02*
X7Y2239D01*
X3850Y2239D02*
X3857Y2239D01*
X0Y2238D02*
X7Y2238D01*
X3850Y2238D02*
X3857Y2238D01*
X0Y2237D02*
X7Y2237D01*
X3850Y2237D02*
X3857Y2237D01*
X0Y2236D02*
X7Y2236D01*
X3850Y2236D02*
X3857Y2236D01*
X0Y2235D02*
X7Y2235D01*
X3850Y2235D02*
X3857Y2235D01*
X0Y2234D02*
X7Y2234D01*
X3850Y2234D02*
X3857Y2234D01*
X0Y2233D02*
X7Y2233D01*
X3850Y2233D02*
X3857Y2233D01*
X0Y2232D02*
X7Y2232D01*
X3850Y2232D02*
X3857Y2232D01*
X0Y2231D02*
X7Y2231D01*
X3850Y2231D02*
X3857Y2231D01*
X0Y2230D02*
X7Y2230D01*
X3850Y2230D02*
X3857Y2230D01*
X0Y2229D02*
X7Y2229D01*
X3850Y2229D02*
X3857Y2229D01*
X0Y2228D02*
X7Y2228D01*
X3850Y2228D02*
X3857Y2228D01*
X0Y2227D02*
X7Y2227D01*
X3850Y2227D02*
X3857Y2227D01*
X0Y2226D02*
X7Y2226D01*
X3850Y2226D02*
X3857Y2226D01*
X0Y2225D02*
X7Y2225D01*
X3850Y2225D02*
X3857Y2225D01*
X0Y2224D02*
X7Y2224D01*
X3850Y2224D02*
X3857Y2224D01*
X0Y2223D02*
X7Y2223D01*
X3850Y2223D02*
X3857Y2223D01*
X0Y2222D02*
X7Y2222D01*
X3850Y2222D02*
X3857Y2222D01*
X0Y2221D02*
X7Y2221D01*
X3850Y2221D02*
X3857Y2221D01*
X0Y2220D02*
X7Y2220D01*
X3850Y2220D02*
X3857Y2220D01*
X0Y2219D02*
X7Y2219D01*
X3850Y2219D02*
X3857Y2219D01*
X0Y2218D02*
X7Y2218D01*
X3850Y2218D02*
X3857Y2218D01*
X0Y2217D02*
X7Y2217D01*
X3850Y2217D02*
X3857Y2217D01*
X0Y2216D02*
X7Y2216D01*
X3850Y2216D02*
X3857Y2216D01*
X0Y2215D02*
X7Y2215D01*
X3850Y2215D02*
X3857Y2215D01*
X0Y2214D02*
X7Y2214D01*
X3850Y2214D02*
X3857Y2214D01*
X0Y2213D02*
X7Y2213D01*
X3850Y2213D02*
X3857Y2213D01*
X0Y2212D02*
X7Y2212D01*
X3850Y2212D02*
X3857Y2212D01*
X0Y2211D02*
X7Y2211D01*
X3850Y2211D02*
X3857Y2211D01*
X0Y2210D02*
X7Y2210D01*
X3850Y2210D02*
X3857Y2210D01*
X0Y2209D02*
X7Y2209D01*
X3850Y2209D02*
X3857Y2209D01*
X0Y2208D02*
X7Y2208D01*
X3850Y2208D02*
X3857Y2208D01*
X0Y2207D02*
X7Y2207D01*
X3850Y2207D02*
X3857Y2207D01*
X0Y2206D02*
X7Y2206D01*
X3850Y2206D02*
X3857Y2206D01*
X0Y2205D02*
X7Y2205D01*
X3850Y2205D02*
X3857Y2205D01*
X0Y2204D02*
X7Y2204D01*
X3850Y2204D02*
X3857Y2204D01*
X0Y2203D02*
X7Y2203D01*
X3850Y2203D02*
X3857Y2203D01*
X0Y2202D02*
X7Y2202D01*
X3850Y2202D02*
X3857Y2202D01*
X0Y2201D02*
X7Y2201D01*
X3850Y2201D02*
X3857Y2201D01*
X0Y2200D02*
X7Y2200D01*
X3850Y2200D02*
X3857Y2200D01*
X0Y2199D02*
X7Y2199D01*
X3850Y2199D02*
X3857Y2199D01*
X0Y2198D02*
X7Y2198D01*
X3850Y2198D02*
X3857Y2198D01*
X0Y2197D02*
X7Y2197D01*
X3850Y2197D02*
X3857Y2197D01*
X0Y2196D02*
X7Y2196D01*
X3850Y2196D02*
X3857Y2196D01*
X0Y2195D02*
X7Y2195D01*
X3850Y2195D02*
X3857Y2195D01*
X0Y2194D02*
X7Y2194D01*
X3850Y2194D02*
X3857Y2194D01*
X0Y2193D02*
X7Y2193D01*
X3850Y2193D02*
X3857Y2193D01*
X0Y2192D02*
X7Y2192D01*
X3850Y2192D02*
X3857Y2192D01*
X0Y2191D02*
X7Y2191D01*
X3850Y2191D02*
X3857Y2191D01*
X0Y2190D02*
X7Y2190D01*
X3850Y2190D02*
X3857Y2190D01*
X0Y2189D02*
X7Y2189D01*
X3850Y2189D02*
X3857Y2189D01*
X0Y2188D02*
X7Y2188D01*
X3850Y2188D02*
X3857Y2188D01*
X0Y2187D02*
X7Y2187D01*
X3850Y2187D02*
X3857Y2187D01*
X0Y2186D02*
X7Y2186D01*
X3850Y2186D02*
X3857Y2186D01*
X0Y2185D02*
X7Y2185D01*
X3850Y2185D02*
X3857Y2185D01*
X0Y2184D02*
X7Y2184D01*
X3850Y2184D02*
X3857Y2184D01*
X0Y2183D02*
X7Y2183D01*
X3850Y2183D02*
X3857Y2183D01*
X0Y2182D02*
X7Y2182D01*
X3850Y2182D02*
X3857Y2182D01*
X0Y2181D02*
X7Y2181D01*
X3850Y2181D02*
X3857Y2181D01*
X0Y2180D02*
X7Y2180D01*
X3850Y2180D02*
X3857Y2180D01*
X0Y2179D02*
X7Y2179D01*
X3850Y2179D02*
X3857Y2179D01*
X0Y2178D02*
X7Y2178D01*
X3850Y2178D02*
X3857Y2178D01*
X0Y2177D02*
X7Y2177D01*
X3850Y2177D02*
X3857Y2177D01*
X0Y2176D02*
X7Y2176D01*
X3850Y2176D02*
X3857Y2176D01*
X0Y2175D02*
X7Y2175D01*
X3850Y2175D02*
X3857Y2175D01*
X0Y2174D02*
X7Y2174D01*
X3850Y2174D02*
X3857Y2174D01*
X0Y2173D02*
X7Y2173D01*
X3850Y2173D02*
X3857Y2173D01*
X0Y2172D02*
X7Y2172D01*
X3850Y2172D02*
X3857Y2172D01*
X0Y2171D02*
X7Y2171D01*
X3850Y2171D02*
X3857Y2171D01*
X0Y2170D02*
X7Y2170D01*
X3850Y2170D02*
X3857Y2170D01*
X0Y2169D02*
X7Y2169D01*
X3850Y2169D02*
X3857Y2169D01*
X0Y2168D02*
X7Y2168D01*
X3850Y2168D02*
X3857Y2168D01*
X0Y2167D02*
X7Y2167D01*
X3850Y2167D02*
X3857Y2167D01*
X0Y2166D02*
X7Y2166D01*
X3850Y2166D02*
X3857Y2166D01*
X0Y2165D02*
X7Y2165D01*
X3850Y2165D02*
X3857Y2165D01*
X0Y2164D02*
X7Y2164D01*
X3850Y2164D02*
X3857Y2164D01*
X0Y2163D02*
X7Y2163D01*
X3850Y2163D02*
X3857Y2163D01*
X0Y2162D02*
X7Y2162D01*
X3850Y2162D02*
X3857Y2162D01*
X0Y2161D02*
X7Y2161D01*
X3850Y2161D02*
X3857Y2161D01*
X0Y2160D02*
X7Y2160D01*
X3850Y2160D02*
X3857Y2160D01*
X0Y2159D02*
X7Y2159D01*
X3850Y2159D02*
X3857Y2159D01*
X0Y2158D02*
X7Y2158D01*
X3850Y2158D02*
X3857Y2158D01*
X0Y2157D02*
X7Y2157D01*
X3850Y2157D02*
X3857Y2157D01*
X0Y2156D02*
X7Y2156D01*
X3850Y2156D02*
X3857Y2156D01*
X0Y2155D02*
X7Y2155D01*
X3850Y2155D02*
X3857Y2155D01*
X0Y2154D02*
X7Y2154D01*
X3850Y2154D02*
X3857Y2154D01*
X0Y2153D02*
X7Y2153D01*
X3850Y2153D02*
X3857Y2153D01*
X0Y2152D02*
X7Y2152D01*
X3850Y2152D02*
X3857Y2152D01*
X0Y2151D02*
X7Y2151D01*
X3850Y2151D02*
X3857Y2151D01*
X0Y2150D02*
X7Y2150D01*
X3850Y2150D02*
X3857Y2150D01*
X0Y2149D02*
X7Y2149D01*
X3850Y2149D02*
X3857Y2149D01*
X0Y2148D02*
X7Y2148D01*
X3850Y2148D02*
X3857Y2148D01*
X0Y2147D02*
X7Y2147D01*
X3850Y2147D02*
X3857Y2147D01*
X0Y2146D02*
X7Y2146D01*
X3850Y2146D02*
X3857Y2146D01*
X0Y2145D02*
X7Y2145D01*
X3850Y2145D02*
X3857Y2145D01*
X0Y2144D02*
X7Y2144D01*
X3850Y2144D02*
X3857Y2144D01*
X0Y2143D02*
X7Y2143D01*
X3850Y2143D02*
X3857Y2143D01*
X0Y2142D02*
X7Y2142D01*
X3850Y2142D02*
X3857Y2142D01*
X0Y2141D02*
X7Y2141D01*
X3850Y2141D02*
X3857Y2141D01*
X0Y2140D02*
X7Y2140D01*
X3850Y2140D02*
X3857Y2140D01*
X0Y2139D02*
X7Y2139D01*
X3850Y2139D02*
X3857Y2139D01*
X0Y2138D02*
X7Y2138D01*
X3850Y2138D02*
X3857Y2138D01*
X0Y2137D02*
X7Y2137D01*
X3850Y2137D02*
X3857Y2137D01*
X0Y2136D02*
X7Y2136D01*
X3850Y2136D02*
X3857Y2136D01*
X0Y2135D02*
X7Y2135D01*
X3850Y2135D02*
X3857Y2135D01*
X0Y2134D02*
X7Y2134D01*
X3850Y2134D02*
X3857Y2134D01*
X0Y2133D02*
X7Y2133D01*
X3850Y2133D02*
X3857Y2133D01*
X0Y2132D02*
X7Y2132D01*
X3850Y2132D02*
X3857Y2132D01*
X0Y2131D02*
X7Y2131D01*
X3850Y2131D02*
X3857Y2131D01*
X0Y2130D02*
X7Y2130D01*
X3850Y2130D02*
X3857Y2130D01*
X0Y2129D02*
X7Y2129D01*
X3850Y2129D02*
X3857Y2129D01*
X0Y2128D02*
X7Y2128D01*
X3850Y2128D02*
X3857Y2128D01*
X0Y2127D02*
X7Y2127D01*
X3850Y2127D02*
X3857Y2127D01*
X0Y2126D02*
X7Y2126D01*
X3850Y2126D02*
X3857Y2126D01*
X0Y2125D02*
X7Y2125D01*
X3850Y2125D02*
X3857Y2125D01*
X0Y2124D02*
X7Y2124D01*
X3850Y2124D02*
X3857Y2124D01*
X0Y2123D02*
X7Y2123D01*
X3850Y2123D02*
X3857Y2123D01*
X0Y2122D02*
X7Y2122D01*
X3850Y2122D02*
X3857Y2122D01*
X0Y2121D02*
X7Y2121D01*
X3850Y2121D02*
X3857Y2121D01*
X0Y2120D02*
X7Y2120D01*
X3850Y2120D02*
X3857Y2120D01*
X0Y2119D02*
X7Y2119D01*
X3850Y2119D02*
X3857Y2119D01*
X0Y2118D02*
X7Y2118D01*
X3850Y2118D02*
X3857Y2118D01*
X0Y2117D02*
X7Y2117D01*
X3850Y2117D02*
X3857Y2117D01*
X0Y2116D02*
X7Y2116D01*
X3850Y2116D02*
X3857Y2116D01*
X0Y2115D02*
X7Y2115D01*
X3850Y2115D02*
X3857Y2115D01*
X0Y2114D02*
X7Y2114D01*
X3850Y2114D02*
X3857Y2114D01*
X0Y2113D02*
X7Y2113D01*
X3850Y2113D02*
X3857Y2113D01*
X0Y2112D02*
X7Y2112D01*
X3850Y2112D02*
X3857Y2112D01*
X0Y2111D02*
X7Y2111D01*
X3850Y2111D02*
X3857Y2111D01*
X0Y2110D02*
X7Y2110D01*
X3850Y2110D02*
X3857Y2110D01*
X0Y2109D02*
X7Y2109D01*
X3850Y2109D02*
X3857Y2109D01*
X0Y2108D02*
X7Y2108D01*
X3850Y2108D02*
X3857Y2108D01*
X0Y2107D02*
X7Y2107D01*
X3850Y2107D02*
X3857Y2107D01*
X0Y2106D02*
X7Y2106D01*
X3850Y2106D02*
X3857Y2106D01*
X0Y2105D02*
X7Y2105D01*
X3850Y2105D02*
X3857Y2105D01*
X0Y2104D02*
X7Y2104D01*
X3850Y2104D02*
X3857Y2104D01*
X0Y2103D02*
X7Y2103D01*
X3850Y2103D02*
X3857Y2103D01*
X0Y2102D02*
X7Y2102D01*
X3850Y2102D02*
X3857Y2102D01*
X0Y2101D02*
X7Y2101D01*
X3850Y2101D02*
X3857Y2101D01*
X0Y2100D02*
X7Y2100D01*
X3850Y2100D02*
X3857Y2100D01*
X0Y2099D02*
X7Y2099D01*
X3850Y2099D02*
X3857Y2099D01*
X0Y2098D02*
X7Y2098D01*
X3850Y2098D02*
X3857Y2098D01*
X0Y2097D02*
X7Y2097D01*
X3850Y2097D02*
X3857Y2097D01*
X0Y2096D02*
X7Y2096D01*
X3850Y2096D02*
X3857Y2096D01*
X0Y2095D02*
X7Y2095D01*
X3850Y2095D02*
X3857Y2095D01*
X0Y2094D02*
X7Y2094D01*
X3850Y2094D02*
X3857Y2094D01*
X0Y2093D02*
X7Y2093D01*
X3850Y2093D02*
X3857Y2093D01*
X0Y2092D02*
X7Y2092D01*
X3850Y2092D02*
X3857Y2092D01*
X0Y2091D02*
X7Y2091D01*
X3850Y2091D02*
X3857Y2091D01*
X0Y2090D02*
X7Y2090D01*
X3850Y2090D02*
X3857Y2090D01*
X0Y2089D02*
X7Y2089D01*
X3850Y2089D02*
X3857Y2089D01*
X0Y2088D02*
X7Y2088D01*
X3850Y2088D02*
X3857Y2088D01*
X0Y2087D02*
X7Y2087D01*
X3850Y2087D02*
X3857Y2087D01*
X0Y2086D02*
X7Y2086D01*
X3850Y2086D02*
X3857Y2086D01*
X0Y2085D02*
X7Y2085D01*
X3850Y2085D02*
X3857Y2085D01*
X0Y2084D02*
X7Y2084D01*
X3850Y2084D02*
X3857Y2084D01*
X0Y2083D02*
X7Y2083D01*
X3850Y2083D02*
X3857Y2083D01*
X0Y2082D02*
X7Y2082D01*
X3850Y2082D02*
X3857Y2082D01*
X0Y2081D02*
X7Y2081D01*
X3850Y2081D02*
X3857Y2081D01*
X0Y2080D02*
X7Y2080D01*
X3850Y2080D02*
X3857Y2080D01*
X0Y2079D02*
X7Y2079D01*
X3850Y2079D02*
X3857Y2079D01*
X0Y2078D02*
X7Y2078D01*
X3850Y2078D02*
X3857Y2078D01*
X0Y2077D02*
X7Y2077D01*
X3850Y2077D02*
X3857Y2077D01*
X0Y2076D02*
X7Y2076D01*
X3850Y2076D02*
X3857Y2076D01*
X0Y2075D02*
X7Y2075D01*
X3850Y2075D02*
X3857Y2075D01*
X0Y2074D02*
X7Y2074D01*
X3850Y2074D02*
X3857Y2074D01*
X0Y2073D02*
X7Y2073D01*
X3850Y2073D02*
X3857Y2073D01*
X0Y2072D02*
X7Y2072D01*
X3850Y2072D02*
X3857Y2072D01*
X0Y2071D02*
X7Y2071D01*
X3850Y2071D02*
X3857Y2071D01*
X0Y2070D02*
X7Y2070D01*
X3850Y2070D02*
X3857Y2070D01*
X0Y2069D02*
X7Y2069D01*
X3850Y2069D02*
X3857Y2069D01*
X0Y2068D02*
X7Y2068D01*
X3850Y2068D02*
X3857Y2068D01*
X0Y2067D02*
X7Y2067D01*
X3850Y2067D02*
X3857Y2067D01*
X0Y2066D02*
X7Y2066D01*
X3850Y2066D02*
X3857Y2066D01*
X0Y2065D02*
X7Y2065D01*
X3850Y2065D02*
X3857Y2065D01*
X0Y2064D02*
X7Y2064D01*
X3850Y2064D02*
X3857Y2064D01*
X0Y2063D02*
X7Y2063D01*
X3850Y2063D02*
X3857Y2063D01*
X0Y2062D02*
X7Y2062D01*
X3850Y2062D02*
X3857Y2062D01*
X0Y2061D02*
X7Y2061D01*
X3850Y2061D02*
X3857Y2061D01*
X0Y2060D02*
X7Y2060D01*
X3850Y2060D02*
X3857Y2060D01*
X0Y2059D02*
X7Y2059D01*
X3850Y2059D02*
X3857Y2059D01*
X0Y2058D02*
X7Y2058D01*
X3850Y2058D02*
X3857Y2058D01*
X0Y2057D02*
X7Y2057D01*
X3850Y2057D02*
X3857Y2057D01*
X0Y2056D02*
X7Y2056D01*
X3850Y2056D02*
X3857Y2056D01*
X0Y2055D02*
X7Y2055D01*
X3850Y2055D02*
X3857Y2055D01*
X0Y2054D02*
X7Y2054D01*
X3850Y2054D02*
X3857Y2054D01*
X0Y2053D02*
X7Y2053D01*
X3850Y2053D02*
X3857Y2053D01*
X0Y2052D02*
X7Y2052D01*
X3850Y2052D02*
X3857Y2052D01*
X0Y2051D02*
X7Y2051D01*
X3850Y2051D02*
X3857Y2051D01*
X0Y2050D02*
X7Y2050D01*
X3850Y2050D02*
X3857Y2050D01*
X0Y2049D02*
X7Y2049D01*
X3850Y2049D02*
X3857Y2049D01*
X0Y2048D02*
X7Y2048D01*
X3850Y2048D02*
X3857Y2048D01*
X0Y2047D02*
X7Y2047D01*
X3850Y2047D02*
X3857Y2047D01*
X0Y2046D02*
X7Y2046D01*
X3850Y2046D02*
X3857Y2046D01*
X0Y2045D02*
X7Y2045D01*
X3850Y2045D02*
X3857Y2045D01*
X0Y2044D02*
X7Y2044D01*
X3850Y2044D02*
X3857Y2044D01*
X0Y2043D02*
X7Y2043D01*
X3850Y2043D02*
X3857Y2043D01*
X0Y2042D02*
X7Y2042D01*
X3850Y2042D02*
X3857Y2042D01*
X0Y2041D02*
X7Y2041D01*
X3850Y2041D02*
X3857Y2041D01*
X0Y2040D02*
X7Y2040D01*
X3850Y2040D02*
X3857Y2040D01*
X0Y2039D02*
X7Y2039D01*
X3850Y2039D02*
X3857Y2039D01*
X0Y2038D02*
X7Y2038D01*
X3850Y2038D02*
X3857Y2038D01*
X0Y2037D02*
X7Y2037D01*
X3850Y2037D02*
X3857Y2037D01*
X0Y2036D02*
X7Y2036D01*
X3850Y2036D02*
X3857Y2036D01*
X0Y2035D02*
X7Y2035D01*
X3850Y2035D02*
X3857Y2035D01*
X0Y2034D02*
X7Y2034D01*
X3850Y2034D02*
X3857Y2034D01*
X0Y2033D02*
X7Y2033D01*
X3850Y2033D02*
X3857Y2033D01*
X0Y2032D02*
X7Y2032D01*
X3850Y2032D02*
X3857Y2032D01*
X0Y2031D02*
X7Y2031D01*
X3850Y2031D02*
X3857Y2031D01*
X0Y2030D02*
X7Y2030D01*
X3850Y2030D02*
X3857Y2030D01*
X0Y2029D02*
X7Y2029D01*
X3850Y2029D02*
X3857Y2029D01*
X0Y2028D02*
X7Y2028D01*
X3850Y2028D02*
X3857Y2028D01*
X0Y2027D02*
X7Y2027D01*
X3850Y2027D02*
X3857Y2027D01*
X0Y2026D02*
X7Y2026D01*
X3850Y2026D02*
X3857Y2026D01*
X0Y2025D02*
X7Y2025D01*
X3850Y2025D02*
X3857Y2025D01*
X0Y2024D02*
X7Y2024D01*
X3850Y2024D02*
X3857Y2024D01*
X0Y2023D02*
X7Y2023D01*
X3850Y2023D02*
X3857Y2023D01*
X0Y2022D02*
X7Y2022D01*
X3850Y2022D02*
X3857Y2022D01*
X0Y2021D02*
X7Y2021D01*
X3850Y2021D02*
X3857Y2021D01*
X0Y2020D02*
X7Y2020D01*
X3850Y2020D02*
X3857Y2020D01*
X0Y2019D02*
X7Y2019D01*
X3850Y2019D02*
X3857Y2019D01*
X0Y2018D02*
X7Y2018D01*
X3850Y2018D02*
X3857Y2018D01*
X0Y2017D02*
X7Y2017D01*
X3850Y2017D02*
X3857Y2017D01*
X0Y2016D02*
X7Y2016D01*
X3850Y2016D02*
X3857Y2016D01*
X0Y2015D02*
X7Y2015D01*
X3850Y2015D02*
X3857Y2015D01*
X0Y2014D02*
X7Y2014D01*
X3850Y2014D02*
X3857Y2014D01*
X0Y2013D02*
X7Y2013D01*
X3850Y2013D02*
X3857Y2013D01*
X0Y2012D02*
X7Y2012D01*
X3850Y2012D02*
X3857Y2012D01*
X0Y2011D02*
X7Y2011D01*
X3850Y2011D02*
X3857Y2011D01*
X0Y2010D02*
X7Y2010D01*
X3850Y2010D02*
X3857Y2010D01*
X0Y2009D02*
X7Y2009D01*
X3850Y2009D02*
X3857Y2009D01*
X0Y2008D02*
X7Y2008D01*
X3850Y2008D02*
X3857Y2008D01*
X0Y2007D02*
X7Y2007D01*
X3850Y2007D02*
X3857Y2007D01*
X0Y2006D02*
X7Y2006D01*
X3850Y2006D02*
X3857Y2006D01*
X0Y2005D02*
X7Y2005D01*
X3850Y2005D02*
X3857Y2005D01*
X0Y2004D02*
X7Y2004D01*
X3850Y2004D02*
X3857Y2004D01*
X0Y2003D02*
X7Y2003D01*
X3850Y2003D02*
X3857Y2003D01*
X0Y2002D02*
X7Y2002D01*
X3850Y2002D02*
X3857Y2002D01*
X0Y2001D02*
X7Y2001D01*
X3850Y2001D02*
X3857Y2001D01*
X0Y2000D02*
X7Y2000D01*
X3850Y2000D02*
X3857Y2000D01*
X0Y1999D02*
X7Y1999D01*
X3850Y1999D02*
X3857Y1999D01*
X0Y1998D02*
X7Y1998D01*
X3850Y1998D02*
X3857Y1998D01*
X0Y1997D02*
X7Y1997D01*
X3850Y1997D02*
X3857Y1997D01*
X0Y1996D02*
X7Y1996D01*
X3850Y1996D02*
X3857Y1996D01*
X0Y1995D02*
X7Y1995D01*
X3850Y1995D02*
X3857Y1995D01*
X0Y1994D02*
X7Y1994D01*
X3850Y1994D02*
X3857Y1994D01*
X0Y1993D02*
X7Y1993D01*
X3850Y1993D02*
X3857Y1993D01*
X0Y1992D02*
X7Y1992D01*
X3850Y1992D02*
X3857Y1992D01*
X0Y1991D02*
X7Y1991D01*
X3850Y1991D02*
X3857Y1991D01*
X0Y1990D02*
X7Y1990D01*
X3850Y1990D02*
X3857Y1990D01*
X0Y1989D02*
X7Y1989D01*
X3850Y1989D02*
X3857Y1989D01*
X0Y1988D02*
X7Y1988D01*
X3850Y1988D02*
X3857Y1988D01*
X0Y1987D02*
X7Y1987D01*
X3850Y1987D02*
X3857Y1987D01*
X0Y1986D02*
X7Y1986D01*
X3850Y1986D02*
X3857Y1986D01*
X0Y1985D02*
X7Y1985D01*
X3850Y1985D02*
X3857Y1985D01*
X0Y1984D02*
X7Y1984D01*
X3850Y1984D02*
X3857Y1984D01*
X0Y1983D02*
X7Y1983D01*
X3850Y1983D02*
X3857Y1983D01*
X0Y1982D02*
X7Y1982D01*
X3850Y1982D02*
X3857Y1982D01*
X0Y1981D02*
X7Y1981D01*
X3850Y1981D02*
X3857Y1981D01*
X0Y1980D02*
X7Y1980D01*
X3850Y1980D02*
X3857Y1980D01*
X0Y1979D02*
X7Y1979D01*
X3850Y1979D02*
X3857Y1979D01*
X0Y1978D02*
X7Y1978D01*
X3850Y1978D02*
X3857Y1978D01*
X0Y1977D02*
X7Y1977D01*
X3850Y1977D02*
X3857Y1977D01*
X0Y1976D02*
X7Y1976D01*
X3850Y1976D02*
X3857Y1976D01*
X0Y1975D02*
X7Y1975D01*
X3850Y1975D02*
X3857Y1975D01*
X0Y1974D02*
X7Y1974D01*
X3850Y1974D02*
X3857Y1974D01*
X0Y1973D02*
X7Y1973D01*
X3850Y1973D02*
X3857Y1973D01*
X0Y1972D02*
X7Y1972D01*
X3850Y1972D02*
X3857Y1972D01*
X0Y1971D02*
X7Y1971D01*
X3850Y1971D02*
X3857Y1971D01*
X0Y1970D02*
X7Y1970D01*
X3850Y1970D02*
X3857Y1970D01*
X0Y1969D02*
X7Y1969D01*
X3850Y1969D02*
X3857Y1969D01*
X0Y1968D02*
X7Y1968D01*
X3850Y1968D02*
X3857Y1968D01*
X0Y1967D02*
X7Y1967D01*
X3850Y1967D02*
X3857Y1967D01*
X0Y1966D02*
X7Y1966D01*
X3850Y1966D02*
X3857Y1966D01*
X0Y1965D02*
X7Y1965D01*
X3850Y1965D02*
X3857Y1965D01*
X0Y1964D02*
X7Y1964D01*
X3850Y1964D02*
X3857Y1964D01*
X0Y1963D02*
X7Y1963D01*
X3850Y1963D02*
X3857Y1963D01*
X0Y1962D02*
X7Y1962D01*
X3850Y1962D02*
X3857Y1962D01*
X0Y1961D02*
X7Y1961D01*
X3850Y1961D02*
X3857Y1961D01*
X0Y1960D02*
X7Y1960D01*
X3850Y1960D02*
X3857Y1960D01*
X0Y1959D02*
X7Y1959D01*
X3850Y1959D02*
X3857Y1959D01*
X0Y1958D02*
X7Y1958D01*
X3850Y1958D02*
X3857Y1958D01*
X0Y1957D02*
X7Y1957D01*
X3850Y1957D02*
X3857Y1957D01*
X0Y1956D02*
X7Y1956D01*
X3850Y1956D02*
X3857Y1956D01*
X0Y1955D02*
X7Y1955D01*
X3850Y1955D02*
X3857Y1955D01*
X0Y1954D02*
X7Y1954D01*
X3850Y1954D02*
X3857Y1954D01*
X0Y1953D02*
X7Y1953D01*
X3850Y1953D02*
X3857Y1953D01*
X0Y1952D02*
X7Y1952D01*
X3850Y1952D02*
X3857Y1952D01*
X0Y1951D02*
X7Y1951D01*
X3850Y1951D02*
X3857Y1951D01*
X0Y1950D02*
X7Y1950D01*
X3850Y1950D02*
X3857Y1950D01*
X0Y1949D02*
X7Y1949D01*
X3850Y1949D02*
X3857Y1949D01*
X0Y1948D02*
X7Y1948D01*
X3850Y1948D02*
X3857Y1948D01*
X0Y1947D02*
X7Y1947D01*
X3850Y1947D02*
X3857Y1947D01*
X0Y1946D02*
X7Y1946D01*
X3850Y1946D02*
X3857Y1946D01*
X0Y1945D02*
X7Y1945D01*
X3850Y1945D02*
X3857Y1945D01*
X0Y1944D02*
X7Y1944D01*
X3850Y1944D02*
X3857Y1944D01*
X0Y1943D02*
X7Y1943D01*
X3850Y1943D02*
X3857Y1943D01*
X0Y1942D02*
X7Y1942D01*
X3850Y1942D02*
X3857Y1942D01*
X0Y1941D02*
X7Y1941D01*
X3850Y1941D02*
X3857Y1941D01*
X0Y1940D02*
X7Y1940D01*
X3850Y1940D02*
X3857Y1940D01*
X0Y1939D02*
X7Y1939D01*
X3850Y1939D02*
X3857Y1939D01*
X0Y1938D02*
X7Y1938D01*
X3850Y1938D02*
X3857Y1938D01*
X0Y1937D02*
X7Y1937D01*
X3850Y1937D02*
X3857Y1937D01*
X0Y1936D02*
X7Y1936D01*
X3850Y1936D02*
X3857Y1936D01*
X0Y1935D02*
X7Y1935D01*
X3850Y1935D02*
X3857Y1935D01*
X0Y1934D02*
X7Y1934D01*
X3850Y1934D02*
X3857Y1934D01*
X0Y1933D02*
X7Y1933D01*
X3850Y1933D02*
X3857Y1933D01*
X0Y1932D02*
X7Y1932D01*
X3850Y1932D02*
X3857Y1932D01*
X0Y1931D02*
X7Y1931D01*
X3850Y1931D02*
X3857Y1931D01*
X0Y1930D02*
X7Y1930D01*
X3850Y1930D02*
X3857Y1930D01*
X0Y1929D02*
X7Y1929D01*
X3850Y1929D02*
X3857Y1929D01*
X0Y1928D02*
X7Y1928D01*
X3850Y1928D02*
X3857Y1928D01*
X0Y1927D02*
X7Y1927D01*
X3850Y1927D02*
X3857Y1927D01*
X0Y1926D02*
X7Y1926D01*
X3850Y1926D02*
X3857Y1926D01*
X0Y1925D02*
X7Y1925D01*
X3850Y1925D02*
X3857Y1925D01*
X0Y1924D02*
X7Y1924D01*
X3850Y1924D02*
X3857Y1924D01*
X0Y1923D02*
X7Y1923D01*
X3850Y1923D02*
X3857Y1923D01*
X0Y1922D02*
X7Y1922D01*
X3850Y1922D02*
X3857Y1922D01*
X0Y1921D02*
X7Y1921D01*
X3850Y1921D02*
X3857Y1921D01*
X0Y1920D02*
X7Y1920D01*
X3850Y1920D02*
X3857Y1920D01*
X0Y1919D02*
X7Y1919D01*
X3850Y1919D02*
X3857Y1919D01*
X0Y1918D02*
X7Y1918D01*
X3850Y1918D02*
X3857Y1918D01*
X0Y1917D02*
X7Y1917D01*
X3850Y1917D02*
X3857Y1917D01*
X0Y1916D02*
X7Y1916D01*
X3850Y1916D02*
X3857Y1916D01*
X0Y1915D02*
X7Y1915D01*
X3850Y1915D02*
X3857Y1915D01*
X0Y1914D02*
X7Y1914D01*
X3850Y1914D02*
X3857Y1914D01*
X0Y1913D02*
X7Y1913D01*
X3850Y1913D02*
X3857Y1913D01*
X0Y1912D02*
X7Y1912D01*
X3850Y1912D02*
X3857Y1912D01*
X0Y1911D02*
X7Y1911D01*
X3850Y1911D02*
X3857Y1911D01*
X0Y1910D02*
X7Y1910D01*
X3850Y1910D02*
X3857Y1910D01*
X0Y1909D02*
X7Y1909D01*
X3850Y1909D02*
X3857Y1909D01*
X0Y1908D02*
X7Y1908D01*
X3850Y1908D02*
X3857Y1908D01*
X0Y1907D02*
X7Y1907D01*
X3850Y1907D02*
X3857Y1907D01*
X0Y1906D02*
X7Y1906D01*
X3850Y1906D02*
X3857Y1906D01*
X0Y1905D02*
X7Y1905D01*
X3850Y1905D02*
X3857Y1905D01*
X0Y1904D02*
X7Y1904D01*
X3850Y1904D02*
X3857Y1904D01*
X0Y1903D02*
X7Y1903D01*
X3850Y1903D02*
X3857Y1903D01*
X0Y1902D02*
X7Y1902D01*
X3850Y1902D02*
X3857Y1902D01*
X0Y1901D02*
X7Y1901D01*
X3850Y1901D02*
X3857Y1901D01*
X0Y1900D02*
X7Y1900D01*
X3850Y1900D02*
X3857Y1900D01*
X0Y1899D02*
X7Y1899D01*
X3850Y1899D02*
X3857Y1899D01*
X0Y1898D02*
X7Y1898D01*
X3850Y1898D02*
X3857Y1898D01*
X0Y1897D02*
X7Y1897D01*
X3850Y1897D02*
X3857Y1897D01*
X0Y1896D02*
X7Y1896D01*
X3850Y1896D02*
X3857Y1896D01*
X0Y1895D02*
X7Y1895D01*
X3850Y1895D02*
X3857Y1895D01*
X0Y1894D02*
X7Y1894D01*
X3850Y1894D02*
X3857Y1894D01*
X0Y1893D02*
X7Y1893D01*
X3850Y1893D02*
X3857Y1893D01*
X0Y1892D02*
X7Y1892D01*
X3850Y1892D02*
X3857Y1892D01*
X0Y1891D02*
X7Y1891D01*
X3850Y1891D02*
X3857Y1891D01*
X0Y1890D02*
X7Y1890D01*
X3850Y1890D02*
X3857Y1890D01*
X0Y1889D02*
X7Y1889D01*
X3850Y1889D02*
X3857Y1889D01*
X0Y1888D02*
X7Y1888D01*
X3850Y1888D02*
X3857Y1888D01*
X0Y1887D02*
X7Y1887D01*
X3850Y1887D02*
X3857Y1887D01*
X0Y1886D02*
X7Y1886D01*
X3850Y1886D02*
X3857Y1886D01*
X0Y1885D02*
X7Y1885D01*
X3850Y1885D02*
X3857Y1885D01*
X0Y1884D02*
X7Y1884D01*
X3850Y1884D02*
X3857Y1884D01*
X0Y1883D02*
X7Y1883D01*
X3850Y1883D02*
X3857Y1883D01*
X0Y1882D02*
X7Y1882D01*
X3850Y1882D02*
X3857Y1882D01*
X0Y1881D02*
X7Y1881D01*
X3850Y1881D02*
X3857Y1881D01*
X0Y1880D02*
X7Y1880D01*
X3850Y1880D02*
X3857Y1880D01*
X0Y1879D02*
X7Y1879D01*
X3850Y1879D02*
X3857Y1879D01*
X0Y1878D02*
X7Y1878D01*
X3850Y1878D02*
X3857Y1878D01*
X0Y1877D02*
X7Y1877D01*
X3850Y1877D02*
X3857Y1877D01*
X0Y1876D02*
X7Y1876D01*
X3850Y1876D02*
X3857Y1876D01*
X0Y1875D02*
X7Y1875D01*
X3850Y1875D02*
X3857Y1875D01*
X0Y1874D02*
X7Y1874D01*
X3850Y1874D02*
X3857Y1874D01*
X0Y1873D02*
X7Y1873D01*
X3850Y1873D02*
X3857Y1873D01*
X0Y1872D02*
X7Y1872D01*
X3850Y1872D02*
X3857Y1872D01*
X0Y1871D02*
X7Y1871D01*
X3850Y1871D02*
X3857Y1871D01*
X0Y1870D02*
X7Y1870D01*
X3850Y1870D02*
X3857Y1870D01*
X0Y1869D02*
X7Y1869D01*
X3850Y1869D02*
X3857Y1869D01*
X0Y1868D02*
X7Y1868D01*
X3850Y1868D02*
X3857Y1868D01*
X0Y1867D02*
X7Y1867D01*
X3850Y1867D02*
X3857Y1867D01*
X0Y1866D02*
X7Y1866D01*
X3850Y1866D02*
X3857Y1866D01*
X0Y1865D02*
X7Y1865D01*
X3850Y1865D02*
X3857Y1865D01*
X0Y1864D02*
X7Y1864D01*
X3850Y1864D02*
X3857Y1864D01*
X0Y1863D02*
X7Y1863D01*
X3850Y1863D02*
X3857Y1863D01*
X0Y1862D02*
X7Y1862D01*
X3850Y1862D02*
X3857Y1862D01*
X0Y1861D02*
X7Y1861D01*
X3850Y1861D02*
X3857Y1861D01*
X0Y1860D02*
X7Y1860D01*
X3850Y1860D02*
X3857Y1860D01*
X0Y1859D02*
X7Y1859D01*
X3850Y1859D02*
X3857Y1859D01*
X0Y1858D02*
X7Y1858D01*
X3850Y1858D02*
X3857Y1858D01*
X0Y1857D02*
X7Y1857D01*
X3850Y1857D02*
X3857Y1857D01*
X0Y1856D02*
X7Y1856D01*
X3850Y1856D02*
X3857Y1856D01*
X0Y1855D02*
X7Y1855D01*
X3850Y1855D02*
X3857Y1855D01*
X0Y1854D02*
X7Y1854D01*
X3850Y1854D02*
X3857Y1854D01*
X0Y1853D02*
X7Y1853D01*
X3850Y1853D02*
X3857Y1853D01*
X0Y1852D02*
X7Y1852D01*
X3850Y1852D02*
X3857Y1852D01*
X0Y1851D02*
X7Y1851D01*
X3850Y1851D02*
X3857Y1851D01*
X0Y1850D02*
X7Y1850D01*
X3850Y1850D02*
X3857Y1850D01*
X0Y1849D02*
X7Y1849D01*
X3850Y1849D02*
X3857Y1849D01*
X0Y1848D02*
X7Y1848D01*
X3850Y1848D02*
X3857Y1848D01*
X0Y1847D02*
X7Y1847D01*
X3850Y1847D02*
X3857Y1847D01*
X0Y1846D02*
X7Y1846D01*
X3850Y1846D02*
X3857Y1846D01*
X0Y1845D02*
X7Y1845D01*
X3850Y1845D02*
X3857Y1845D01*
X0Y1844D02*
X7Y1844D01*
X3850Y1844D02*
X3857Y1844D01*
X0Y1843D02*
X7Y1843D01*
X3850Y1843D02*
X3857Y1843D01*
X0Y1842D02*
X7Y1842D01*
X3850Y1842D02*
X3857Y1842D01*
X0Y1841D02*
X7Y1841D01*
X3850Y1841D02*
X3857Y1841D01*
X0Y1840D02*
X7Y1840D01*
X3850Y1840D02*
X3857Y1840D01*
X0Y1839D02*
X7Y1839D01*
X3850Y1839D02*
X3857Y1839D01*
X0Y1838D02*
X7Y1838D01*
X3850Y1838D02*
X3857Y1838D01*
X0Y1837D02*
X7Y1837D01*
X3850Y1837D02*
X3857Y1837D01*
X0Y1836D02*
X7Y1836D01*
X3850Y1836D02*
X3857Y1836D01*
X0Y1835D02*
X7Y1835D01*
X3850Y1835D02*
X3857Y1835D01*
X0Y1834D02*
X7Y1834D01*
X3850Y1834D02*
X3857Y1834D01*
X0Y1833D02*
X7Y1833D01*
X3850Y1833D02*
X3857Y1833D01*
X0Y1832D02*
X7Y1832D01*
X3850Y1832D02*
X3857Y1832D01*
X0Y1831D02*
X7Y1831D01*
X3850Y1831D02*
X3857Y1831D01*
X0Y1830D02*
X7Y1830D01*
X3850Y1830D02*
X3857Y1830D01*
X0Y1829D02*
X7Y1829D01*
X3850Y1829D02*
X3857Y1829D01*
X0Y1828D02*
X7Y1828D01*
X3850Y1828D02*
X3857Y1828D01*
X0Y1827D02*
X7Y1827D01*
X3850Y1827D02*
X3857Y1827D01*
X0Y1826D02*
X7Y1826D01*
X3850Y1826D02*
X3857Y1826D01*
X0Y1825D02*
X7Y1825D01*
X3850Y1825D02*
X3857Y1825D01*
X0Y1824D02*
X7Y1824D01*
X3850Y1824D02*
X3857Y1824D01*
X0Y1823D02*
X7Y1823D01*
X3850Y1823D02*
X3857Y1823D01*
X0Y1822D02*
X7Y1822D01*
X3850Y1822D02*
X3857Y1822D01*
X0Y1821D02*
X7Y1821D01*
X3850Y1821D02*
X3857Y1821D01*
X0Y1820D02*
X7Y1820D01*
X3850Y1820D02*
X3857Y1820D01*
X0Y1819D02*
X7Y1819D01*
X3850Y1819D02*
X3857Y1819D01*
X0Y1818D02*
X7Y1818D01*
X3850Y1818D02*
X3857Y1818D01*
X0Y1817D02*
X7Y1817D01*
X3850Y1817D02*
X3857Y1817D01*
X0Y1816D02*
X7Y1816D01*
X3850Y1816D02*
X3857Y1816D01*
X0Y1815D02*
X7Y1815D01*
X3850Y1815D02*
X3857Y1815D01*
X0Y1814D02*
X7Y1814D01*
X3850Y1814D02*
X3857Y1814D01*
X0Y1813D02*
X7Y1813D01*
X3850Y1813D02*
X3857Y1813D01*
X0Y1812D02*
X7Y1812D01*
X3850Y1812D02*
X3857Y1812D01*
X0Y1811D02*
X7Y1811D01*
X3850Y1811D02*
X3857Y1811D01*
X0Y1810D02*
X7Y1810D01*
X3850Y1810D02*
X3857Y1810D01*
X0Y1809D02*
X7Y1809D01*
X3850Y1809D02*
X3857Y1809D01*
X0Y1808D02*
X7Y1808D01*
X3850Y1808D02*
X3857Y1808D01*
X0Y1807D02*
X7Y1807D01*
X3850Y1807D02*
X3857Y1807D01*
X0Y1806D02*
X7Y1806D01*
X3850Y1806D02*
X3857Y1806D01*
X0Y1805D02*
X7Y1805D01*
X3850Y1805D02*
X3857Y1805D01*
X0Y1804D02*
X7Y1804D01*
X3850Y1804D02*
X3857Y1804D01*
X0Y1803D02*
X7Y1803D01*
X3850Y1803D02*
X3857Y1803D01*
X0Y1802D02*
X7Y1802D01*
X3850Y1802D02*
X3857Y1802D01*
X0Y1801D02*
X7Y1801D01*
X3850Y1801D02*
X3857Y1801D01*
X0Y1800D02*
X7Y1800D01*
X3850Y1800D02*
X3857Y1800D01*
X0Y1799D02*
X7Y1799D01*
X3850Y1799D02*
X3857Y1799D01*
X0Y1798D02*
X7Y1798D01*
X3850Y1798D02*
X3857Y1798D01*
X0Y1797D02*
X7Y1797D01*
X3850Y1797D02*
X3857Y1797D01*
X0Y1796D02*
X7Y1796D01*
X3850Y1796D02*
X3857Y1796D01*
X0Y1795D02*
X7Y1795D01*
X3850Y1795D02*
X3857Y1795D01*
X0Y1794D02*
X7Y1794D01*
X3850Y1794D02*
X3857Y1794D01*
X0Y1793D02*
X7Y1793D01*
X3850Y1793D02*
X3857Y1793D01*
X0Y1792D02*
X7Y1792D01*
X3850Y1792D02*
X3857Y1792D01*
X0Y1791D02*
X7Y1791D01*
X3850Y1791D02*
X3857Y1791D01*
X0Y1790D02*
X7Y1790D01*
X3850Y1790D02*
X3857Y1790D01*
X0Y1789D02*
X7Y1789D01*
X3850Y1789D02*
X3857Y1789D01*
X0Y1788D02*
X7Y1788D01*
X3850Y1788D02*
X3857Y1788D01*
X0Y1787D02*
X7Y1787D01*
X3850Y1787D02*
X3857Y1787D01*
X0Y1786D02*
X7Y1786D01*
X3850Y1786D02*
X3857Y1786D01*
X0Y1785D02*
X7Y1785D01*
X3850Y1785D02*
X3857Y1785D01*
X0Y1784D02*
X7Y1784D01*
X3850Y1784D02*
X3857Y1784D01*
X0Y1783D02*
X7Y1783D01*
X3850Y1783D02*
X3857Y1783D01*
X0Y1782D02*
X7Y1782D01*
X3850Y1782D02*
X3857Y1782D01*
X0Y1781D02*
X7Y1781D01*
X3850Y1781D02*
X3857Y1781D01*
X0Y1780D02*
X7Y1780D01*
X3850Y1780D02*
X3857Y1780D01*
X0Y1779D02*
X7Y1779D01*
X3850Y1779D02*
X3857Y1779D01*
X0Y1778D02*
X7Y1778D01*
X3850Y1778D02*
X3857Y1778D01*
X0Y1777D02*
X7Y1777D01*
X3850Y1777D02*
X3857Y1777D01*
X0Y1776D02*
X7Y1776D01*
X3850Y1776D02*
X3857Y1776D01*
X0Y1775D02*
X7Y1775D01*
X3850Y1775D02*
X3857Y1775D01*
X0Y1774D02*
X7Y1774D01*
X3850Y1774D02*
X3857Y1774D01*
X0Y1773D02*
X7Y1773D01*
X3850Y1773D02*
X3857Y1773D01*
X0Y1772D02*
X7Y1772D01*
X3850Y1772D02*
X3857Y1772D01*
X0Y1771D02*
X7Y1771D01*
X3850Y1771D02*
X3857Y1771D01*
X0Y1770D02*
X7Y1770D01*
X3850Y1770D02*
X3857Y1770D01*
X0Y1769D02*
X7Y1769D01*
X3850Y1769D02*
X3857Y1769D01*
X0Y1768D02*
X7Y1768D01*
X3850Y1768D02*
X3857Y1768D01*
X0Y1767D02*
X7Y1767D01*
X3850Y1767D02*
X3857Y1767D01*
X0Y1766D02*
X7Y1766D01*
X3850Y1766D02*
X3857Y1766D01*
X0Y1765D02*
X7Y1765D01*
X3850Y1765D02*
X3857Y1765D01*
X0Y1764D02*
X7Y1764D01*
X3850Y1764D02*
X3857Y1764D01*
X0Y1763D02*
X7Y1763D01*
X3850Y1763D02*
X3857Y1763D01*
X0Y1762D02*
X7Y1762D01*
X3850Y1762D02*
X3857Y1762D01*
X0Y1761D02*
X7Y1761D01*
X3850Y1761D02*
X3857Y1761D01*
X0Y1760D02*
X7Y1760D01*
X3850Y1760D02*
X3857Y1760D01*
X0Y1759D02*
X7Y1759D01*
X3850Y1759D02*
X3857Y1759D01*
X0Y1758D02*
X7Y1758D01*
X3850Y1758D02*
X3857Y1758D01*
X0Y1757D02*
X7Y1757D01*
X3850Y1757D02*
X3857Y1757D01*
X0Y1756D02*
X7Y1756D01*
X3850Y1756D02*
X3857Y1756D01*
X0Y1755D02*
X7Y1755D01*
X3850Y1755D02*
X3857Y1755D01*
X0Y1754D02*
X7Y1754D01*
X3850Y1754D02*
X3857Y1754D01*
X0Y1753D02*
X7Y1753D01*
X3850Y1753D02*
X3857Y1753D01*
X0Y1752D02*
X7Y1752D01*
X3850Y1752D02*
X3857Y1752D01*
X0Y1751D02*
X7Y1751D01*
X3850Y1751D02*
X3857Y1751D01*
X0Y1750D02*
X7Y1750D01*
X3850Y1750D02*
X3857Y1750D01*
X0Y1749D02*
X7Y1749D01*
X3850Y1749D02*
X3857Y1749D01*
X0Y1748D02*
X7Y1748D01*
X3850Y1748D02*
X3857Y1748D01*
X0Y1747D02*
X7Y1747D01*
X3850Y1747D02*
X3857Y1747D01*
X0Y1746D02*
X7Y1746D01*
X3850Y1746D02*
X3857Y1746D01*
X0Y1745D02*
X7Y1745D01*
X3850Y1745D02*
X3857Y1745D01*
X0Y1744D02*
X7Y1744D01*
X3850Y1744D02*
X3857Y1744D01*
X0Y1743D02*
X7Y1743D01*
X3850Y1743D02*
X3857Y1743D01*
X0Y1742D02*
X7Y1742D01*
X3850Y1742D02*
X3857Y1742D01*
X0Y1741D02*
X7Y1741D01*
X3850Y1741D02*
X3857Y1741D01*
X0Y1740D02*
X7Y1740D01*
X3850Y1740D02*
X3857Y1740D01*
X0Y1739D02*
X7Y1739D01*
X3850Y1739D02*
X3857Y1739D01*
X0Y1738D02*
X7Y1738D01*
X3850Y1738D02*
X3857Y1738D01*
X0Y1737D02*
X7Y1737D01*
X3850Y1737D02*
X3857Y1737D01*
X0Y1736D02*
X7Y1736D01*
X3850Y1736D02*
X3857Y1736D01*
X0Y1735D02*
X7Y1735D01*
X3850Y1735D02*
X3857Y1735D01*
X0Y1734D02*
X7Y1734D01*
X3850Y1734D02*
X3857Y1734D01*
X0Y1733D02*
X7Y1733D01*
X3850Y1733D02*
X3857Y1733D01*
X0Y1732D02*
X7Y1732D01*
X3850Y1732D02*
X3857Y1732D01*
X0Y1731D02*
X7Y1731D01*
X3850Y1731D02*
X3857Y1731D01*
X0Y1730D02*
X7Y1730D01*
X3850Y1730D02*
X3857Y1730D01*
X0Y1729D02*
X7Y1729D01*
X3850Y1729D02*
X3857Y1729D01*
X0Y1728D02*
X7Y1728D01*
X3850Y1728D02*
X3857Y1728D01*
X0Y1727D02*
X7Y1727D01*
X3850Y1727D02*
X3857Y1727D01*
X0Y1726D02*
X7Y1726D01*
X3850Y1726D02*
X3857Y1726D01*
X0Y1725D02*
X7Y1725D01*
X3850Y1725D02*
X3857Y1725D01*
X0Y1724D02*
X7Y1724D01*
X3850Y1724D02*
X3857Y1724D01*
X0Y1723D02*
X7Y1723D01*
X3850Y1723D02*
X3857Y1723D01*
X0Y1722D02*
X7Y1722D01*
X3850Y1722D02*
X3857Y1722D01*
X0Y1721D02*
X7Y1721D01*
X3850Y1721D02*
X3857Y1721D01*
X0Y1720D02*
X7Y1720D01*
X3850Y1720D02*
X3857Y1720D01*
X0Y1719D02*
X7Y1719D01*
X3850Y1719D02*
X3857Y1719D01*
X0Y1718D02*
X7Y1718D01*
X3850Y1718D02*
X3857Y1718D01*
X0Y1717D02*
X7Y1717D01*
X3850Y1717D02*
X3857Y1717D01*
X0Y1716D02*
X7Y1716D01*
X3850Y1716D02*
X3857Y1716D01*
X0Y1715D02*
X7Y1715D01*
X3850Y1715D02*
X3857Y1715D01*
X0Y1714D02*
X7Y1714D01*
X3850Y1714D02*
X3857Y1714D01*
X0Y1713D02*
X7Y1713D01*
X3850Y1713D02*
X3857Y1713D01*
X0Y1712D02*
X7Y1712D01*
X3850Y1712D02*
X3857Y1712D01*
X0Y1711D02*
X7Y1711D01*
X3850Y1711D02*
X3857Y1711D01*
X0Y1710D02*
X7Y1710D01*
X3850Y1710D02*
X3857Y1710D01*
X0Y1709D02*
X7Y1709D01*
X3850Y1709D02*
X3857Y1709D01*
X0Y1708D02*
X7Y1708D01*
X3850Y1708D02*
X3857Y1708D01*
X0Y1707D02*
X7Y1707D01*
X3850Y1707D02*
X3857Y1707D01*
X0Y1706D02*
X7Y1706D01*
X3850Y1706D02*
X3857Y1706D01*
X0Y1705D02*
X7Y1705D01*
X3850Y1705D02*
X3857Y1705D01*
X0Y1704D02*
X7Y1704D01*
X3850Y1704D02*
X3857Y1704D01*
X0Y1703D02*
X7Y1703D01*
X3850Y1703D02*
X3857Y1703D01*
X0Y1702D02*
X7Y1702D01*
X3850Y1702D02*
X3857Y1702D01*
X0Y1701D02*
X7Y1701D01*
X3850Y1701D02*
X3857Y1701D01*
X0Y1700D02*
X7Y1700D01*
X3850Y1700D02*
X3857Y1700D01*
X0Y1699D02*
X7Y1699D01*
X3850Y1699D02*
X3857Y1699D01*
X0Y1698D02*
X7Y1698D01*
X3850Y1698D02*
X3857Y1698D01*
X0Y1697D02*
X7Y1697D01*
X3850Y1697D02*
X3857Y1697D01*
X0Y1696D02*
X7Y1696D01*
X3850Y1696D02*
X3857Y1696D01*
X0Y1695D02*
X7Y1695D01*
X3850Y1695D02*
X3857Y1695D01*
X0Y1694D02*
X7Y1694D01*
X3850Y1694D02*
X3857Y1694D01*
X0Y1693D02*
X7Y1693D01*
X3850Y1693D02*
X3857Y1693D01*
X0Y1692D02*
X7Y1692D01*
X3850Y1692D02*
X3857Y1692D01*
X0Y1691D02*
X7Y1691D01*
X3850Y1691D02*
X3857Y1691D01*
X0Y1690D02*
X7Y1690D01*
X3850Y1690D02*
X3857Y1690D01*
X0Y1689D02*
X7Y1689D01*
X3850Y1689D02*
X3857Y1689D01*
X0Y1688D02*
X7Y1688D01*
X3850Y1688D02*
X3857Y1688D01*
X0Y1687D02*
X7Y1687D01*
X3850Y1687D02*
X3857Y1687D01*
X0Y1686D02*
X7Y1686D01*
X3850Y1686D02*
X3857Y1686D01*
X0Y1685D02*
X7Y1685D01*
X3850Y1685D02*
X3857Y1685D01*
X0Y1684D02*
X7Y1684D01*
X3850Y1684D02*
X3857Y1684D01*
X0Y1683D02*
X7Y1683D01*
X3850Y1683D02*
X3857Y1683D01*
X0Y1682D02*
X7Y1682D01*
X3850Y1682D02*
X3857Y1682D01*
X0Y1681D02*
X7Y1681D01*
X3850Y1681D02*
X3857Y1681D01*
X0Y1680D02*
X7Y1680D01*
X3850Y1680D02*
X3857Y1680D01*
X0Y1679D02*
X7Y1679D01*
X3850Y1679D02*
X3857Y1679D01*
X0Y1678D02*
X7Y1678D01*
X3850Y1678D02*
X3857Y1678D01*
X0Y1677D02*
X7Y1677D01*
X3850Y1677D02*
X3857Y1677D01*
X0Y1676D02*
X7Y1676D01*
X3850Y1676D02*
X3857Y1676D01*
X0Y1675D02*
X7Y1675D01*
X3850Y1675D02*
X3857Y1675D01*
X0Y1674D02*
X7Y1674D01*
X3850Y1674D02*
X3857Y1674D01*
X0Y1673D02*
X7Y1673D01*
X3850Y1673D02*
X3857Y1673D01*
X0Y1672D02*
X7Y1672D01*
X3850Y1672D02*
X3857Y1672D01*
X0Y1671D02*
X7Y1671D01*
X3850Y1671D02*
X3857Y1671D01*
X0Y1670D02*
X7Y1670D01*
X3850Y1670D02*
X3857Y1670D01*
X0Y1669D02*
X7Y1669D01*
X3850Y1669D02*
X3857Y1669D01*
X0Y1668D02*
X7Y1668D01*
X3850Y1668D02*
X3857Y1668D01*
X0Y1667D02*
X7Y1667D01*
X3850Y1667D02*
X3857Y1667D01*
X0Y1666D02*
X7Y1666D01*
X3850Y1666D02*
X3857Y1666D01*
X0Y1665D02*
X7Y1665D01*
X3850Y1665D02*
X3857Y1665D01*
X0Y1664D02*
X7Y1664D01*
X3850Y1664D02*
X3857Y1664D01*
X0Y1663D02*
X7Y1663D01*
X3850Y1663D02*
X3857Y1663D01*
X0Y1662D02*
X7Y1662D01*
X3850Y1662D02*
X3857Y1662D01*
X0Y1661D02*
X7Y1661D01*
X3850Y1661D02*
X3857Y1661D01*
X0Y1660D02*
X7Y1660D01*
X3850Y1660D02*
X3857Y1660D01*
X0Y1659D02*
X7Y1659D01*
X3850Y1659D02*
X3857Y1659D01*
X0Y1658D02*
X7Y1658D01*
X3850Y1658D02*
X3857Y1658D01*
X0Y1657D02*
X7Y1657D01*
X3850Y1657D02*
X3857Y1657D01*
X0Y1656D02*
X7Y1656D01*
X3850Y1656D02*
X3857Y1656D01*
X0Y1655D02*
X7Y1655D01*
X3850Y1655D02*
X3857Y1655D01*
X0Y1654D02*
X7Y1654D01*
X3850Y1654D02*
X3857Y1654D01*
X0Y1653D02*
X7Y1653D01*
X3850Y1653D02*
X3857Y1653D01*
X0Y1652D02*
X7Y1652D01*
X3850Y1652D02*
X3857Y1652D01*
X0Y1651D02*
X7Y1651D01*
X3850Y1651D02*
X3857Y1651D01*
X0Y1650D02*
X7Y1650D01*
X3850Y1650D02*
X3857Y1650D01*
X0Y1649D02*
X7Y1649D01*
X3850Y1649D02*
X3857Y1649D01*
X0Y1648D02*
X7Y1648D01*
X3850Y1648D02*
X3857Y1648D01*
X0Y1647D02*
X7Y1647D01*
X3850Y1647D02*
X3857Y1647D01*
X0Y1646D02*
X7Y1646D01*
X3850Y1646D02*
X3857Y1646D01*
X0Y1645D02*
X7Y1645D01*
X3850Y1645D02*
X3857Y1645D01*
X0Y1644D02*
X7Y1644D01*
X3850Y1644D02*
X3857Y1644D01*
X0Y1643D02*
X7Y1643D01*
X3850Y1643D02*
X3857Y1643D01*
X0Y1642D02*
X7Y1642D01*
X3850Y1642D02*
X3857Y1642D01*
X0Y1641D02*
X7Y1641D01*
X3850Y1641D02*
X3857Y1641D01*
X0Y1640D02*
X7Y1640D01*
X3850Y1640D02*
X3857Y1640D01*
X0Y1639D02*
X7Y1639D01*
X3850Y1639D02*
X3857Y1639D01*
X0Y1638D02*
X7Y1638D01*
X3850Y1638D02*
X3857Y1638D01*
X0Y1637D02*
X7Y1637D01*
X3850Y1637D02*
X3857Y1637D01*
X0Y1636D02*
X7Y1636D01*
X3850Y1636D02*
X3857Y1636D01*
X0Y1635D02*
X7Y1635D01*
X3850Y1635D02*
X3857Y1635D01*
X0Y1634D02*
X7Y1634D01*
X3850Y1634D02*
X3857Y1634D01*
X0Y1633D02*
X7Y1633D01*
X3850Y1633D02*
X3857Y1633D01*
X0Y1632D02*
X7Y1632D01*
X3850Y1632D02*
X3857Y1632D01*
X0Y1631D02*
X7Y1631D01*
X3850Y1631D02*
X3857Y1631D01*
X0Y1630D02*
X7Y1630D01*
X3850Y1630D02*
X3857Y1630D01*
X0Y1629D02*
X7Y1629D01*
X3850Y1629D02*
X3857Y1629D01*
X0Y1628D02*
X7Y1628D01*
X3850Y1628D02*
X3857Y1628D01*
X0Y1627D02*
X7Y1627D01*
X3850Y1627D02*
X3857Y1627D01*
X0Y1626D02*
X7Y1626D01*
X3850Y1626D02*
X3857Y1626D01*
X0Y1625D02*
X7Y1625D01*
X3850Y1625D02*
X3857Y1625D01*
X0Y1624D02*
X7Y1624D01*
X3850Y1624D02*
X3857Y1624D01*
X0Y1623D02*
X7Y1623D01*
X3850Y1623D02*
X3857Y1623D01*
X0Y1622D02*
X7Y1622D01*
X3850Y1622D02*
X3857Y1622D01*
X0Y1621D02*
X7Y1621D01*
X3850Y1621D02*
X3857Y1621D01*
X0Y1620D02*
X7Y1620D01*
X3850Y1620D02*
X3857Y1620D01*
X0Y1619D02*
X7Y1619D01*
X3850Y1619D02*
X3857Y1619D01*
X0Y1618D02*
X7Y1618D01*
X3850Y1618D02*
X3857Y1618D01*
X0Y1617D02*
X7Y1617D01*
X3850Y1617D02*
X3857Y1617D01*
X0Y1616D02*
X7Y1616D01*
X3850Y1616D02*
X3857Y1616D01*
X0Y1615D02*
X7Y1615D01*
X3850Y1615D02*
X3857Y1615D01*
X0Y1614D02*
X7Y1614D01*
X3850Y1614D02*
X3857Y1614D01*
X0Y1613D02*
X7Y1613D01*
X3850Y1613D02*
X3857Y1613D01*
X0Y1612D02*
X7Y1612D01*
X3850Y1612D02*
X3857Y1612D01*
X0Y1611D02*
X7Y1611D01*
X3850Y1611D02*
X3857Y1611D01*
X0Y1610D02*
X7Y1610D01*
X3850Y1610D02*
X3857Y1610D01*
X0Y1609D02*
X7Y1609D01*
X3850Y1609D02*
X3857Y1609D01*
X0Y1608D02*
X7Y1608D01*
X3850Y1608D02*
X3857Y1608D01*
X0Y1607D02*
X7Y1607D01*
X3850Y1607D02*
X3857Y1607D01*
X0Y1606D02*
X7Y1606D01*
X3850Y1606D02*
X3857Y1606D01*
X0Y1605D02*
X7Y1605D01*
X3850Y1605D02*
X3857Y1605D01*
X0Y1604D02*
X7Y1604D01*
X3850Y1604D02*
X3857Y1604D01*
X0Y1603D02*
X7Y1603D01*
X3850Y1603D02*
X3857Y1603D01*
X0Y1602D02*
X7Y1602D01*
X3850Y1602D02*
X3857Y1602D01*
X0Y1601D02*
X7Y1601D01*
X3850Y1601D02*
X3857Y1601D01*
X0Y1600D02*
X7Y1600D01*
X3850Y1600D02*
X3857Y1600D01*
X0Y1599D02*
X7Y1599D01*
X3850Y1599D02*
X3857Y1599D01*
X0Y1598D02*
X7Y1598D01*
X3850Y1598D02*
X3857Y1598D01*
X0Y1597D02*
X7Y1597D01*
X3850Y1597D02*
X3857Y1597D01*
X0Y1596D02*
X7Y1596D01*
X3850Y1596D02*
X3857Y1596D01*
X0Y1595D02*
X7Y1595D01*
X3850Y1595D02*
X3857Y1595D01*
X0Y1594D02*
X7Y1594D01*
X3850Y1594D02*
X3857Y1594D01*
X0Y1593D02*
X7Y1593D01*
X3850Y1593D02*
X3857Y1593D01*
X0Y1592D02*
X7Y1592D01*
X3850Y1592D02*
X3857Y1592D01*
X0Y1591D02*
X7Y1591D01*
X3850Y1591D02*
X3857Y1591D01*
X0Y1590D02*
X7Y1590D01*
X3850Y1590D02*
X3857Y1590D01*
X0Y1589D02*
X7Y1589D01*
X3850Y1589D02*
X3857Y1589D01*
X0Y1588D02*
X7Y1588D01*
X3850Y1588D02*
X3857Y1588D01*
X0Y1587D02*
X7Y1587D01*
X3850Y1587D02*
X3857Y1587D01*
X0Y1586D02*
X7Y1586D01*
X3850Y1586D02*
X3857Y1586D01*
X0Y1585D02*
X7Y1585D01*
X3850Y1585D02*
X3857Y1585D01*
X0Y1584D02*
X7Y1584D01*
X3850Y1584D02*
X3857Y1584D01*
X0Y1583D02*
X7Y1583D01*
X3850Y1583D02*
X3857Y1583D01*
X0Y1582D02*
X7Y1582D01*
X3850Y1582D02*
X3857Y1582D01*
X0Y1581D02*
X7Y1581D01*
X3850Y1581D02*
X3857Y1581D01*
X0Y1580D02*
X7Y1580D01*
X3850Y1580D02*
X3857Y1580D01*
X0Y1579D02*
X7Y1579D01*
X3850Y1579D02*
X3857Y1579D01*
X0Y1578D02*
X7Y1578D01*
X3850Y1578D02*
X3857Y1578D01*
X0Y1577D02*
X7Y1577D01*
X3850Y1577D02*
X3857Y1577D01*
X0Y1576D02*
X7Y1576D01*
X3850Y1576D02*
X3857Y1576D01*
X0Y1575D02*
X7Y1575D01*
X3850Y1575D02*
X3857Y1575D01*
X0Y1574D02*
X7Y1574D01*
X3850Y1574D02*
X3857Y1574D01*
X0Y1573D02*
X7Y1573D01*
X3850Y1573D02*
X3857Y1573D01*
X0Y1572D02*
X7Y1572D01*
X3850Y1572D02*
X3857Y1572D01*
X0Y1571D02*
X7Y1571D01*
X3850Y1571D02*
X3857Y1571D01*
X0Y1570D02*
X7Y1570D01*
X3850Y1570D02*
X3857Y1570D01*
X0Y1569D02*
X7Y1569D01*
X3850Y1569D02*
X3857Y1569D01*
X0Y1568D02*
X7Y1568D01*
X3850Y1568D02*
X3857Y1568D01*
X0Y1567D02*
X7Y1567D01*
X3850Y1567D02*
X3857Y1567D01*
X0Y1566D02*
X7Y1566D01*
X3850Y1566D02*
X3857Y1566D01*
X0Y1565D02*
X7Y1565D01*
X3850Y1565D02*
X3857Y1565D01*
X0Y1564D02*
X7Y1564D01*
X3850Y1564D02*
X3857Y1564D01*
X0Y1563D02*
X7Y1563D01*
X3850Y1563D02*
X3857Y1563D01*
X0Y1562D02*
X7Y1562D01*
X3850Y1562D02*
X3857Y1562D01*
X0Y1561D02*
X7Y1561D01*
X3850Y1561D02*
X3857Y1561D01*
X0Y1560D02*
X7Y1560D01*
X3850Y1560D02*
X3857Y1560D01*
X0Y1559D02*
X7Y1559D01*
X3850Y1559D02*
X3857Y1559D01*
X0Y1558D02*
X7Y1558D01*
X3850Y1558D02*
X3857Y1558D01*
X0Y1557D02*
X7Y1557D01*
X3850Y1557D02*
X3857Y1557D01*
X0Y1556D02*
X7Y1556D01*
X3850Y1556D02*
X3857Y1556D01*
X0Y1555D02*
X7Y1555D01*
X3850Y1555D02*
X3857Y1555D01*
X0Y1554D02*
X7Y1554D01*
X3850Y1554D02*
X3857Y1554D01*
X0Y1553D02*
X7Y1553D01*
X3850Y1553D02*
X3857Y1553D01*
X0Y1552D02*
X7Y1552D01*
X3850Y1552D02*
X3857Y1552D01*
X0Y1551D02*
X7Y1551D01*
X3850Y1551D02*
X3857Y1551D01*
X0Y1550D02*
X7Y1550D01*
X3850Y1550D02*
X3857Y1550D01*
X0Y1549D02*
X7Y1549D01*
X3850Y1549D02*
X3857Y1549D01*
X0Y1548D02*
X7Y1548D01*
X3850Y1548D02*
X3857Y1548D01*
X0Y1547D02*
X7Y1547D01*
X3850Y1547D02*
X3857Y1547D01*
X0Y1546D02*
X7Y1546D01*
X3850Y1546D02*
X3857Y1546D01*
X0Y1545D02*
X7Y1545D01*
X3850Y1545D02*
X3857Y1545D01*
X0Y1544D02*
X7Y1544D01*
X3850Y1544D02*
X3857Y1544D01*
X0Y1543D02*
X7Y1543D01*
X3850Y1543D02*
X3857Y1543D01*
X0Y1542D02*
X7Y1542D01*
X3850Y1542D02*
X3857Y1542D01*
X0Y1541D02*
X7Y1541D01*
X3850Y1541D02*
X3857Y1541D01*
X0Y1540D02*
X7Y1540D01*
X3850Y1540D02*
X3857Y1540D01*
X0Y1539D02*
X7Y1539D01*
X3850Y1539D02*
X3857Y1539D01*
X0Y1538D02*
X7Y1538D01*
X3850Y1538D02*
X3857Y1538D01*
X0Y1537D02*
X7Y1537D01*
X3850Y1537D02*
X3857Y1537D01*
X0Y1536D02*
X7Y1536D01*
X3850Y1536D02*
X3857Y1536D01*
X0Y1535D02*
X7Y1535D01*
X3850Y1535D02*
X3857Y1535D01*
X0Y1534D02*
X7Y1534D01*
X3850Y1534D02*
X3857Y1534D01*
X0Y1533D02*
X7Y1533D01*
X3850Y1533D02*
X3857Y1533D01*
X0Y1532D02*
X7Y1532D01*
X3850Y1532D02*
X3857Y1532D01*
X0Y1531D02*
X7Y1531D01*
X3850Y1531D02*
X3857Y1531D01*
X0Y1530D02*
X7Y1530D01*
X3850Y1530D02*
X3857Y1530D01*
X0Y1529D02*
X7Y1529D01*
X3850Y1529D02*
X3857Y1529D01*
X0Y1528D02*
X7Y1528D01*
X3850Y1528D02*
X3857Y1528D01*
X0Y1527D02*
X7Y1527D01*
X3850Y1527D02*
X3857Y1527D01*
X0Y1526D02*
X7Y1526D01*
X3850Y1526D02*
X3857Y1526D01*
X0Y1525D02*
X7Y1525D01*
X3850Y1525D02*
X3857Y1525D01*
X0Y1524D02*
X7Y1524D01*
X3850Y1524D02*
X3857Y1524D01*
X0Y1523D02*
X7Y1523D01*
X3850Y1523D02*
X3857Y1523D01*
X0Y1522D02*
X7Y1522D01*
X3850Y1522D02*
X3857Y1522D01*
X0Y1521D02*
X7Y1521D01*
X3850Y1521D02*
X3857Y1521D01*
X0Y1520D02*
X7Y1520D01*
X3850Y1520D02*
X3857Y1520D01*
X0Y1519D02*
X7Y1519D01*
X3850Y1519D02*
X3857Y1519D01*
X0Y1518D02*
X7Y1518D01*
X3850Y1518D02*
X3857Y1518D01*
X0Y1517D02*
X7Y1517D01*
X3850Y1517D02*
X3857Y1517D01*
X0Y1516D02*
X7Y1516D01*
X3850Y1516D02*
X3857Y1516D01*
X0Y1515D02*
X7Y1515D01*
X3850Y1515D02*
X3857Y1515D01*
X0Y1514D02*
X7Y1514D01*
X3850Y1514D02*
X3857Y1514D01*
X0Y1513D02*
X7Y1513D01*
X3850Y1513D02*
X3857Y1513D01*
X0Y1512D02*
X7Y1512D01*
X3850Y1512D02*
X3857Y1512D01*
X0Y1511D02*
X7Y1511D01*
X3850Y1511D02*
X3857Y1511D01*
X0Y1510D02*
X7Y1510D01*
X3850Y1510D02*
X3857Y1510D01*
X0Y1509D02*
X7Y1509D01*
X3850Y1509D02*
X3857Y1509D01*
X0Y1508D02*
X7Y1508D01*
X3850Y1508D02*
X3857Y1508D01*
X0Y1507D02*
X7Y1507D01*
X3850Y1507D02*
X3857Y1507D01*
X0Y1506D02*
X7Y1506D01*
X3850Y1506D02*
X3857Y1506D01*
X0Y1505D02*
X7Y1505D01*
X3850Y1505D02*
X3857Y1505D01*
X0Y1504D02*
X7Y1504D01*
X3850Y1504D02*
X3857Y1504D01*
X0Y1503D02*
X7Y1503D01*
X3850Y1503D02*
X3857Y1503D01*
X0Y1502D02*
X7Y1502D01*
X3850Y1502D02*
X3857Y1502D01*
X0Y1501D02*
X7Y1501D01*
X3850Y1501D02*
X3857Y1501D01*
X0Y1500D02*
X7Y1500D01*
X3850Y1500D02*
X3857Y1500D01*
X0Y1499D02*
X7Y1499D01*
X3850Y1499D02*
X3857Y1499D01*
X0Y1498D02*
X7Y1498D01*
X3850Y1498D02*
X3857Y1498D01*
X0Y1497D02*
X7Y1497D01*
X3850Y1497D02*
X3857Y1497D01*
X0Y1496D02*
X7Y1496D01*
X3850Y1496D02*
X3857Y1496D01*
X0Y1495D02*
X7Y1495D01*
X3850Y1495D02*
X3857Y1495D01*
X0Y1494D02*
X7Y1494D01*
X3850Y1494D02*
X3857Y1494D01*
X0Y1493D02*
X7Y1493D01*
X3850Y1493D02*
X3857Y1493D01*
X0Y1492D02*
X7Y1492D01*
X3850Y1492D02*
X3857Y1492D01*
X0Y1491D02*
X7Y1491D01*
X3850Y1491D02*
X3857Y1491D01*
X0Y1490D02*
X7Y1490D01*
X3850Y1490D02*
X3857Y1490D01*
X0Y1489D02*
X7Y1489D01*
X3850Y1489D02*
X3857Y1489D01*
X0Y1488D02*
X7Y1488D01*
X3850Y1488D02*
X3857Y1488D01*
X0Y1487D02*
X7Y1487D01*
X3850Y1487D02*
X3857Y1487D01*
X0Y1486D02*
X7Y1486D01*
X3850Y1486D02*
X3857Y1486D01*
X0Y1485D02*
X7Y1485D01*
X3850Y1485D02*
X3857Y1485D01*
X0Y1484D02*
X7Y1484D01*
X3850Y1484D02*
X3857Y1484D01*
X0Y1483D02*
X7Y1483D01*
X3850Y1483D02*
X3857Y1483D01*
X0Y1482D02*
X7Y1482D01*
X3850Y1482D02*
X3857Y1482D01*
X0Y1481D02*
X7Y1481D01*
X3850Y1481D02*
X3857Y1481D01*
X0Y1480D02*
X7Y1480D01*
X3850Y1480D02*
X3857Y1480D01*
X0Y1479D02*
X7Y1479D01*
X3850Y1479D02*
X3857Y1479D01*
X0Y1478D02*
X7Y1478D01*
X3850Y1478D02*
X3857Y1478D01*
X0Y1477D02*
X7Y1477D01*
X3850Y1477D02*
X3857Y1477D01*
X0Y1476D02*
X7Y1476D01*
X3850Y1476D02*
X3857Y1476D01*
X0Y1475D02*
X7Y1475D01*
X3850Y1475D02*
X3857Y1475D01*
X0Y1474D02*
X7Y1474D01*
X3850Y1474D02*
X3857Y1474D01*
X0Y1473D02*
X7Y1473D01*
X3850Y1473D02*
X3857Y1473D01*
X0Y1472D02*
X7Y1472D01*
X3850Y1472D02*
X3857Y1472D01*
X0Y1471D02*
X7Y1471D01*
X3850Y1471D02*
X3857Y1471D01*
X0Y1470D02*
X7Y1470D01*
X3850Y1470D02*
X3857Y1470D01*
X0Y1469D02*
X7Y1469D01*
X3850Y1469D02*
X3857Y1469D01*
X0Y1468D02*
X7Y1468D01*
X3850Y1468D02*
X3857Y1468D01*
X0Y1467D02*
X7Y1467D01*
X3850Y1467D02*
X3857Y1467D01*
X0Y1466D02*
X7Y1466D01*
X3850Y1466D02*
X3857Y1466D01*
X0Y1465D02*
X7Y1465D01*
X3850Y1465D02*
X3857Y1465D01*
X0Y1464D02*
X7Y1464D01*
X3850Y1464D02*
X3857Y1464D01*
X0Y1463D02*
X7Y1463D01*
X3850Y1463D02*
X3857Y1463D01*
X0Y1462D02*
X7Y1462D01*
X3850Y1462D02*
X3857Y1462D01*
X0Y1461D02*
X7Y1461D01*
X3850Y1461D02*
X3857Y1461D01*
X0Y1460D02*
X7Y1460D01*
X3850Y1460D02*
X3857Y1460D01*
X0Y1459D02*
X7Y1459D01*
X3850Y1459D02*
X3857Y1459D01*
X0Y1458D02*
X7Y1458D01*
X3850Y1458D02*
X3857Y1458D01*
X0Y1457D02*
X7Y1457D01*
X3850Y1457D02*
X3857Y1457D01*
X0Y1456D02*
X7Y1456D01*
X3850Y1456D02*
X3857Y1456D01*
X0Y1455D02*
X7Y1455D01*
X3850Y1455D02*
X3857Y1455D01*
X0Y1454D02*
X7Y1454D01*
X3850Y1454D02*
X3857Y1454D01*
X0Y1453D02*
X7Y1453D01*
X3850Y1453D02*
X3857Y1453D01*
X0Y1452D02*
X7Y1452D01*
X3850Y1452D02*
X3857Y1452D01*
X0Y1451D02*
X7Y1451D01*
X3850Y1451D02*
X3857Y1451D01*
X0Y1450D02*
X7Y1450D01*
X3850Y1450D02*
X3857Y1450D01*
X0Y1449D02*
X7Y1449D01*
X3850Y1449D02*
X3857Y1449D01*
X0Y1448D02*
X7Y1448D01*
X3850Y1448D02*
X3857Y1448D01*
X0Y1447D02*
X7Y1447D01*
X3850Y1447D02*
X3857Y1447D01*
X0Y1446D02*
X7Y1446D01*
X3850Y1446D02*
X3857Y1446D01*
X0Y1445D02*
X7Y1445D01*
X3850Y1445D02*
X3857Y1445D01*
X0Y1444D02*
X7Y1444D01*
X3850Y1444D02*
X3857Y1444D01*
X0Y1443D02*
X7Y1443D01*
X3850Y1443D02*
X3857Y1443D01*
X0Y1442D02*
X7Y1442D01*
X3850Y1442D02*
X3857Y1442D01*
X0Y1441D02*
X7Y1441D01*
X3850Y1441D02*
X3857Y1441D01*
X0Y1440D02*
X7Y1440D01*
X3850Y1440D02*
X3857Y1440D01*
X0Y1439D02*
X7Y1439D01*
X3850Y1439D02*
X3857Y1439D01*
X0Y1438D02*
X7Y1438D01*
X3850Y1438D02*
X3857Y1438D01*
X0Y1437D02*
X7Y1437D01*
X3850Y1437D02*
X3857Y1437D01*
X0Y1436D02*
X7Y1436D01*
X3850Y1436D02*
X3857Y1436D01*
X0Y1435D02*
X7Y1435D01*
X3850Y1435D02*
X3857Y1435D01*
X0Y1434D02*
X7Y1434D01*
X3850Y1434D02*
X3857Y1434D01*
X0Y1433D02*
X7Y1433D01*
X3850Y1433D02*
X3857Y1433D01*
X0Y1432D02*
X7Y1432D01*
X3850Y1432D02*
X3857Y1432D01*
X0Y1431D02*
X7Y1431D01*
X3850Y1431D02*
X3857Y1431D01*
X0Y1430D02*
X7Y1430D01*
X3850Y1430D02*
X3857Y1430D01*
X0Y1429D02*
X7Y1429D01*
X3850Y1429D02*
X3857Y1429D01*
X0Y1428D02*
X7Y1428D01*
X3850Y1428D02*
X3857Y1428D01*
X0Y1427D02*
X7Y1427D01*
X3850Y1427D02*
X3857Y1427D01*
X0Y1426D02*
X7Y1426D01*
X3850Y1426D02*
X3857Y1426D01*
X0Y1425D02*
X7Y1425D01*
X3850Y1425D02*
X3857Y1425D01*
X0Y1424D02*
X7Y1424D01*
X3850Y1424D02*
X3857Y1424D01*
X0Y1423D02*
X7Y1423D01*
X3850Y1423D02*
X3857Y1423D01*
X0Y1422D02*
X7Y1422D01*
X3850Y1422D02*
X3857Y1422D01*
X0Y1421D02*
X7Y1421D01*
X3850Y1421D02*
X3857Y1421D01*
X0Y1420D02*
X7Y1420D01*
X3850Y1420D02*
X3857Y1420D01*
X0Y1419D02*
X7Y1419D01*
X3850Y1419D02*
X3857Y1419D01*
X0Y1418D02*
X7Y1418D01*
X3850Y1418D02*
X3857Y1418D01*
X0Y1417D02*
X7Y1417D01*
X3850Y1417D02*
X3857Y1417D01*
X0Y1416D02*
X7Y1416D01*
X3850Y1416D02*
X3857Y1416D01*
X0Y1415D02*
X7Y1415D01*
X3850Y1415D02*
X3857Y1415D01*
X0Y1414D02*
X7Y1414D01*
X3850Y1414D02*
X3857Y1414D01*
X0Y1413D02*
X7Y1413D01*
X3850Y1413D02*
X3857Y1413D01*
X0Y1412D02*
X7Y1412D01*
X3850Y1412D02*
X3857Y1412D01*
X0Y1411D02*
X7Y1411D01*
X3850Y1411D02*
X3857Y1411D01*
X0Y1410D02*
X7Y1410D01*
X3850Y1410D02*
X3857Y1410D01*
X0Y1409D02*
X7Y1409D01*
X3850Y1409D02*
X3857Y1409D01*
X0Y1408D02*
X7Y1408D01*
X3850Y1408D02*
X3857Y1408D01*
X0Y1407D02*
X7Y1407D01*
X3850Y1407D02*
X3857Y1407D01*
X0Y1406D02*
X7Y1406D01*
X3850Y1406D02*
X3857Y1406D01*
X0Y1405D02*
X7Y1405D01*
X3850Y1405D02*
X3857Y1405D01*
X0Y1404D02*
X7Y1404D01*
X3850Y1404D02*
X3857Y1404D01*
X0Y1403D02*
X7Y1403D01*
X3850Y1403D02*
X3857Y1403D01*
X0Y1402D02*
X7Y1402D01*
X3850Y1402D02*
X3857Y1402D01*
X0Y1401D02*
X7Y1401D01*
X3850Y1401D02*
X3857Y1401D01*
X0Y1400D02*
X7Y1400D01*
X3850Y1400D02*
X3857Y1400D01*
X0Y1399D02*
X7Y1399D01*
X3850Y1399D02*
X3857Y1399D01*
X0Y1398D02*
X7Y1398D01*
X3850Y1398D02*
X3857Y1398D01*
X0Y1397D02*
X7Y1397D01*
X3850Y1397D02*
X3857Y1397D01*
X0Y1396D02*
X7Y1396D01*
X3850Y1396D02*
X3857Y1396D01*
X0Y1395D02*
X7Y1395D01*
X3850Y1395D02*
X3857Y1395D01*
X0Y1394D02*
X7Y1394D01*
X3850Y1394D02*
X3857Y1394D01*
X0Y1393D02*
X7Y1393D01*
X3850Y1393D02*
X3857Y1393D01*
X0Y1392D02*
X7Y1392D01*
X3850Y1392D02*
X3857Y1392D01*
X0Y1391D02*
X7Y1391D01*
X3850Y1391D02*
X3857Y1391D01*
X0Y1390D02*
X7Y1390D01*
X3850Y1390D02*
X3857Y1390D01*
X0Y1389D02*
X7Y1389D01*
X3850Y1389D02*
X3857Y1389D01*
X0Y1388D02*
X7Y1388D01*
X3850Y1388D02*
X3857Y1388D01*
X0Y1387D02*
X7Y1387D01*
X3850Y1387D02*
X3857Y1387D01*
X0Y1386D02*
X7Y1386D01*
X3850Y1386D02*
X3857Y1386D01*
X0Y1385D02*
X7Y1385D01*
X3850Y1385D02*
X3857Y1385D01*
X0Y1384D02*
X7Y1384D01*
X3850Y1384D02*
X3857Y1384D01*
X0Y1383D02*
X7Y1383D01*
X3850Y1383D02*
X3857Y1383D01*
X0Y1382D02*
X7Y1382D01*
X3850Y1382D02*
X3857Y1382D01*
X0Y1381D02*
X7Y1381D01*
X3850Y1381D02*
X3857Y1381D01*
X0Y1380D02*
X7Y1380D01*
X3850Y1380D02*
X3857Y1380D01*
X0Y1379D02*
X7Y1379D01*
X3850Y1379D02*
X3857Y1379D01*
X0Y1378D02*
X7Y1378D01*
X3850Y1378D02*
X3857Y1378D01*
X0Y1377D02*
X7Y1377D01*
X3850Y1377D02*
X3857Y1377D01*
X0Y1376D02*
X7Y1376D01*
X3850Y1376D02*
X3857Y1376D01*
X0Y1375D02*
X7Y1375D01*
X3850Y1375D02*
X3857Y1375D01*
X0Y1374D02*
X7Y1374D01*
X3850Y1374D02*
X3857Y1374D01*
X0Y1373D02*
X7Y1373D01*
X3850Y1373D02*
X3857Y1373D01*
X0Y1372D02*
X7Y1372D01*
X3850Y1372D02*
X3857Y1372D01*
X0Y1371D02*
X7Y1371D01*
X3850Y1371D02*
X3857Y1371D01*
X0Y1370D02*
X7Y1370D01*
X3850Y1370D02*
X3857Y1370D01*
X0Y1369D02*
X7Y1369D01*
X3850Y1369D02*
X3857Y1369D01*
X0Y1368D02*
X7Y1368D01*
X3850Y1368D02*
X3857Y1368D01*
X0Y1367D02*
X7Y1367D01*
X3850Y1367D02*
X3857Y1367D01*
X0Y1366D02*
X7Y1366D01*
X3850Y1366D02*
X3857Y1366D01*
X0Y1365D02*
X7Y1365D01*
X3850Y1365D02*
X3857Y1365D01*
X0Y1364D02*
X7Y1364D01*
X3850Y1364D02*
X3857Y1364D01*
X0Y1363D02*
X7Y1363D01*
X3850Y1363D02*
X3857Y1363D01*
X0Y1362D02*
X7Y1362D01*
X3850Y1362D02*
X3857Y1362D01*
X0Y1361D02*
X7Y1361D01*
X3850Y1361D02*
X3857Y1361D01*
X0Y1360D02*
X7Y1360D01*
X3850Y1360D02*
X3857Y1360D01*
X0Y1359D02*
X7Y1359D01*
X3850Y1359D02*
X3857Y1359D01*
X0Y1358D02*
X7Y1358D01*
X3850Y1358D02*
X3857Y1358D01*
X0Y1357D02*
X7Y1357D01*
X3850Y1357D02*
X3857Y1357D01*
X0Y1356D02*
X7Y1356D01*
X3850Y1356D02*
X3857Y1356D01*
X0Y1355D02*
X7Y1355D01*
X3850Y1355D02*
X3857Y1355D01*
X0Y1354D02*
X7Y1354D01*
X3850Y1354D02*
X3857Y1354D01*
X0Y1353D02*
X7Y1353D01*
X3850Y1353D02*
X3857Y1353D01*
X0Y1352D02*
X7Y1352D01*
X3850Y1352D02*
X3857Y1352D01*
X0Y1351D02*
X7Y1351D01*
X3850Y1351D02*
X3857Y1351D01*
X0Y1350D02*
X7Y1350D01*
X3850Y1350D02*
X3857Y1350D01*
X0Y1349D02*
X7Y1349D01*
X3850Y1349D02*
X3857Y1349D01*
X0Y1348D02*
X7Y1348D01*
X3850Y1348D02*
X3857Y1348D01*
X0Y1347D02*
X7Y1347D01*
X3850Y1347D02*
X3857Y1347D01*
X0Y1346D02*
X7Y1346D01*
X3850Y1346D02*
X3857Y1346D01*
X0Y1345D02*
X7Y1345D01*
X3850Y1345D02*
X3857Y1345D01*
X0Y1344D02*
X7Y1344D01*
X3850Y1344D02*
X3857Y1344D01*
X0Y1343D02*
X7Y1343D01*
X3850Y1343D02*
X3857Y1343D01*
X0Y1342D02*
X7Y1342D01*
X3850Y1342D02*
X3857Y1342D01*
X0Y1341D02*
X7Y1341D01*
X3850Y1341D02*
X3857Y1341D01*
X0Y1340D02*
X7Y1340D01*
X3850Y1340D02*
X3857Y1340D01*
X0Y1339D02*
X7Y1339D01*
X3850Y1339D02*
X3857Y1339D01*
X0Y1338D02*
X7Y1338D01*
X3850Y1338D02*
X3857Y1338D01*
X0Y1337D02*
X7Y1337D01*
X3850Y1337D02*
X3857Y1337D01*
X0Y1336D02*
X7Y1336D01*
X3850Y1336D02*
X3857Y1336D01*
X0Y1335D02*
X7Y1335D01*
X3850Y1335D02*
X3857Y1335D01*
X0Y1334D02*
X7Y1334D01*
X3850Y1334D02*
X3857Y1334D01*
X0Y1333D02*
X7Y1333D01*
X3850Y1333D02*
X3857Y1333D01*
X0Y1332D02*
X7Y1332D01*
X3850Y1332D02*
X3857Y1332D01*
X0Y1331D02*
X7Y1331D01*
X3850Y1331D02*
X3857Y1331D01*
X0Y1330D02*
X7Y1330D01*
X3850Y1330D02*
X3857Y1330D01*
X0Y1329D02*
X7Y1329D01*
X3850Y1329D02*
X3857Y1329D01*
X0Y1328D02*
X7Y1328D01*
X3850Y1328D02*
X3857Y1328D01*
X0Y1327D02*
X7Y1327D01*
X3850Y1327D02*
X3857Y1327D01*
X0Y1326D02*
X7Y1326D01*
X3850Y1326D02*
X3857Y1326D01*
X0Y1325D02*
X7Y1325D01*
X3850Y1325D02*
X3857Y1325D01*
X0Y1324D02*
X7Y1324D01*
X3850Y1324D02*
X3857Y1324D01*
X0Y1323D02*
X7Y1323D01*
X3850Y1323D02*
X3857Y1323D01*
X0Y1322D02*
X7Y1322D01*
X3850Y1322D02*
X3857Y1322D01*
X0Y1321D02*
X7Y1321D01*
X3850Y1321D02*
X3857Y1321D01*
X0Y1320D02*
X7Y1320D01*
X3850Y1320D02*
X3857Y1320D01*
X0Y1319D02*
X7Y1319D01*
X3850Y1319D02*
X3857Y1319D01*
X0Y1318D02*
X7Y1318D01*
X3850Y1318D02*
X3857Y1318D01*
X0Y1317D02*
X7Y1317D01*
X3850Y1317D02*
X3857Y1317D01*
X0Y1316D02*
X7Y1316D01*
X3850Y1316D02*
X3857Y1316D01*
X0Y1315D02*
X7Y1315D01*
X3850Y1315D02*
X3857Y1315D01*
X0Y1314D02*
X7Y1314D01*
X3850Y1314D02*
X3857Y1314D01*
X0Y1313D02*
X7Y1313D01*
X3850Y1313D02*
X3857Y1313D01*
X0Y1312D02*
X7Y1312D01*
X3850Y1312D02*
X3857Y1312D01*
X0Y1311D02*
X7Y1311D01*
X3850Y1311D02*
X3857Y1311D01*
X0Y1310D02*
X7Y1310D01*
X3850Y1310D02*
X3857Y1310D01*
X0Y1309D02*
X7Y1309D01*
X3850Y1309D02*
X3857Y1309D01*
X0Y1308D02*
X7Y1308D01*
X3850Y1308D02*
X3857Y1308D01*
X0Y1307D02*
X7Y1307D01*
X3850Y1307D02*
X3857Y1307D01*
X0Y1306D02*
X7Y1306D01*
X3850Y1306D02*
X3857Y1306D01*
X0Y1305D02*
X7Y1305D01*
X3850Y1305D02*
X3857Y1305D01*
X0Y1304D02*
X7Y1304D01*
X3850Y1304D02*
X3857Y1304D01*
X0Y1303D02*
X7Y1303D01*
X3850Y1303D02*
X3857Y1303D01*
X0Y1302D02*
X7Y1302D01*
X3850Y1302D02*
X3857Y1302D01*
X0Y1301D02*
X7Y1301D01*
X3850Y1301D02*
X3857Y1301D01*
X0Y1300D02*
X7Y1300D01*
X3850Y1300D02*
X3857Y1300D01*
X0Y1299D02*
X7Y1299D01*
X3850Y1299D02*
X3857Y1299D01*
X0Y1298D02*
X7Y1298D01*
X3850Y1298D02*
X3857Y1298D01*
X0Y1297D02*
X7Y1297D01*
X3850Y1297D02*
X3857Y1297D01*
X0Y1296D02*
X7Y1296D01*
X3850Y1296D02*
X3857Y1296D01*
X0Y1295D02*
X7Y1295D01*
X3850Y1295D02*
X3857Y1295D01*
X0Y1294D02*
X7Y1294D01*
X3850Y1294D02*
X3857Y1294D01*
X0Y1293D02*
X7Y1293D01*
X3850Y1293D02*
X3857Y1293D01*
X0Y1292D02*
X7Y1292D01*
X3850Y1292D02*
X3857Y1292D01*
X0Y1291D02*
X7Y1291D01*
X3850Y1291D02*
X3857Y1291D01*
X0Y1290D02*
X7Y1290D01*
X3850Y1290D02*
X3857Y1290D01*
X0Y1289D02*
X7Y1289D01*
X3850Y1289D02*
X3857Y1289D01*
X0Y1288D02*
X7Y1288D01*
X3850Y1288D02*
X3857Y1288D01*
X0Y1287D02*
X7Y1287D01*
X3850Y1287D02*
X3857Y1287D01*
X0Y1286D02*
X7Y1286D01*
X3850Y1286D02*
X3857Y1286D01*
X0Y1285D02*
X7Y1285D01*
X3850Y1285D02*
X3857Y1285D01*
X0Y1284D02*
X7Y1284D01*
X3850Y1284D02*
X3857Y1284D01*
X0Y1283D02*
X7Y1283D01*
X3850Y1283D02*
X3857Y1283D01*
X0Y1282D02*
X7Y1282D01*
X3850Y1282D02*
X3857Y1282D01*
X0Y1281D02*
X7Y1281D01*
X3850Y1281D02*
X3857Y1281D01*
X0Y1280D02*
X7Y1280D01*
X3850Y1280D02*
X3857Y1280D01*
X0Y1279D02*
X7Y1279D01*
X3850Y1279D02*
X3857Y1279D01*
X0Y1278D02*
X7Y1278D01*
X3850Y1278D02*
X3857Y1278D01*
X0Y1277D02*
X7Y1277D01*
X3850Y1277D02*
X3857Y1277D01*
X0Y1276D02*
X7Y1276D01*
X3850Y1276D02*
X3857Y1276D01*
X0Y1275D02*
X7Y1275D01*
X3850Y1275D02*
X3857Y1275D01*
X0Y1274D02*
X7Y1274D01*
X3850Y1274D02*
X3857Y1274D01*
X0Y1273D02*
X7Y1273D01*
X3850Y1273D02*
X3857Y1273D01*
X0Y1272D02*
X7Y1272D01*
X3850Y1272D02*
X3857Y1272D01*
X0Y1271D02*
X7Y1271D01*
X3850Y1271D02*
X3857Y1271D01*
X0Y1270D02*
X7Y1270D01*
X3850Y1270D02*
X3857Y1270D01*
X0Y1269D02*
X7Y1269D01*
X3850Y1269D02*
X3857Y1269D01*
X0Y1268D02*
X7Y1268D01*
X3850Y1268D02*
X3857Y1268D01*
X0Y1267D02*
X7Y1267D01*
X3850Y1267D02*
X3857Y1267D01*
X0Y1266D02*
X7Y1266D01*
X3850Y1266D02*
X3857Y1266D01*
X0Y1265D02*
X7Y1265D01*
X3850Y1265D02*
X3857Y1265D01*
X0Y1264D02*
X7Y1264D01*
X3850Y1264D02*
X3857Y1264D01*
X0Y1263D02*
X7Y1263D01*
X3850Y1263D02*
X3857Y1263D01*
X0Y1262D02*
X7Y1262D01*
X3850Y1262D02*
X3857Y1262D01*
X0Y1261D02*
X7Y1261D01*
X3850Y1261D02*
X3857Y1261D01*
X0Y1260D02*
X7Y1260D01*
X3850Y1260D02*
X3857Y1260D01*
X0Y1259D02*
X7Y1259D01*
X3850Y1259D02*
X3857Y1259D01*
X0Y1258D02*
X7Y1258D01*
X3850Y1258D02*
X3857Y1258D01*
X0Y1257D02*
X7Y1257D01*
X3850Y1257D02*
X3857Y1257D01*
X0Y1256D02*
X7Y1256D01*
X3850Y1256D02*
X3857Y1256D01*
X0Y1255D02*
X7Y1255D01*
X3850Y1255D02*
X3857Y1255D01*
X0Y1254D02*
X7Y1254D01*
X3850Y1254D02*
X3857Y1254D01*
X0Y1253D02*
X7Y1253D01*
X3850Y1253D02*
X3857Y1253D01*
X0Y1252D02*
X7Y1252D01*
X3850Y1252D02*
X3857Y1252D01*
X0Y1251D02*
X7Y1251D01*
X3850Y1251D02*
X3857Y1251D01*
X0Y1250D02*
X7Y1250D01*
X3850Y1250D02*
X3857Y1250D01*
X0Y1249D02*
X7Y1249D01*
X3850Y1249D02*
X3857Y1249D01*
X0Y1248D02*
X7Y1248D01*
X3850Y1248D02*
X3857Y1248D01*
X0Y1247D02*
X7Y1247D01*
X3850Y1247D02*
X3857Y1247D01*
X0Y1246D02*
X7Y1246D01*
X3850Y1246D02*
X3857Y1246D01*
X0Y1245D02*
X7Y1245D01*
X3850Y1245D02*
X3857Y1245D01*
X0Y1244D02*
X7Y1244D01*
X3850Y1244D02*
X3857Y1244D01*
X0Y1243D02*
X7Y1243D01*
X3850Y1243D02*
X3857Y1243D01*
X0Y1242D02*
X7Y1242D01*
X3850Y1242D02*
X3857Y1242D01*
X0Y1241D02*
X7Y1241D01*
X3850Y1241D02*
X3857Y1241D01*
X0Y1240D02*
X7Y1240D01*
X3850Y1240D02*
X3857Y1240D01*
X0Y1239D02*
X7Y1239D01*
X3850Y1239D02*
X3857Y1239D01*
X0Y1238D02*
X7Y1238D01*
X3850Y1238D02*
X3857Y1238D01*
X0Y1237D02*
X7Y1237D01*
X3850Y1237D02*
X3857Y1237D01*
X0Y1236D02*
X7Y1236D01*
X3850Y1236D02*
X3857Y1236D01*
X0Y1235D02*
X7Y1235D01*
X3850Y1235D02*
X3857Y1235D01*
X0Y1234D02*
X7Y1234D01*
X3850Y1234D02*
X3857Y1234D01*
X0Y1233D02*
X7Y1233D01*
X3850Y1233D02*
X3857Y1233D01*
X0Y1232D02*
X7Y1232D01*
X3850Y1232D02*
X3857Y1232D01*
X0Y1231D02*
X7Y1231D01*
X3850Y1231D02*
X3857Y1231D01*
X0Y1230D02*
X7Y1230D01*
X3850Y1230D02*
X3857Y1230D01*
X0Y1229D02*
X7Y1229D01*
X3850Y1229D02*
X3857Y1229D01*
X0Y1228D02*
X7Y1228D01*
X3850Y1228D02*
X3857Y1228D01*
X0Y1227D02*
X7Y1227D01*
X3850Y1227D02*
X3857Y1227D01*
X0Y1226D02*
X7Y1226D01*
X3850Y1226D02*
X3857Y1226D01*
X0Y1225D02*
X7Y1225D01*
X3850Y1225D02*
X3857Y1225D01*
X0Y1224D02*
X7Y1224D01*
X3850Y1224D02*
X3857Y1224D01*
X0Y1223D02*
X7Y1223D01*
X3850Y1223D02*
X3857Y1223D01*
X0Y1222D02*
X7Y1222D01*
X3850Y1222D02*
X3857Y1222D01*
X0Y1221D02*
X7Y1221D01*
X3850Y1221D02*
X3857Y1221D01*
X0Y1220D02*
X7Y1220D01*
X3850Y1220D02*
X3857Y1220D01*
X0Y1219D02*
X7Y1219D01*
X3850Y1219D02*
X3857Y1219D01*
X0Y1218D02*
X7Y1218D01*
X3850Y1218D02*
X3857Y1218D01*
X0Y1217D02*
X7Y1217D01*
X3850Y1217D02*
X3857Y1217D01*
X0Y1216D02*
X7Y1216D01*
X3850Y1216D02*
X3857Y1216D01*
X0Y1215D02*
X7Y1215D01*
X3850Y1215D02*
X3857Y1215D01*
X0Y1214D02*
X7Y1214D01*
X3850Y1214D02*
X3857Y1214D01*
X0Y1213D02*
X7Y1213D01*
X3850Y1213D02*
X3857Y1213D01*
X0Y1212D02*
X7Y1212D01*
X3850Y1212D02*
X3857Y1212D01*
X0Y1211D02*
X7Y1211D01*
X3850Y1211D02*
X3857Y1211D01*
X0Y1210D02*
X7Y1210D01*
X3850Y1210D02*
X3857Y1210D01*
X0Y1209D02*
X7Y1209D01*
X3850Y1209D02*
X3857Y1209D01*
X0Y1208D02*
X7Y1208D01*
X3850Y1208D02*
X3857Y1208D01*
X0Y1207D02*
X7Y1207D01*
X3850Y1207D02*
X3857Y1207D01*
X0Y1206D02*
X7Y1206D01*
X3850Y1206D02*
X3857Y1206D01*
X0Y1205D02*
X7Y1205D01*
X3850Y1205D02*
X3857Y1205D01*
X0Y1204D02*
X7Y1204D01*
X3850Y1204D02*
X3857Y1204D01*
X0Y1203D02*
X7Y1203D01*
X3850Y1203D02*
X3857Y1203D01*
X0Y1202D02*
X7Y1202D01*
X3850Y1202D02*
X3857Y1202D01*
X0Y1201D02*
X7Y1201D01*
X3850Y1201D02*
X3857Y1201D01*
X0Y1200D02*
X7Y1200D01*
X3850Y1200D02*
X3857Y1200D01*
X0Y1199D02*
X7Y1199D01*
X3850Y1199D02*
X3857Y1199D01*
X0Y1198D02*
X7Y1198D01*
X3850Y1198D02*
X3857Y1198D01*
X0Y1197D02*
X7Y1197D01*
X3850Y1197D02*
X3857Y1197D01*
X0Y1196D02*
X7Y1196D01*
X3850Y1196D02*
X3857Y1196D01*
X0Y1195D02*
X7Y1195D01*
X3850Y1195D02*
X3857Y1195D01*
X0Y1194D02*
X7Y1194D01*
X3850Y1194D02*
X3857Y1194D01*
X0Y1193D02*
X7Y1193D01*
X3850Y1193D02*
X3857Y1193D01*
X0Y1192D02*
X7Y1192D01*
X3850Y1192D02*
X3857Y1192D01*
X0Y1191D02*
X7Y1191D01*
X3850Y1191D02*
X3857Y1191D01*
X0Y1190D02*
X7Y1190D01*
X3850Y1190D02*
X3857Y1190D01*
X0Y1189D02*
X7Y1189D01*
X3850Y1189D02*
X3857Y1189D01*
X0Y1188D02*
X7Y1188D01*
X3850Y1188D02*
X3857Y1188D01*
X0Y1187D02*
X7Y1187D01*
X3850Y1187D02*
X3857Y1187D01*
X0Y1186D02*
X7Y1186D01*
X3850Y1186D02*
X3857Y1186D01*
X0Y1185D02*
X7Y1185D01*
X3850Y1185D02*
X3857Y1185D01*
X0Y1184D02*
X7Y1184D01*
X3850Y1184D02*
X3857Y1184D01*
X0Y1183D02*
X7Y1183D01*
X3850Y1183D02*
X3857Y1183D01*
X0Y1182D02*
X7Y1182D01*
X3850Y1182D02*
X3857Y1182D01*
X0Y1181D02*
X7Y1181D01*
X3850Y1181D02*
X3857Y1181D01*
X0Y1180D02*
X7Y1180D01*
X3850Y1180D02*
X3857Y1180D01*
X0Y1179D02*
X7Y1179D01*
X3850Y1179D02*
X3857Y1179D01*
X0Y1178D02*
X7Y1178D01*
X3850Y1178D02*
X3857Y1178D01*
X0Y1177D02*
X7Y1177D01*
X3850Y1177D02*
X3857Y1177D01*
X0Y1176D02*
X7Y1176D01*
X3850Y1176D02*
X3857Y1176D01*
X0Y1175D02*
X7Y1175D01*
X3850Y1175D02*
X3857Y1175D01*
X0Y1174D02*
X7Y1174D01*
X3850Y1174D02*
X3857Y1174D01*
X0Y1173D02*
X7Y1173D01*
X3850Y1173D02*
X3857Y1173D01*
X0Y1172D02*
X7Y1172D01*
X3850Y1172D02*
X3857Y1172D01*
X0Y1171D02*
X7Y1171D01*
X3850Y1171D02*
X3857Y1171D01*
X0Y1170D02*
X7Y1170D01*
X3850Y1170D02*
X3857Y1170D01*
X0Y1169D02*
X7Y1169D01*
X3850Y1169D02*
X3857Y1169D01*
X0Y1168D02*
X7Y1168D01*
X3850Y1168D02*
X3857Y1168D01*
X0Y1167D02*
X7Y1167D01*
X3850Y1167D02*
X3857Y1167D01*
X0Y1166D02*
X7Y1166D01*
X3850Y1166D02*
X3857Y1166D01*
X0Y1165D02*
X7Y1165D01*
X3850Y1165D02*
X3857Y1165D01*
X0Y1164D02*
X7Y1164D01*
X3850Y1164D02*
X3857Y1164D01*
X0Y1163D02*
X7Y1163D01*
X3850Y1163D02*
X3857Y1163D01*
X0Y1162D02*
X7Y1162D01*
X3850Y1162D02*
X3857Y1162D01*
X0Y1161D02*
X7Y1161D01*
X3850Y1161D02*
X3857Y1161D01*
X0Y1160D02*
X7Y1160D01*
X3850Y1160D02*
X3857Y1160D01*
X0Y1159D02*
X7Y1159D01*
X3850Y1159D02*
X3857Y1159D01*
X0Y1158D02*
X7Y1158D01*
X3850Y1158D02*
X3857Y1158D01*
X0Y1157D02*
X7Y1157D01*
X3850Y1157D02*
X3857Y1157D01*
X0Y1156D02*
X7Y1156D01*
X3850Y1156D02*
X3857Y1156D01*
X0Y1155D02*
X7Y1155D01*
X3850Y1155D02*
X3857Y1155D01*
X0Y1154D02*
X7Y1154D01*
X3850Y1154D02*
X3857Y1154D01*
X0Y1153D02*
X7Y1153D01*
X3850Y1153D02*
X3857Y1153D01*
X0Y1152D02*
X7Y1152D01*
X3850Y1152D02*
X3857Y1152D01*
X0Y1151D02*
X7Y1151D01*
X3850Y1151D02*
X3857Y1151D01*
X0Y1150D02*
X7Y1150D01*
X3850Y1150D02*
X3857Y1150D01*
X0Y1149D02*
X7Y1149D01*
X3850Y1149D02*
X3857Y1149D01*
X0Y1148D02*
X7Y1148D01*
X3850Y1148D02*
X3857Y1148D01*
X0Y1147D02*
X7Y1147D01*
X3850Y1147D02*
X3857Y1147D01*
X0Y1146D02*
X7Y1146D01*
X3850Y1146D02*
X3857Y1146D01*
X0Y1145D02*
X7Y1145D01*
X3850Y1145D02*
X3857Y1145D01*
X0Y1144D02*
X7Y1144D01*
X3850Y1144D02*
X3857Y1144D01*
X0Y1143D02*
X7Y1143D01*
X3850Y1143D02*
X3857Y1143D01*
X0Y1142D02*
X7Y1142D01*
X3850Y1142D02*
X3857Y1142D01*
X0Y1141D02*
X7Y1141D01*
X3850Y1141D02*
X3857Y1141D01*
X0Y1140D02*
X7Y1140D01*
X3850Y1140D02*
X3857Y1140D01*
X0Y1139D02*
X7Y1139D01*
X3850Y1139D02*
X3857Y1139D01*
X0Y1138D02*
X7Y1138D01*
X3850Y1138D02*
X3857Y1138D01*
X0Y1137D02*
X7Y1137D01*
X3850Y1137D02*
X3857Y1137D01*
X0Y1136D02*
X7Y1136D01*
X3850Y1136D02*
X3857Y1136D01*
X0Y1135D02*
X7Y1135D01*
X3850Y1135D02*
X3857Y1135D01*
X0Y1134D02*
X7Y1134D01*
X3850Y1134D02*
X3857Y1134D01*
X0Y1133D02*
X7Y1133D01*
X3850Y1133D02*
X3857Y1133D01*
X0Y1132D02*
X7Y1132D01*
X3850Y1132D02*
X3857Y1132D01*
X0Y1131D02*
X7Y1131D01*
X3850Y1131D02*
X3857Y1131D01*
X0Y1130D02*
X7Y1130D01*
X3850Y1130D02*
X3857Y1130D01*
X0Y1129D02*
X7Y1129D01*
X3850Y1129D02*
X3857Y1129D01*
X0Y1128D02*
X7Y1128D01*
X3850Y1128D02*
X3857Y1128D01*
X0Y1127D02*
X7Y1127D01*
X3850Y1127D02*
X3857Y1127D01*
X0Y1126D02*
X7Y1126D01*
X3850Y1126D02*
X3857Y1126D01*
X0Y1125D02*
X7Y1125D01*
X3850Y1125D02*
X3857Y1125D01*
X0Y1124D02*
X7Y1124D01*
X3850Y1124D02*
X3857Y1124D01*
X0Y1123D02*
X7Y1123D01*
X3850Y1123D02*
X3857Y1123D01*
X0Y1122D02*
X7Y1122D01*
X3850Y1122D02*
X3857Y1122D01*
X0Y1121D02*
X7Y1121D01*
X3850Y1121D02*
X3857Y1121D01*
X0Y1120D02*
X7Y1120D01*
X3850Y1120D02*
X3857Y1120D01*
X0Y1119D02*
X7Y1119D01*
X3850Y1119D02*
X3857Y1119D01*
X0Y1118D02*
X7Y1118D01*
X3850Y1118D02*
X3857Y1118D01*
X0Y1117D02*
X7Y1117D01*
X3850Y1117D02*
X3857Y1117D01*
X0Y1116D02*
X7Y1116D01*
X3850Y1116D02*
X3857Y1116D01*
X0Y1115D02*
X7Y1115D01*
X3850Y1115D02*
X3857Y1115D01*
X0Y1114D02*
X7Y1114D01*
X3850Y1114D02*
X3857Y1114D01*
X0Y1113D02*
X7Y1113D01*
X3850Y1113D02*
X3857Y1113D01*
X0Y1112D02*
X7Y1112D01*
X3850Y1112D02*
X3857Y1112D01*
X0Y1111D02*
X7Y1111D01*
X3850Y1111D02*
X3857Y1111D01*
X0Y1110D02*
X7Y1110D01*
X3850Y1110D02*
X3857Y1110D01*
X0Y1109D02*
X7Y1109D01*
X3850Y1109D02*
X3857Y1109D01*
X0Y1108D02*
X7Y1108D01*
X3850Y1108D02*
X3857Y1108D01*
X0Y1107D02*
X7Y1107D01*
X3850Y1107D02*
X3857Y1107D01*
X0Y1106D02*
X7Y1106D01*
X3850Y1106D02*
X3857Y1106D01*
X0Y1105D02*
X7Y1105D01*
X3850Y1105D02*
X3857Y1105D01*
X0Y1104D02*
X7Y1104D01*
X3850Y1104D02*
X3857Y1104D01*
X0Y1103D02*
X7Y1103D01*
X3850Y1103D02*
X3857Y1103D01*
X0Y1102D02*
X7Y1102D01*
X3850Y1102D02*
X3857Y1102D01*
X0Y1101D02*
X7Y1101D01*
X3850Y1101D02*
X3857Y1101D01*
X0Y1100D02*
X7Y1100D01*
X3850Y1100D02*
X3857Y1100D01*
X0Y1099D02*
X7Y1099D01*
X3850Y1099D02*
X3857Y1099D01*
X0Y1098D02*
X7Y1098D01*
X3850Y1098D02*
X3857Y1098D01*
X0Y1097D02*
X7Y1097D01*
X3850Y1097D02*
X3857Y1097D01*
X0Y1096D02*
X7Y1096D01*
X3850Y1096D02*
X3857Y1096D01*
X0Y1095D02*
X7Y1095D01*
X3850Y1095D02*
X3857Y1095D01*
X0Y1094D02*
X7Y1094D01*
X3850Y1094D02*
X3857Y1094D01*
X0Y1093D02*
X7Y1093D01*
X3850Y1093D02*
X3857Y1093D01*
X0Y1092D02*
X7Y1092D01*
X3850Y1092D02*
X3857Y1092D01*
X0Y1091D02*
X7Y1091D01*
X3850Y1091D02*
X3857Y1091D01*
X0Y1090D02*
X7Y1090D01*
X3850Y1090D02*
X3857Y1090D01*
X0Y1089D02*
X7Y1089D01*
X3850Y1089D02*
X3857Y1089D01*
X0Y1088D02*
X7Y1088D01*
X3850Y1088D02*
X3857Y1088D01*
X0Y1087D02*
X7Y1087D01*
X3850Y1087D02*
X3857Y1087D01*
X0Y1086D02*
X7Y1086D01*
X3850Y1086D02*
X3857Y1086D01*
X0Y1085D02*
X7Y1085D01*
X3850Y1085D02*
X3857Y1085D01*
X0Y1084D02*
X7Y1084D01*
X3850Y1084D02*
X3857Y1084D01*
X0Y1083D02*
X7Y1083D01*
X3850Y1083D02*
X3857Y1083D01*
X0Y1082D02*
X7Y1082D01*
X3850Y1082D02*
X3857Y1082D01*
X0Y1081D02*
X7Y1081D01*
X3850Y1081D02*
X3857Y1081D01*
X0Y1080D02*
X7Y1080D01*
X3850Y1080D02*
X3857Y1080D01*
X0Y1079D02*
X7Y1079D01*
X3850Y1079D02*
X3857Y1079D01*
X0Y1078D02*
X7Y1078D01*
X3850Y1078D02*
X3857Y1078D01*
X0Y1077D02*
X7Y1077D01*
X3850Y1077D02*
X3857Y1077D01*
X0Y1076D02*
X7Y1076D01*
X3850Y1076D02*
X3857Y1076D01*
X0Y1075D02*
X7Y1075D01*
X3850Y1075D02*
X3857Y1075D01*
X0Y1074D02*
X7Y1074D01*
X3850Y1074D02*
X3857Y1074D01*
X0Y1073D02*
X7Y1073D01*
X3850Y1073D02*
X3857Y1073D01*
X0Y1072D02*
X7Y1072D01*
X3850Y1072D02*
X3857Y1072D01*
X0Y1071D02*
X7Y1071D01*
X3850Y1071D02*
X3857Y1071D01*
X0Y1070D02*
X7Y1070D01*
X3850Y1070D02*
X3857Y1070D01*
X0Y1069D02*
X7Y1069D01*
X3850Y1069D02*
X3857Y1069D01*
X0Y1068D02*
X7Y1068D01*
X3850Y1068D02*
X3857Y1068D01*
X0Y1067D02*
X7Y1067D01*
X3850Y1067D02*
X3857Y1067D01*
X0Y1066D02*
X7Y1066D01*
X3850Y1066D02*
X3857Y1066D01*
X0Y1065D02*
X7Y1065D01*
X3850Y1065D02*
X3857Y1065D01*
X0Y1064D02*
X7Y1064D01*
X3850Y1064D02*
X3857Y1064D01*
X0Y1063D02*
X7Y1063D01*
X3850Y1063D02*
X3857Y1063D01*
X0Y1062D02*
X7Y1062D01*
X3850Y1062D02*
X3857Y1062D01*
X0Y1061D02*
X7Y1061D01*
X3850Y1061D02*
X3857Y1061D01*
X0Y1060D02*
X7Y1060D01*
X3850Y1060D02*
X3857Y1060D01*
X0Y1059D02*
X7Y1059D01*
X3850Y1059D02*
X3857Y1059D01*
X0Y1058D02*
X7Y1058D01*
X3850Y1058D02*
X3857Y1058D01*
X0Y1057D02*
X7Y1057D01*
X3850Y1057D02*
X3857Y1057D01*
X0Y1056D02*
X7Y1056D01*
X3850Y1056D02*
X3857Y1056D01*
X0Y1055D02*
X7Y1055D01*
X3850Y1055D02*
X3857Y1055D01*
X0Y1054D02*
X7Y1054D01*
X3850Y1054D02*
X3857Y1054D01*
X0Y1053D02*
X7Y1053D01*
X3850Y1053D02*
X3857Y1053D01*
X0Y1052D02*
X7Y1052D01*
X3850Y1052D02*
X3857Y1052D01*
X0Y1051D02*
X7Y1051D01*
X3850Y1051D02*
X3857Y1051D01*
X0Y1050D02*
X7Y1050D01*
X3850Y1050D02*
X3857Y1050D01*
X0Y1049D02*
X7Y1049D01*
X3850Y1049D02*
X3857Y1049D01*
X0Y1048D02*
X7Y1048D01*
X3850Y1048D02*
X3857Y1048D01*
X0Y1047D02*
X7Y1047D01*
X3850Y1047D02*
X3857Y1047D01*
X0Y1046D02*
X7Y1046D01*
X3850Y1046D02*
X3857Y1046D01*
X0Y1045D02*
X7Y1045D01*
X3850Y1045D02*
X3857Y1045D01*
X0Y1044D02*
X7Y1044D01*
X3850Y1044D02*
X3857Y1044D01*
X0Y1043D02*
X7Y1043D01*
X3850Y1043D02*
X3857Y1043D01*
X0Y1042D02*
X7Y1042D01*
X3850Y1042D02*
X3857Y1042D01*
X0Y1041D02*
X7Y1041D01*
X3850Y1041D02*
X3857Y1041D01*
X0Y1040D02*
X7Y1040D01*
X3850Y1040D02*
X3857Y1040D01*
X0Y1039D02*
X7Y1039D01*
X3850Y1039D02*
X3857Y1039D01*
X0Y1038D02*
X7Y1038D01*
X3850Y1038D02*
X3857Y1038D01*
X0Y1037D02*
X7Y1037D01*
X3850Y1037D02*
X3857Y1037D01*
X0Y1036D02*
X7Y1036D01*
X3850Y1036D02*
X3857Y1036D01*
X0Y1035D02*
X7Y1035D01*
X3850Y1035D02*
X3857Y1035D01*
X0Y1034D02*
X7Y1034D01*
X3850Y1034D02*
X3857Y1034D01*
X0Y1033D02*
X7Y1033D01*
X3850Y1033D02*
X3857Y1033D01*
X0Y1032D02*
X7Y1032D01*
X3850Y1032D02*
X3857Y1032D01*
X0Y1031D02*
X7Y1031D01*
X3850Y1031D02*
X3857Y1031D01*
X0Y1030D02*
X7Y1030D01*
X3850Y1030D02*
X3857Y1030D01*
X0Y1029D02*
X7Y1029D01*
X3850Y1029D02*
X3857Y1029D01*
X0Y1028D02*
X7Y1028D01*
X3850Y1028D02*
X3857Y1028D01*
X0Y1027D02*
X7Y1027D01*
X3850Y1027D02*
X3857Y1027D01*
X0Y1026D02*
X7Y1026D01*
X3850Y1026D02*
X3857Y1026D01*
X0Y1025D02*
X7Y1025D01*
X3850Y1025D02*
X3857Y1025D01*
X0Y1024D02*
X7Y1024D01*
X3850Y1024D02*
X3857Y1024D01*
X0Y1023D02*
X7Y1023D01*
X3850Y1023D02*
X3857Y1023D01*
X0Y1022D02*
X7Y1022D01*
X3850Y1022D02*
X3857Y1022D01*
X0Y1021D02*
X7Y1021D01*
X3850Y1021D02*
X3857Y1021D01*
X0Y1020D02*
X7Y1020D01*
X3850Y1020D02*
X3857Y1020D01*
X0Y1019D02*
X7Y1019D01*
X3850Y1019D02*
X3857Y1019D01*
X0Y1018D02*
X7Y1018D01*
X3850Y1018D02*
X3857Y1018D01*
X0Y1017D02*
X7Y1017D01*
X3850Y1017D02*
X3857Y1017D01*
X0Y1016D02*
X7Y1016D01*
X3850Y1016D02*
X3857Y1016D01*
X0Y1015D02*
X7Y1015D01*
X3850Y1015D02*
X3857Y1015D01*
X0Y1014D02*
X7Y1014D01*
X3850Y1014D02*
X3857Y1014D01*
X0Y1013D02*
X7Y1013D01*
X3850Y1013D02*
X3857Y1013D01*
X0Y1012D02*
X7Y1012D01*
X3850Y1012D02*
X3857Y1012D01*
X0Y1011D02*
X7Y1011D01*
X3850Y1011D02*
X3857Y1011D01*
X0Y1010D02*
X7Y1010D01*
X3850Y1010D02*
X3857Y1010D01*
X0Y1009D02*
X7Y1009D01*
X3850Y1009D02*
X3857Y1009D01*
X0Y1008D02*
X7Y1008D01*
X3850Y1008D02*
X3857Y1008D01*
X0Y1007D02*
X7Y1007D01*
X3850Y1007D02*
X3857Y1007D01*
X0Y1006D02*
X7Y1006D01*
X3850Y1006D02*
X3857Y1006D01*
X0Y1005D02*
X7Y1005D01*
X3850Y1005D02*
X3857Y1005D01*
X0Y1004D02*
X7Y1004D01*
X3850Y1004D02*
X3857Y1004D01*
X0Y1003D02*
X7Y1003D01*
X3850Y1003D02*
X3857Y1003D01*
X0Y1002D02*
X7Y1002D01*
X3850Y1002D02*
X3857Y1002D01*
X0Y1001D02*
X7Y1001D01*
X3850Y1001D02*
X3857Y1001D01*
X0Y1000D02*
X7Y1000D01*
X3850Y1000D02*
X3857Y1000D01*
X0Y999D02*
X7Y999D01*
X3850Y999D02*
X3857Y999D01*
X0Y998D02*
X7Y998D01*
X3850Y998D02*
X3857Y998D01*
X0Y997D02*
X7Y997D01*
X3850Y997D02*
X3857Y997D01*
X0Y996D02*
X7Y996D01*
X3850Y996D02*
X3857Y996D01*
X0Y995D02*
X7Y995D01*
X3850Y995D02*
X3857Y995D01*
X0Y994D02*
X7Y994D01*
X3850Y994D02*
X3857Y994D01*
X0Y993D02*
X7Y993D01*
X3850Y993D02*
X3857Y993D01*
X0Y992D02*
X7Y992D01*
X3850Y992D02*
X3857Y992D01*
X0Y991D02*
X7Y991D01*
X3850Y991D02*
X3857Y991D01*
X0Y990D02*
X7Y990D01*
X3850Y990D02*
X3857Y990D01*
X0Y989D02*
X7Y989D01*
X3850Y989D02*
X3857Y989D01*
X0Y988D02*
X7Y988D01*
X3850Y988D02*
X3857Y988D01*
X0Y987D02*
X7Y987D01*
X3850Y987D02*
X3857Y987D01*
X0Y986D02*
X7Y986D01*
X3850Y986D02*
X3857Y986D01*
X0Y985D02*
X7Y985D01*
X3850Y985D02*
X3857Y985D01*
X0Y984D02*
X7Y984D01*
X3850Y984D02*
X3857Y984D01*
X0Y983D02*
X7Y983D01*
X3850Y983D02*
X3857Y983D01*
X0Y982D02*
X7Y982D01*
X3850Y982D02*
X3857Y982D01*
X0Y981D02*
X7Y981D01*
X3850Y981D02*
X3857Y981D01*
X0Y980D02*
X7Y980D01*
X3850Y980D02*
X3857Y980D01*
X0Y979D02*
X7Y979D01*
X3850Y979D02*
X3857Y979D01*
X0Y978D02*
X7Y978D01*
X3850Y978D02*
X3857Y978D01*
X0Y977D02*
X7Y977D01*
X3850Y977D02*
X3857Y977D01*
X0Y976D02*
X7Y976D01*
X3850Y976D02*
X3857Y976D01*
X0Y975D02*
X7Y975D01*
X3850Y975D02*
X3857Y975D01*
X0Y974D02*
X7Y974D01*
X3850Y974D02*
X3857Y974D01*
X0Y973D02*
X7Y973D01*
X3850Y973D02*
X3857Y973D01*
X0Y972D02*
X7Y972D01*
X3850Y972D02*
X3857Y972D01*
X0Y971D02*
X7Y971D01*
X3850Y971D02*
X3857Y971D01*
X0Y970D02*
X7Y970D01*
X3850Y970D02*
X3857Y970D01*
X0Y969D02*
X7Y969D01*
X3850Y969D02*
X3857Y969D01*
X0Y968D02*
X7Y968D01*
X3850Y968D02*
X3857Y968D01*
X0Y967D02*
X7Y967D01*
X3850Y967D02*
X3857Y967D01*
X0Y966D02*
X7Y966D01*
X3850Y966D02*
X3857Y966D01*
X0Y965D02*
X7Y965D01*
X3850Y965D02*
X3857Y965D01*
X0Y964D02*
X7Y964D01*
X3850Y964D02*
X3857Y964D01*
X0Y963D02*
X7Y963D01*
X3850Y963D02*
X3857Y963D01*
X0Y962D02*
X7Y962D01*
X3850Y962D02*
X3857Y962D01*
X0Y961D02*
X7Y961D01*
X3850Y961D02*
X3857Y961D01*
X0Y960D02*
X7Y960D01*
X3850Y960D02*
X3857Y960D01*
X0Y959D02*
X7Y959D01*
X3850Y959D02*
X3857Y959D01*
X0Y958D02*
X7Y958D01*
X3850Y958D02*
X3857Y958D01*
X0Y957D02*
X7Y957D01*
X3850Y957D02*
X3857Y957D01*
X0Y956D02*
X7Y956D01*
X3850Y956D02*
X3857Y956D01*
X0Y955D02*
X7Y955D01*
X3850Y955D02*
X3857Y955D01*
X0Y954D02*
X7Y954D01*
X3850Y954D02*
X3857Y954D01*
X0Y953D02*
X7Y953D01*
X3850Y953D02*
X3857Y953D01*
X0Y952D02*
X7Y952D01*
X3850Y952D02*
X3857Y952D01*
X0Y951D02*
X7Y951D01*
X3850Y951D02*
X3857Y951D01*
X0Y950D02*
X7Y950D01*
X3850Y950D02*
X3857Y950D01*
X0Y949D02*
X7Y949D01*
X3850Y949D02*
X3857Y949D01*
X0Y948D02*
X7Y948D01*
X3850Y948D02*
X3857Y948D01*
X0Y947D02*
X7Y947D01*
X3850Y947D02*
X3857Y947D01*
X0Y946D02*
X7Y946D01*
X3850Y946D02*
X3857Y946D01*
X0Y945D02*
X7Y945D01*
X3850Y945D02*
X3857Y945D01*
X0Y944D02*
X7Y944D01*
X3850Y944D02*
X3857Y944D01*
X0Y943D02*
X7Y943D01*
X3850Y943D02*
X3857Y943D01*
X0Y942D02*
X7Y942D01*
X3850Y942D02*
X3857Y942D01*
X0Y941D02*
X7Y941D01*
X3850Y941D02*
X3857Y941D01*
X0Y940D02*
X7Y940D01*
X3850Y940D02*
X3857Y940D01*
X0Y939D02*
X7Y939D01*
X3850Y939D02*
X3857Y939D01*
X0Y938D02*
X7Y938D01*
X3850Y938D02*
X3857Y938D01*
X0Y937D02*
X7Y937D01*
X3850Y937D02*
X3857Y937D01*
X0Y936D02*
X7Y936D01*
X3850Y936D02*
X3857Y936D01*
X0Y935D02*
X7Y935D01*
X3850Y935D02*
X3857Y935D01*
X0Y934D02*
X7Y934D01*
X3850Y934D02*
X3857Y934D01*
X0Y933D02*
X7Y933D01*
X3850Y933D02*
X3857Y933D01*
X0Y932D02*
X7Y932D01*
X3850Y932D02*
X3857Y932D01*
X0Y931D02*
X7Y931D01*
X3850Y931D02*
X3857Y931D01*
X0Y930D02*
X7Y930D01*
X3850Y930D02*
X3857Y930D01*
X0Y929D02*
X7Y929D01*
X3850Y929D02*
X3857Y929D01*
X0Y928D02*
X7Y928D01*
X3850Y928D02*
X3857Y928D01*
X0Y927D02*
X7Y927D01*
X3850Y927D02*
X3857Y927D01*
X0Y926D02*
X7Y926D01*
X3850Y926D02*
X3857Y926D01*
X0Y925D02*
X7Y925D01*
X3850Y925D02*
X3857Y925D01*
X0Y924D02*
X7Y924D01*
X3850Y924D02*
X3857Y924D01*
X0Y923D02*
X7Y923D01*
X3850Y923D02*
X3857Y923D01*
X0Y922D02*
X7Y922D01*
X3850Y922D02*
X3857Y922D01*
X0Y921D02*
X7Y921D01*
X3850Y921D02*
X3857Y921D01*
X0Y920D02*
X7Y920D01*
X3850Y920D02*
X3857Y920D01*
X0Y919D02*
X7Y919D01*
X3850Y919D02*
X3857Y919D01*
X0Y918D02*
X7Y918D01*
X3850Y918D02*
X3857Y918D01*
X0Y917D02*
X7Y917D01*
X3850Y917D02*
X3857Y917D01*
X0Y916D02*
X7Y916D01*
X3850Y916D02*
X3857Y916D01*
X0Y915D02*
X7Y915D01*
X3850Y915D02*
X3857Y915D01*
X0Y914D02*
X7Y914D01*
X3850Y914D02*
X3857Y914D01*
X0Y913D02*
X7Y913D01*
X3850Y913D02*
X3857Y913D01*
X0Y912D02*
X7Y912D01*
X3850Y912D02*
X3857Y912D01*
X0Y911D02*
X7Y911D01*
X3850Y911D02*
X3857Y911D01*
X0Y910D02*
X7Y910D01*
X3850Y910D02*
X3857Y910D01*
X0Y909D02*
X7Y909D01*
X3850Y909D02*
X3857Y909D01*
X0Y908D02*
X7Y908D01*
X3850Y908D02*
X3857Y908D01*
X0Y907D02*
X7Y907D01*
X3850Y907D02*
X3857Y907D01*
X0Y906D02*
X7Y906D01*
X3850Y906D02*
X3857Y906D01*
X0Y905D02*
X7Y905D01*
X3850Y905D02*
X3857Y905D01*
X0Y904D02*
X7Y904D01*
X3850Y904D02*
X3857Y904D01*
X0Y903D02*
X7Y903D01*
X3850Y903D02*
X3857Y903D01*
X0Y902D02*
X7Y902D01*
X3850Y902D02*
X3857Y902D01*
X0Y901D02*
X7Y901D01*
X3850Y901D02*
X3857Y901D01*
X0Y900D02*
X7Y900D01*
X3850Y900D02*
X3857Y900D01*
X0Y899D02*
X7Y899D01*
X3850Y899D02*
X3857Y899D01*
X0Y898D02*
X7Y898D01*
X3850Y898D02*
X3857Y898D01*
X0Y897D02*
X7Y897D01*
X3850Y897D02*
X3857Y897D01*
X0Y896D02*
X7Y896D01*
X3850Y896D02*
X3857Y896D01*
X0Y895D02*
X7Y895D01*
X3850Y895D02*
X3857Y895D01*
X0Y894D02*
X7Y894D01*
X3850Y894D02*
X3857Y894D01*
X0Y893D02*
X7Y893D01*
X3850Y893D02*
X3857Y893D01*
X0Y892D02*
X7Y892D01*
X3850Y892D02*
X3857Y892D01*
X0Y891D02*
X7Y891D01*
X3850Y891D02*
X3857Y891D01*
X0Y890D02*
X7Y890D01*
X3850Y890D02*
X3857Y890D01*
X0Y889D02*
X7Y889D01*
X3850Y889D02*
X3857Y889D01*
X0Y888D02*
X7Y888D01*
X3850Y888D02*
X3857Y888D01*
X0Y887D02*
X7Y887D01*
X3850Y887D02*
X3857Y887D01*
X0Y886D02*
X7Y886D01*
X3850Y886D02*
X3857Y886D01*
X0Y885D02*
X7Y885D01*
X3850Y885D02*
X3857Y885D01*
X0Y884D02*
X7Y884D01*
X3850Y884D02*
X3857Y884D01*
X0Y883D02*
X7Y883D01*
X3850Y883D02*
X3857Y883D01*
X0Y882D02*
X7Y882D01*
X3850Y882D02*
X3857Y882D01*
X0Y881D02*
X7Y881D01*
X3850Y881D02*
X3857Y881D01*
X0Y880D02*
X7Y880D01*
X3850Y880D02*
X3857Y880D01*
X0Y879D02*
X7Y879D01*
X3850Y879D02*
X3857Y879D01*
X0Y878D02*
X7Y878D01*
X3850Y878D02*
X3857Y878D01*
X0Y877D02*
X7Y877D01*
X3850Y877D02*
X3857Y877D01*
X0Y876D02*
X7Y876D01*
X3850Y876D02*
X3857Y876D01*
X0Y875D02*
X7Y875D01*
X3850Y875D02*
X3857Y875D01*
X0Y874D02*
X7Y874D01*
X3850Y874D02*
X3857Y874D01*
X0Y873D02*
X7Y873D01*
X3850Y873D02*
X3857Y873D01*
X0Y872D02*
X7Y872D01*
X3850Y872D02*
X3857Y872D01*
X0Y871D02*
X7Y871D01*
X3850Y871D02*
X3857Y871D01*
X0Y870D02*
X7Y870D01*
X3850Y870D02*
X3857Y870D01*
X0Y869D02*
X7Y869D01*
X3850Y869D02*
X3857Y869D01*
X0Y868D02*
X7Y868D01*
X3850Y868D02*
X3857Y868D01*
X0Y867D02*
X7Y867D01*
X3850Y867D02*
X3857Y867D01*
X0Y866D02*
X7Y866D01*
X3850Y866D02*
X3857Y866D01*
X0Y865D02*
X7Y865D01*
X3850Y865D02*
X3857Y865D01*
X0Y864D02*
X7Y864D01*
X3850Y864D02*
X3857Y864D01*
X0Y863D02*
X7Y863D01*
X3850Y863D02*
X3857Y863D01*
X0Y862D02*
X7Y862D01*
X3850Y862D02*
X3857Y862D01*
X0Y861D02*
X7Y861D01*
X3850Y861D02*
X3857Y861D01*
X0Y860D02*
X7Y860D01*
X3850Y860D02*
X3857Y860D01*
X0Y859D02*
X7Y859D01*
X3850Y859D02*
X3857Y859D01*
X0Y858D02*
X7Y858D01*
X3850Y858D02*
X3857Y858D01*
X0Y857D02*
X7Y857D01*
X3850Y857D02*
X3857Y857D01*
X0Y856D02*
X7Y856D01*
X3850Y856D02*
X3857Y856D01*
X0Y855D02*
X7Y855D01*
X3850Y855D02*
X3857Y855D01*
X0Y854D02*
X7Y854D01*
X3850Y854D02*
X3857Y854D01*
X0Y853D02*
X7Y853D01*
X3850Y853D02*
X3857Y853D01*
X0Y852D02*
X7Y852D01*
X3850Y852D02*
X3857Y852D01*
X0Y851D02*
X7Y851D01*
X3850Y851D02*
X3857Y851D01*
X0Y850D02*
X7Y850D01*
X3850Y850D02*
X3857Y850D01*
X0Y849D02*
X7Y849D01*
X3850Y849D02*
X3857Y849D01*
X0Y848D02*
X7Y848D01*
X3850Y848D02*
X3857Y848D01*
X0Y847D02*
X7Y847D01*
X3850Y847D02*
X3857Y847D01*
X0Y846D02*
X7Y846D01*
X3850Y846D02*
X3857Y846D01*
X0Y845D02*
X7Y845D01*
X3850Y845D02*
X3857Y845D01*
X0Y844D02*
X7Y844D01*
X3850Y844D02*
X3857Y844D01*
X0Y843D02*
X7Y843D01*
X3850Y843D02*
X3857Y843D01*
X0Y842D02*
X7Y842D01*
X3850Y842D02*
X3857Y842D01*
X0Y841D02*
X7Y841D01*
X3850Y841D02*
X3857Y841D01*
X0Y840D02*
X7Y840D01*
X3850Y840D02*
X3857Y840D01*
X0Y839D02*
X7Y839D01*
X3850Y839D02*
X3857Y839D01*
X0Y838D02*
X7Y838D01*
X3850Y838D02*
X3857Y838D01*
X0Y837D02*
X7Y837D01*
X3850Y837D02*
X3857Y837D01*
X0Y836D02*
X7Y836D01*
X3850Y836D02*
X3857Y836D01*
X0Y835D02*
X7Y835D01*
X3850Y835D02*
X3857Y835D01*
X0Y834D02*
X7Y834D01*
X3850Y834D02*
X3857Y834D01*
X0Y833D02*
X7Y833D01*
X3850Y833D02*
X3857Y833D01*
X0Y832D02*
X7Y832D01*
X3850Y832D02*
X3857Y832D01*
X0Y831D02*
X7Y831D01*
X3850Y831D02*
X3857Y831D01*
X0Y830D02*
X7Y830D01*
X3850Y830D02*
X3857Y830D01*
X0Y829D02*
X7Y829D01*
X3850Y829D02*
X3857Y829D01*
X0Y828D02*
X7Y828D01*
X3850Y828D02*
X3857Y828D01*
X0Y827D02*
X7Y827D01*
X3850Y827D02*
X3857Y827D01*
X0Y826D02*
X7Y826D01*
X3850Y826D02*
X3857Y826D01*
X0Y825D02*
X7Y825D01*
X3850Y825D02*
X3857Y825D01*
X0Y824D02*
X7Y824D01*
X3850Y824D02*
X3857Y824D01*
X0Y823D02*
X7Y823D01*
X3850Y823D02*
X3857Y823D01*
X0Y822D02*
X7Y822D01*
X3850Y822D02*
X3857Y822D01*
X0Y821D02*
X7Y821D01*
X3850Y821D02*
X3857Y821D01*
X0Y820D02*
X7Y820D01*
X3850Y820D02*
X3857Y820D01*
X0Y819D02*
X7Y819D01*
X3850Y819D02*
X3857Y819D01*
X0Y818D02*
X7Y818D01*
X3850Y818D02*
X3857Y818D01*
X0Y817D02*
X7Y817D01*
X3850Y817D02*
X3857Y817D01*
X0Y816D02*
X7Y816D01*
X3850Y816D02*
X3857Y816D01*
X0Y815D02*
X7Y815D01*
X3850Y815D02*
X3857Y815D01*
X0Y814D02*
X7Y814D01*
X3850Y814D02*
X3857Y814D01*
X0Y813D02*
X7Y813D01*
X3850Y813D02*
X3857Y813D01*
X0Y812D02*
X7Y812D01*
X3850Y812D02*
X3857Y812D01*
X0Y811D02*
X7Y811D01*
X3850Y811D02*
X3857Y811D01*
X0Y810D02*
X7Y810D01*
X3850Y810D02*
X3857Y810D01*
X0Y809D02*
X7Y809D01*
X3850Y809D02*
X3857Y809D01*
X0Y808D02*
X7Y808D01*
X3850Y808D02*
X3857Y808D01*
X0Y807D02*
X7Y807D01*
X3850Y807D02*
X3857Y807D01*
X0Y806D02*
X7Y806D01*
X3850Y806D02*
X3857Y806D01*
X0Y805D02*
X7Y805D01*
X3850Y805D02*
X3857Y805D01*
X0Y804D02*
X7Y804D01*
X3850Y804D02*
X3857Y804D01*
X0Y803D02*
X7Y803D01*
X3850Y803D02*
X3857Y803D01*
X0Y802D02*
X7Y802D01*
X3850Y802D02*
X3857Y802D01*
X0Y801D02*
X7Y801D01*
X3850Y801D02*
X3857Y801D01*
X0Y800D02*
X7Y800D01*
X3850Y800D02*
X3857Y800D01*
X0Y799D02*
X7Y799D01*
X3850Y799D02*
X3857Y799D01*
X0Y798D02*
X7Y798D01*
X3850Y798D02*
X3857Y798D01*
X0Y797D02*
X7Y797D01*
X3850Y797D02*
X3857Y797D01*
X0Y796D02*
X7Y796D01*
X3850Y796D02*
X3857Y796D01*
X0Y795D02*
X7Y795D01*
X3850Y795D02*
X3857Y795D01*
X0Y794D02*
X7Y794D01*
X3850Y794D02*
X3857Y794D01*
X0Y793D02*
X7Y793D01*
X3850Y793D02*
X3857Y793D01*
X0Y792D02*
X7Y792D01*
X3850Y792D02*
X3857Y792D01*
X0Y791D02*
X7Y791D01*
X3850Y791D02*
X3857Y791D01*
X0Y790D02*
X7Y790D01*
X3850Y790D02*
X3857Y790D01*
X0Y789D02*
X7Y789D01*
X3850Y789D02*
X3857Y789D01*
X0Y788D02*
X7Y788D01*
X3850Y788D02*
X3857Y788D01*
X0Y787D02*
X7Y787D01*
X3850Y787D02*
X3857Y787D01*
X0Y786D02*
X7Y786D01*
X3850Y786D02*
X3857Y786D01*
X0Y785D02*
X7Y785D01*
X3850Y785D02*
X3857Y785D01*
X0Y784D02*
X7Y784D01*
X3850Y784D02*
X3857Y784D01*
X0Y783D02*
X7Y783D01*
X3850Y783D02*
X3857Y783D01*
X0Y782D02*
X7Y782D01*
X3850Y782D02*
X3857Y782D01*
X0Y781D02*
X7Y781D01*
X3850Y781D02*
X3857Y781D01*
X0Y780D02*
X7Y780D01*
X3850Y780D02*
X3857Y780D01*
X0Y779D02*
X7Y779D01*
X3850Y779D02*
X3857Y779D01*
X0Y778D02*
X7Y778D01*
X3850Y778D02*
X3857Y778D01*
X0Y777D02*
X7Y777D01*
X3850Y777D02*
X3857Y777D01*
X0Y776D02*
X7Y776D01*
X3850Y776D02*
X3857Y776D01*
X0Y775D02*
X7Y775D01*
X3850Y775D02*
X3857Y775D01*
X0Y774D02*
X7Y774D01*
X3850Y774D02*
X3857Y774D01*
X0Y773D02*
X7Y773D01*
X3850Y773D02*
X3857Y773D01*
X0Y772D02*
X7Y772D01*
X3850Y772D02*
X3857Y772D01*
X0Y771D02*
X7Y771D01*
X3850Y771D02*
X3857Y771D01*
X0Y770D02*
X7Y770D01*
X3850Y770D02*
X3857Y770D01*
X0Y769D02*
X7Y769D01*
X3850Y769D02*
X3857Y769D01*
X0Y768D02*
X7Y768D01*
X3850Y768D02*
X3857Y768D01*
X0Y767D02*
X7Y767D01*
X3850Y767D02*
X3857Y767D01*
X0Y766D02*
X7Y766D01*
X3850Y766D02*
X3857Y766D01*
X0Y765D02*
X7Y765D01*
X3850Y765D02*
X3857Y765D01*
X0Y764D02*
X7Y764D01*
X3850Y764D02*
X3857Y764D01*
X0Y763D02*
X7Y763D01*
X3850Y763D02*
X3857Y763D01*
X0Y762D02*
X7Y762D01*
X3850Y762D02*
X3857Y762D01*
X0Y761D02*
X7Y761D01*
X3850Y761D02*
X3857Y761D01*
X0Y760D02*
X7Y760D01*
X3850Y760D02*
X3857Y760D01*
X0Y759D02*
X7Y759D01*
X3850Y759D02*
X3857Y759D01*
X0Y758D02*
X7Y758D01*
X3850Y758D02*
X3857Y758D01*
X0Y757D02*
X7Y757D01*
X3850Y757D02*
X3857Y757D01*
X0Y756D02*
X7Y756D01*
X3850Y756D02*
X3857Y756D01*
X0Y755D02*
X7Y755D01*
X3850Y755D02*
X3857Y755D01*
X0Y754D02*
X7Y754D01*
X3850Y754D02*
X3857Y754D01*
X0Y753D02*
X7Y753D01*
X3850Y753D02*
X3857Y753D01*
X0Y752D02*
X7Y752D01*
X3850Y752D02*
X3857Y752D01*
X0Y751D02*
X7Y751D01*
X3850Y751D02*
X3857Y751D01*
X0Y750D02*
X7Y750D01*
X3850Y750D02*
X3857Y750D01*
X0Y749D02*
X7Y749D01*
X3850Y749D02*
X3857Y749D01*
X0Y748D02*
X7Y748D01*
X3850Y748D02*
X3857Y748D01*
X0Y747D02*
X7Y747D01*
X3850Y747D02*
X3857Y747D01*
X0Y746D02*
X7Y746D01*
X3850Y746D02*
X3857Y746D01*
X0Y745D02*
X7Y745D01*
X3850Y745D02*
X3857Y745D01*
X0Y744D02*
X7Y744D01*
X3850Y744D02*
X3857Y744D01*
X0Y743D02*
X7Y743D01*
X3850Y743D02*
X3857Y743D01*
X0Y742D02*
X7Y742D01*
X3850Y742D02*
X3857Y742D01*
X0Y741D02*
X7Y741D01*
X3850Y741D02*
X3857Y741D01*
X0Y740D02*
X7Y740D01*
X3850Y740D02*
X3857Y740D01*
X0Y739D02*
X7Y739D01*
X3850Y739D02*
X3857Y739D01*
X0Y738D02*
X7Y738D01*
X3850Y738D02*
X3857Y738D01*
X0Y737D02*
X7Y737D01*
X3850Y737D02*
X3857Y737D01*
X0Y736D02*
X7Y736D01*
X3850Y736D02*
X3857Y736D01*
X0Y735D02*
X7Y735D01*
X3850Y735D02*
X3857Y735D01*
X0Y734D02*
X7Y734D01*
X3850Y734D02*
X3857Y734D01*
X0Y733D02*
X7Y733D01*
X3850Y733D02*
X3857Y733D01*
X0Y732D02*
X7Y732D01*
X3850Y732D02*
X3857Y732D01*
X0Y731D02*
X7Y731D01*
X3850Y731D02*
X3857Y731D01*
X0Y730D02*
X7Y730D01*
X3850Y730D02*
X3857Y730D01*
X0Y729D02*
X7Y729D01*
X3850Y729D02*
X3857Y729D01*
X0Y728D02*
X7Y728D01*
X3850Y728D02*
X3857Y728D01*
X0Y727D02*
X7Y727D01*
X3850Y727D02*
X3857Y727D01*
X0Y726D02*
X7Y726D01*
X3850Y726D02*
X3857Y726D01*
X0Y725D02*
X7Y725D01*
X3850Y725D02*
X3857Y725D01*
X0Y724D02*
X7Y724D01*
X3850Y724D02*
X3857Y724D01*
X0Y723D02*
X7Y723D01*
X3850Y723D02*
X3857Y723D01*
X0Y722D02*
X7Y722D01*
X3850Y722D02*
X3857Y722D01*
X0Y721D02*
X7Y721D01*
X3850Y721D02*
X3857Y721D01*
X0Y720D02*
X7Y720D01*
X3850Y720D02*
X3857Y720D01*
X0Y719D02*
X7Y719D01*
X3850Y719D02*
X3857Y719D01*
X0Y718D02*
X7Y718D01*
X3850Y718D02*
X3857Y718D01*
X0Y717D02*
X7Y717D01*
X3850Y717D02*
X3857Y717D01*
X0Y716D02*
X7Y716D01*
X3850Y716D02*
X3857Y716D01*
X0Y715D02*
X7Y715D01*
X3850Y715D02*
X3857Y715D01*
X0Y714D02*
X7Y714D01*
X3850Y714D02*
X3857Y714D01*
X0Y713D02*
X7Y713D01*
X3850Y713D02*
X3857Y713D01*
X0Y712D02*
X7Y712D01*
X3850Y712D02*
X3857Y712D01*
X0Y711D02*
X7Y711D01*
X3850Y711D02*
X3857Y711D01*
X0Y710D02*
X7Y710D01*
X3850Y710D02*
X3857Y710D01*
X0Y709D02*
X7Y709D01*
X3850Y709D02*
X3857Y709D01*
X0Y708D02*
X7Y708D01*
X3850Y708D02*
X3857Y708D01*
X0Y707D02*
X7Y707D01*
X3850Y707D02*
X3857Y707D01*
X0Y706D02*
X7Y706D01*
X3850Y706D02*
X3857Y706D01*
X0Y705D02*
X7Y705D01*
X3850Y705D02*
X3857Y705D01*
X0Y704D02*
X7Y704D01*
X3850Y704D02*
X3857Y704D01*
X0Y703D02*
X7Y703D01*
X3850Y703D02*
X3857Y703D01*
X0Y702D02*
X7Y702D01*
X3850Y702D02*
X3857Y702D01*
X0Y701D02*
X7Y701D01*
X3850Y701D02*
X3857Y701D01*
X0Y700D02*
X7Y700D01*
X3850Y700D02*
X3857Y700D01*
X0Y699D02*
X7Y699D01*
X3850Y699D02*
X3857Y699D01*
X0Y698D02*
X7Y698D01*
X3850Y698D02*
X3857Y698D01*
X0Y697D02*
X7Y697D01*
X3850Y697D02*
X3857Y697D01*
X0Y696D02*
X7Y696D01*
X3850Y696D02*
X3857Y696D01*
X0Y695D02*
X7Y695D01*
X3850Y695D02*
X3857Y695D01*
X0Y694D02*
X7Y694D01*
X3850Y694D02*
X3857Y694D01*
X0Y693D02*
X7Y693D01*
X3850Y693D02*
X3857Y693D01*
X0Y692D02*
X7Y692D01*
X3850Y692D02*
X3857Y692D01*
X0Y691D02*
X7Y691D01*
X3850Y691D02*
X3857Y691D01*
X0Y690D02*
X7Y690D01*
X3850Y690D02*
X3857Y690D01*
X0Y689D02*
X7Y689D01*
X3850Y689D02*
X3857Y689D01*
X0Y688D02*
X7Y688D01*
X3850Y688D02*
X3857Y688D01*
X0Y687D02*
X7Y687D01*
X3850Y687D02*
X3857Y687D01*
X0Y686D02*
X7Y686D01*
X3850Y686D02*
X3857Y686D01*
X0Y685D02*
X7Y685D01*
X3850Y685D02*
X3857Y685D01*
X0Y684D02*
X7Y684D01*
X3850Y684D02*
X3857Y684D01*
X0Y683D02*
X7Y683D01*
X3850Y683D02*
X3857Y683D01*
X0Y682D02*
X7Y682D01*
X3850Y682D02*
X3857Y682D01*
X0Y681D02*
X7Y681D01*
X3850Y681D02*
X3857Y681D01*
X0Y680D02*
X7Y680D01*
X3850Y680D02*
X3857Y680D01*
X0Y679D02*
X7Y679D01*
X3850Y679D02*
X3857Y679D01*
X0Y678D02*
X7Y678D01*
X3850Y678D02*
X3857Y678D01*
X0Y677D02*
X7Y677D01*
X3850Y677D02*
X3857Y677D01*
X0Y676D02*
X7Y676D01*
X3850Y676D02*
X3857Y676D01*
X0Y675D02*
X7Y675D01*
X3850Y675D02*
X3857Y675D01*
X0Y674D02*
X7Y674D01*
X3850Y674D02*
X3857Y674D01*
X0Y673D02*
X7Y673D01*
X3850Y673D02*
X3857Y673D01*
X0Y672D02*
X7Y672D01*
X3850Y672D02*
X3857Y672D01*
X0Y671D02*
X7Y671D01*
X3850Y671D02*
X3857Y671D01*
X0Y670D02*
X7Y670D01*
X3850Y670D02*
X3857Y670D01*
X0Y669D02*
X7Y669D01*
X3850Y669D02*
X3857Y669D01*
X0Y668D02*
X7Y668D01*
X3850Y668D02*
X3857Y668D01*
X0Y667D02*
X7Y667D01*
X3850Y667D02*
X3857Y667D01*
X0Y666D02*
X7Y666D01*
X3850Y666D02*
X3857Y666D01*
X0Y665D02*
X7Y665D01*
X3850Y665D02*
X3857Y665D01*
X0Y664D02*
X7Y664D01*
X3850Y664D02*
X3857Y664D01*
X0Y663D02*
X7Y663D01*
X3850Y663D02*
X3857Y663D01*
X0Y662D02*
X7Y662D01*
X3850Y662D02*
X3857Y662D01*
X0Y661D02*
X7Y661D01*
X3850Y661D02*
X3857Y661D01*
X0Y660D02*
X7Y660D01*
X3850Y660D02*
X3857Y660D01*
X0Y659D02*
X7Y659D01*
X3850Y659D02*
X3857Y659D01*
X0Y658D02*
X7Y658D01*
X3850Y658D02*
X3857Y658D01*
X0Y657D02*
X7Y657D01*
X3850Y657D02*
X3857Y657D01*
X0Y656D02*
X7Y656D01*
X3850Y656D02*
X3857Y656D01*
X0Y655D02*
X7Y655D01*
X3850Y655D02*
X3857Y655D01*
X0Y654D02*
X7Y654D01*
X3850Y654D02*
X3857Y654D01*
X0Y653D02*
X7Y653D01*
X3850Y653D02*
X3857Y653D01*
X0Y652D02*
X7Y652D01*
X3850Y652D02*
X3857Y652D01*
X0Y651D02*
X7Y651D01*
X3850Y651D02*
X3857Y651D01*
X0Y650D02*
X7Y650D01*
X3850Y650D02*
X3857Y650D01*
X0Y649D02*
X7Y649D01*
X3850Y649D02*
X3857Y649D01*
X0Y648D02*
X7Y648D01*
X3850Y648D02*
X3857Y648D01*
X0Y647D02*
X7Y647D01*
X3850Y647D02*
X3857Y647D01*
X0Y646D02*
X7Y646D01*
X3850Y646D02*
X3857Y646D01*
X0Y645D02*
X7Y645D01*
X3850Y645D02*
X3857Y645D01*
X0Y644D02*
X7Y644D01*
X3850Y644D02*
X3857Y644D01*
X0Y643D02*
X7Y643D01*
X3850Y643D02*
X3857Y643D01*
X0Y642D02*
X7Y642D01*
X3850Y642D02*
X3857Y642D01*
X0Y641D02*
X7Y641D01*
X3850Y641D02*
X3857Y641D01*
X0Y640D02*
X7Y640D01*
X3850Y640D02*
X3857Y640D01*
X0Y639D02*
X7Y639D01*
X3850Y639D02*
X3857Y639D01*
X0Y638D02*
X7Y638D01*
X3850Y638D02*
X3857Y638D01*
X0Y637D02*
X7Y637D01*
X3850Y637D02*
X3857Y637D01*
X0Y636D02*
X7Y636D01*
X3850Y636D02*
X3857Y636D01*
X0Y635D02*
X7Y635D01*
X3850Y635D02*
X3857Y635D01*
X0Y634D02*
X7Y634D01*
X3850Y634D02*
X3857Y634D01*
X0Y633D02*
X7Y633D01*
X3850Y633D02*
X3857Y633D01*
X0Y632D02*
X7Y632D01*
X3850Y632D02*
X3857Y632D01*
X0Y631D02*
X7Y631D01*
X3850Y631D02*
X3857Y631D01*
X0Y630D02*
X7Y630D01*
X3850Y630D02*
X3857Y630D01*
X0Y629D02*
X7Y629D01*
X3850Y629D02*
X3857Y629D01*
X0Y628D02*
X7Y628D01*
X3850Y628D02*
X3857Y628D01*
X0Y627D02*
X7Y627D01*
X3850Y627D02*
X3857Y627D01*
X0Y626D02*
X7Y626D01*
X3850Y626D02*
X3857Y626D01*
X0Y625D02*
X7Y625D01*
X3850Y625D02*
X3857Y625D01*
X0Y624D02*
X7Y624D01*
X3850Y624D02*
X3857Y624D01*
X0Y623D02*
X7Y623D01*
X3850Y623D02*
X3857Y623D01*
X0Y622D02*
X7Y622D01*
X3850Y622D02*
X3857Y622D01*
X0Y621D02*
X7Y621D01*
X3850Y621D02*
X3857Y621D01*
X0Y620D02*
X7Y620D01*
X3850Y620D02*
X3857Y620D01*
X0Y619D02*
X7Y619D01*
X3850Y619D02*
X3857Y619D01*
X0Y618D02*
X7Y618D01*
X3850Y618D02*
X3857Y618D01*
X0Y617D02*
X7Y617D01*
X3850Y617D02*
X3857Y617D01*
X0Y616D02*
X7Y616D01*
X3850Y616D02*
X3857Y616D01*
X0Y615D02*
X7Y615D01*
X3850Y615D02*
X3857Y615D01*
X0Y614D02*
X7Y614D01*
X3850Y614D02*
X3857Y614D01*
X0Y613D02*
X7Y613D01*
X3850Y613D02*
X3857Y613D01*
X0Y612D02*
X7Y612D01*
X3850Y612D02*
X3857Y612D01*
X0Y611D02*
X7Y611D01*
X3850Y611D02*
X3857Y611D01*
X0Y610D02*
X7Y610D01*
X3850Y610D02*
X3857Y610D01*
X0Y609D02*
X7Y609D01*
X3850Y609D02*
X3857Y609D01*
X0Y608D02*
X7Y608D01*
X3850Y608D02*
X3857Y608D01*
X0Y607D02*
X7Y607D01*
X3850Y607D02*
X3857Y607D01*
X0Y606D02*
X7Y606D01*
X3850Y606D02*
X3857Y606D01*
X0Y605D02*
X7Y605D01*
X3850Y605D02*
X3857Y605D01*
X0Y604D02*
X7Y604D01*
X3850Y604D02*
X3857Y604D01*
X0Y603D02*
X7Y603D01*
X3850Y603D02*
X3857Y603D01*
X0Y602D02*
X7Y602D01*
X3850Y602D02*
X3857Y602D01*
X0Y601D02*
X7Y601D01*
X3850Y601D02*
X3857Y601D01*
X0Y600D02*
X7Y600D01*
X3850Y600D02*
X3857Y600D01*
X0Y599D02*
X7Y599D01*
X3850Y599D02*
X3857Y599D01*
X0Y598D02*
X7Y598D01*
X3850Y598D02*
X3857Y598D01*
X0Y597D02*
X7Y597D01*
X3850Y597D02*
X3857Y597D01*
X0Y596D02*
X7Y596D01*
X3850Y596D02*
X3857Y596D01*
X0Y595D02*
X7Y595D01*
X3850Y595D02*
X3857Y595D01*
X0Y594D02*
X7Y594D01*
X3850Y594D02*
X3857Y594D01*
X0Y593D02*
X7Y593D01*
X3850Y593D02*
X3857Y593D01*
X0Y592D02*
X7Y592D01*
X3850Y592D02*
X3857Y592D01*
X0Y591D02*
X7Y591D01*
X3850Y591D02*
X3857Y591D01*
X0Y590D02*
X7Y590D01*
X3850Y590D02*
X3857Y590D01*
X0Y589D02*
X7Y589D01*
X3850Y589D02*
X3857Y589D01*
X0Y588D02*
X7Y588D01*
X3850Y588D02*
X3857Y588D01*
X0Y587D02*
X7Y587D01*
X3850Y587D02*
X3857Y587D01*
X0Y586D02*
X7Y586D01*
X3850Y586D02*
X3857Y586D01*
X0Y585D02*
X7Y585D01*
X3850Y585D02*
X3857Y585D01*
X0Y584D02*
X7Y584D01*
X3850Y584D02*
X3857Y584D01*
X0Y583D02*
X7Y583D01*
X3850Y583D02*
X3857Y583D01*
X0Y582D02*
X7Y582D01*
X3850Y582D02*
X3857Y582D01*
X0Y581D02*
X7Y581D01*
X3850Y581D02*
X3857Y581D01*
X0Y580D02*
X7Y580D01*
X3850Y580D02*
X3857Y580D01*
X0Y579D02*
X7Y579D01*
X3850Y579D02*
X3857Y579D01*
X0Y578D02*
X7Y578D01*
X3850Y578D02*
X3857Y578D01*
X0Y577D02*
X7Y577D01*
X3850Y577D02*
X3857Y577D01*
X0Y576D02*
X7Y576D01*
X3850Y576D02*
X3857Y576D01*
X0Y575D02*
X7Y575D01*
X3850Y575D02*
X3857Y575D01*
X0Y574D02*
X7Y574D01*
X3850Y574D02*
X3857Y574D01*
X0Y573D02*
X7Y573D01*
X3850Y573D02*
X3857Y573D01*
X0Y572D02*
X7Y572D01*
X3850Y572D02*
X3857Y572D01*
X0Y571D02*
X7Y571D01*
X3850Y571D02*
X3857Y571D01*
X0Y570D02*
X7Y570D01*
X3850Y570D02*
X3857Y570D01*
X0Y569D02*
X7Y569D01*
X3850Y569D02*
X3857Y569D01*
X0Y568D02*
X7Y568D01*
X3850Y568D02*
X3857Y568D01*
X0Y567D02*
X7Y567D01*
X3850Y567D02*
X3857Y567D01*
X0Y566D02*
X7Y566D01*
X3850Y566D02*
X3857Y566D01*
X0Y565D02*
X7Y565D01*
X3850Y565D02*
X3857Y565D01*
X0Y564D02*
X7Y564D01*
X3850Y564D02*
X3857Y564D01*
X0Y563D02*
X7Y563D01*
X3850Y563D02*
X3857Y563D01*
X0Y562D02*
X7Y562D01*
X3850Y562D02*
X3857Y562D01*
X0Y561D02*
X7Y561D01*
X3850Y561D02*
X3857Y561D01*
X0Y560D02*
X7Y560D01*
X3850Y560D02*
X3857Y560D01*
X0Y559D02*
X7Y559D01*
X3850Y559D02*
X3857Y559D01*
X0Y558D02*
X7Y558D01*
X3850Y558D02*
X3857Y558D01*
X0Y557D02*
X7Y557D01*
X3850Y557D02*
X3857Y557D01*
X0Y556D02*
X7Y556D01*
X3850Y556D02*
X3857Y556D01*
X0Y555D02*
X7Y555D01*
X3850Y555D02*
X3857Y555D01*
X0Y554D02*
X7Y554D01*
X3850Y554D02*
X3857Y554D01*
X0Y553D02*
X7Y553D01*
X3850Y553D02*
X3857Y553D01*
X0Y552D02*
X7Y552D01*
X3850Y552D02*
X3857Y552D01*
X0Y551D02*
X7Y551D01*
X3850Y551D02*
X3857Y551D01*
X0Y550D02*
X7Y550D01*
X3850Y550D02*
X3857Y550D01*
X0Y549D02*
X7Y549D01*
X3850Y549D02*
X3857Y549D01*
X0Y548D02*
X7Y548D01*
X3850Y548D02*
X3857Y548D01*
X0Y547D02*
X7Y547D01*
X3850Y547D02*
X3857Y547D01*
X0Y546D02*
X7Y546D01*
X3850Y546D02*
X3857Y546D01*
X0Y545D02*
X7Y545D01*
X3850Y545D02*
X3857Y545D01*
X0Y544D02*
X7Y544D01*
X3850Y544D02*
X3857Y544D01*
X0Y543D02*
X7Y543D01*
X3850Y543D02*
X3857Y543D01*
X0Y542D02*
X7Y542D01*
X3850Y542D02*
X3857Y542D01*
X0Y541D02*
X7Y541D01*
X3850Y541D02*
X3857Y541D01*
X0Y540D02*
X7Y540D01*
X3850Y540D02*
X3857Y540D01*
X0Y539D02*
X7Y539D01*
X3850Y539D02*
X3857Y539D01*
X0Y538D02*
X7Y538D01*
X3850Y538D02*
X3857Y538D01*
X0Y537D02*
X7Y537D01*
X3850Y537D02*
X3857Y537D01*
X0Y536D02*
X7Y536D01*
X3850Y536D02*
X3857Y536D01*
X0Y535D02*
X7Y535D01*
X3850Y535D02*
X3857Y535D01*
X0Y534D02*
X7Y534D01*
X3850Y534D02*
X3857Y534D01*
X0Y533D02*
X7Y533D01*
X3850Y533D02*
X3857Y533D01*
X0Y532D02*
X7Y532D01*
X3850Y532D02*
X3857Y532D01*
X0Y531D02*
X7Y531D01*
X3850Y531D02*
X3857Y531D01*
X0Y530D02*
X7Y530D01*
X3850Y530D02*
X3857Y530D01*
X0Y529D02*
X7Y529D01*
X3850Y529D02*
X3857Y529D01*
X0Y528D02*
X7Y528D01*
X3850Y528D02*
X3857Y528D01*
X0Y527D02*
X7Y527D01*
X3850Y527D02*
X3857Y527D01*
X0Y526D02*
X7Y526D01*
X3850Y526D02*
X3857Y526D01*
X0Y525D02*
X7Y525D01*
X3850Y525D02*
X3857Y525D01*
X0Y524D02*
X7Y524D01*
X3850Y524D02*
X3857Y524D01*
X0Y523D02*
X7Y523D01*
X3850Y523D02*
X3857Y523D01*
X0Y522D02*
X7Y522D01*
X3850Y522D02*
X3857Y522D01*
X0Y521D02*
X7Y521D01*
X3850Y521D02*
X3857Y521D01*
X0Y520D02*
X7Y520D01*
X3850Y520D02*
X3857Y520D01*
X0Y519D02*
X7Y519D01*
X3850Y519D02*
X3857Y519D01*
X0Y518D02*
X7Y518D01*
X3850Y518D02*
X3857Y518D01*
X0Y517D02*
X7Y517D01*
X3850Y517D02*
X3857Y517D01*
X0Y516D02*
X7Y516D01*
X3850Y516D02*
X3857Y516D01*
X0Y515D02*
X7Y515D01*
X3850Y515D02*
X3857Y515D01*
X0Y514D02*
X7Y514D01*
X3850Y514D02*
X3857Y514D01*
X0Y513D02*
X7Y513D01*
X3850Y513D02*
X3857Y513D01*
X0Y512D02*
X7Y512D01*
X3850Y512D02*
X3857Y512D01*
X0Y511D02*
X7Y511D01*
X3850Y511D02*
X3857Y511D01*
X0Y510D02*
X7Y510D01*
X3850Y510D02*
X3857Y510D01*
X0Y509D02*
X7Y509D01*
X3850Y509D02*
X3857Y509D01*
X0Y508D02*
X7Y508D01*
X3850Y508D02*
X3857Y508D01*
X0Y507D02*
X7Y507D01*
X3850Y507D02*
X3857Y507D01*
X0Y506D02*
X7Y506D01*
X3850Y506D02*
X3857Y506D01*
X0Y505D02*
X7Y505D01*
X3850Y505D02*
X3857Y505D01*
X0Y504D02*
X7Y504D01*
X3850Y504D02*
X3857Y504D01*
X0Y503D02*
X7Y503D01*
X3850Y503D02*
X3857Y503D01*
X0Y502D02*
X7Y502D01*
X3850Y502D02*
X3857Y502D01*
X0Y501D02*
X7Y501D01*
X3850Y501D02*
X3857Y501D01*
X0Y500D02*
X7Y500D01*
X3850Y500D02*
X3857Y500D01*
X0Y499D02*
X7Y499D01*
X3850Y499D02*
X3857Y499D01*
X0Y498D02*
X7Y498D01*
X3850Y498D02*
X3857Y498D01*
X0Y497D02*
X7Y497D01*
X3850Y497D02*
X3857Y497D01*
X0Y496D02*
X7Y496D01*
X3850Y496D02*
X3857Y496D01*
X0Y495D02*
X7Y495D01*
X3850Y495D02*
X3857Y495D01*
X0Y494D02*
X7Y494D01*
X3850Y494D02*
X3857Y494D01*
X0Y493D02*
X7Y493D01*
X3850Y493D02*
X3857Y493D01*
X0Y492D02*
X7Y492D01*
X3850Y492D02*
X3857Y492D01*
X0Y491D02*
X7Y491D01*
X3850Y491D02*
X3857Y491D01*
X0Y490D02*
X7Y490D01*
X3850Y490D02*
X3857Y490D01*
X0Y489D02*
X7Y489D01*
X3850Y489D02*
X3857Y489D01*
X0Y488D02*
X7Y488D01*
X3850Y488D02*
X3857Y488D01*
X0Y487D02*
X7Y487D01*
X3850Y487D02*
X3857Y487D01*
X0Y486D02*
X7Y486D01*
X3850Y486D02*
X3857Y486D01*
X0Y485D02*
X7Y485D01*
X3850Y485D02*
X3857Y485D01*
X0Y484D02*
X7Y484D01*
X3850Y484D02*
X3857Y484D01*
X0Y483D02*
X7Y483D01*
X3850Y483D02*
X3857Y483D01*
X0Y482D02*
X7Y482D01*
X3850Y482D02*
X3857Y482D01*
X0Y481D02*
X7Y481D01*
X3850Y481D02*
X3857Y481D01*
X0Y480D02*
X7Y480D01*
X3850Y480D02*
X3857Y480D01*
X0Y479D02*
X7Y479D01*
X3850Y479D02*
X3857Y479D01*
X0Y478D02*
X7Y478D01*
X3850Y478D02*
X3857Y478D01*
X0Y477D02*
X7Y477D01*
X3850Y477D02*
X3857Y477D01*
X0Y476D02*
X7Y476D01*
X3850Y476D02*
X3857Y476D01*
X0Y475D02*
X7Y475D01*
X3850Y475D02*
X3857Y475D01*
X0Y474D02*
X7Y474D01*
X3850Y474D02*
X3857Y474D01*
X0Y473D02*
X7Y473D01*
X3850Y473D02*
X3857Y473D01*
X0Y472D02*
X7Y472D01*
X3850Y472D02*
X3857Y472D01*
X0Y471D02*
X7Y471D01*
X3850Y471D02*
X3857Y471D01*
X0Y470D02*
X7Y470D01*
X3850Y470D02*
X3857Y470D01*
X0Y469D02*
X7Y469D01*
X3850Y469D02*
X3857Y469D01*
X0Y468D02*
X7Y468D01*
X3850Y468D02*
X3857Y468D01*
X0Y467D02*
X7Y467D01*
X3850Y467D02*
X3857Y467D01*
X0Y466D02*
X7Y466D01*
X3850Y466D02*
X3857Y466D01*
X0Y465D02*
X7Y465D01*
X3850Y465D02*
X3857Y465D01*
X0Y464D02*
X7Y464D01*
X3850Y464D02*
X3857Y464D01*
X0Y463D02*
X7Y463D01*
X3850Y463D02*
X3857Y463D01*
X0Y462D02*
X7Y462D01*
X3850Y462D02*
X3857Y462D01*
X0Y461D02*
X7Y461D01*
X3850Y461D02*
X3857Y461D01*
X0Y460D02*
X7Y460D01*
X3850Y460D02*
X3857Y460D01*
X0Y459D02*
X7Y459D01*
X3850Y459D02*
X3857Y459D01*
X0Y458D02*
X7Y458D01*
X3850Y458D02*
X3857Y458D01*
X0Y457D02*
X7Y457D01*
X3850Y457D02*
X3857Y457D01*
X0Y456D02*
X7Y456D01*
X3850Y456D02*
X3857Y456D01*
X0Y455D02*
X7Y455D01*
X3850Y455D02*
X3857Y455D01*
X0Y454D02*
X7Y454D01*
X3850Y454D02*
X3857Y454D01*
X0Y453D02*
X7Y453D01*
X3850Y453D02*
X3857Y453D01*
X0Y452D02*
X7Y452D01*
X3850Y452D02*
X3857Y452D01*
X0Y451D02*
X7Y451D01*
X3850Y451D02*
X3857Y451D01*
X0Y450D02*
X7Y450D01*
X3850Y450D02*
X3857Y450D01*
X0Y449D02*
X7Y449D01*
X3850Y449D02*
X3857Y449D01*
X0Y448D02*
X7Y448D01*
X3850Y448D02*
X3857Y448D01*
X0Y447D02*
X7Y447D01*
X3850Y447D02*
X3857Y447D01*
X0Y446D02*
X7Y446D01*
X3850Y446D02*
X3857Y446D01*
X0Y445D02*
X7Y445D01*
X3850Y445D02*
X3857Y445D01*
X0Y444D02*
X7Y444D01*
X3850Y444D02*
X3857Y444D01*
X0Y443D02*
X7Y443D01*
X3850Y443D02*
X3857Y443D01*
X0Y442D02*
X7Y442D01*
X3850Y442D02*
X3857Y442D01*
X0Y441D02*
X7Y441D01*
X3850Y441D02*
X3857Y441D01*
X0Y440D02*
X7Y440D01*
X3850Y440D02*
X3857Y440D01*
X0Y439D02*
X7Y439D01*
X3850Y439D02*
X3857Y439D01*
X0Y438D02*
X7Y438D01*
X3850Y438D02*
X3857Y438D01*
X0Y437D02*
X7Y437D01*
X3850Y437D02*
X3857Y437D01*
X0Y436D02*
X7Y436D01*
X3850Y436D02*
X3857Y436D01*
X0Y435D02*
X7Y435D01*
X3850Y435D02*
X3857Y435D01*
X0Y434D02*
X7Y434D01*
X3850Y434D02*
X3857Y434D01*
X0Y433D02*
X7Y433D01*
X3850Y433D02*
X3857Y433D01*
X0Y432D02*
X7Y432D01*
X3850Y432D02*
X3857Y432D01*
X0Y431D02*
X7Y431D01*
X3850Y431D02*
X3857Y431D01*
X0Y430D02*
X7Y430D01*
X3850Y430D02*
X3857Y430D01*
X0Y429D02*
X7Y429D01*
X3850Y429D02*
X3857Y429D01*
X0Y428D02*
X7Y428D01*
X3850Y428D02*
X3857Y428D01*
X0Y427D02*
X7Y427D01*
X3850Y427D02*
X3857Y427D01*
X0Y426D02*
X7Y426D01*
X3850Y426D02*
X3857Y426D01*
X0Y425D02*
X7Y425D01*
X3850Y425D02*
X3857Y425D01*
X0Y424D02*
X7Y424D01*
X3850Y424D02*
X3857Y424D01*
X0Y423D02*
X7Y423D01*
X3850Y423D02*
X3857Y423D01*
X0Y422D02*
X7Y422D01*
X3850Y422D02*
X3857Y422D01*
X0Y421D02*
X7Y421D01*
X3850Y421D02*
X3857Y421D01*
X0Y420D02*
X7Y420D01*
X3850Y420D02*
X3857Y420D01*
X0Y419D02*
X7Y419D01*
X3850Y419D02*
X3857Y419D01*
X0Y418D02*
X7Y418D01*
X3850Y418D02*
X3857Y418D01*
X0Y417D02*
X7Y417D01*
X3850Y417D02*
X3857Y417D01*
X0Y416D02*
X7Y416D01*
X3850Y416D02*
X3857Y416D01*
X0Y415D02*
X7Y415D01*
X3850Y415D02*
X3857Y415D01*
X0Y414D02*
X7Y414D01*
X3850Y414D02*
X3857Y414D01*
X0Y413D02*
X7Y413D01*
X3850Y413D02*
X3857Y413D01*
X0Y412D02*
X7Y412D01*
X3850Y412D02*
X3857Y412D01*
X0Y411D02*
X7Y411D01*
X3850Y411D02*
X3857Y411D01*
X0Y410D02*
X7Y410D01*
X3850Y410D02*
X3857Y410D01*
X0Y409D02*
X7Y409D01*
X3850Y409D02*
X3857Y409D01*
X0Y408D02*
X7Y408D01*
X3850Y408D02*
X3857Y408D01*
X0Y407D02*
X7Y407D01*
X3850Y407D02*
X3857Y407D01*
X0Y406D02*
X7Y406D01*
X3850Y406D02*
X3857Y406D01*
X0Y405D02*
X7Y405D01*
X3850Y405D02*
X3857Y405D01*
X0Y404D02*
X7Y404D01*
X3850Y404D02*
X3857Y404D01*
X0Y403D02*
X7Y403D01*
X3850Y403D02*
X3857Y403D01*
X0Y402D02*
X7Y402D01*
X3850Y402D02*
X3857Y402D01*
X0Y401D02*
X7Y401D01*
X3850Y401D02*
X3857Y401D01*
X0Y400D02*
X7Y400D01*
X3850Y400D02*
X3857Y400D01*
X0Y399D02*
X7Y399D01*
X3850Y399D02*
X3857Y399D01*
X0Y398D02*
X7Y398D01*
X3850Y398D02*
X3857Y398D01*
X0Y397D02*
X7Y397D01*
X3850Y397D02*
X3857Y397D01*
X0Y396D02*
X7Y396D01*
X3850Y396D02*
X3857Y396D01*
X0Y395D02*
X7Y395D01*
X3850Y395D02*
X3857Y395D01*
X0Y394D02*
X7Y394D01*
X3850Y394D02*
X3857Y394D01*
X0Y393D02*
X7Y393D01*
X3850Y393D02*
X3857Y393D01*
X0Y392D02*
X7Y392D01*
X3850Y392D02*
X3857Y392D01*
X0Y391D02*
X7Y391D01*
X3850Y391D02*
X3857Y391D01*
X0Y390D02*
X7Y390D01*
X3850Y390D02*
X3857Y390D01*
X0Y389D02*
X7Y389D01*
X3850Y389D02*
X3857Y389D01*
X0Y388D02*
X7Y388D01*
X3850Y388D02*
X3857Y388D01*
X0Y387D02*
X7Y387D01*
X3850Y387D02*
X3857Y387D01*
X0Y386D02*
X7Y386D01*
X3850Y386D02*
X3857Y386D01*
X0Y385D02*
X7Y385D01*
X3850Y385D02*
X3857Y385D01*
X0Y384D02*
X7Y384D01*
X3850Y384D02*
X3857Y384D01*
X0Y383D02*
X7Y383D01*
X3850Y383D02*
X3857Y383D01*
X0Y382D02*
X7Y382D01*
X3850Y382D02*
X3857Y382D01*
X0Y381D02*
X7Y381D01*
X3850Y381D02*
X3857Y381D01*
X0Y380D02*
X7Y380D01*
X3850Y380D02*
X3857Y380D01*
X0Y379D02*
X7Y379D01*
X3850Y379D02*
X3857Y379D01*
X0Y378D02*
X7Y378D01*
X3850Y378D02*
X3857Y378D01*
X0Y377D02*
X7Y377D01*
X3850Y377D02*
X3857Y377D01*
X0Y376D02*
X7Y376D01*
X3850Y376D02*
X3857Y376D01*
X0Y375D02*
X7Y375D01*
X3850Y375D02*
X3857Y375D01*
X0Y374D02*
X7Y374D01*
X3850Y374D02*
X3857Y374D01*
X0Y373D02*
X7Y373D01*
X3850Y373D02*
X3857Y373D01*
X0Y372D02*
X7Y372D01*
X3850Y372D02*
X3857Y372D01*
X0Y371D02*
X7Y371D01*
X3850Y371D02*
X3857Y371D01*
X0Y370D02*
X7Y370D01*
X3850Y370D02*
X3857Y370D01*
X0Y369D02*
X7Y369D01*
X3850Y369D02*
X3857Y369D01*
X0Y368D02*
X7Y368D01*
X3850Y368D02*
X3857Y368D01*
X0Y367D02*
X7Y367D01*
X3850Y367D02*
X3857Y367D01*
X0Y366D02*
X7Y366D01*
X3850Y366D02*
X3857Y366D01*
X0Y365D02*
X7Y365D01*
X3850Y365D02*
X3857Y365D01*
X0Y364D02*
X7Y364D01*
X3850Y364D02*
X3857Y364D01*
X0Y363D02*
X7Y363D01*
X3850Y363D02*
X3857Y363D01*
X0Y362D02*
X7Y362D01*
X3850Y362D02*
X3857Y362D01*
X0Y361D02*
X7Y361D01*
X3850Y361D02*
X3857Y361D01*
X0Y360D02*
X7Y360D01*
X3850Y360D02*
X3857Y360D01*
X0Y359D02*
X7Y359D01*
X3850Y359D02*
X3857Y359D01*
X0Y358D02*
X7Y358D01*
X3850Y358D02*
X3857Y358D01*
X0Y357D02*
X7Y357D01*
X3850Y357D02*
X3857Y357D01*
X0Y356D02*
X7Y356D01*
X3850Y356D02*
X3857Y356D01*
X0Y355D02*
X7Y355D01*
X3850Y355D02*
X3857Y355D01*
X0Y354D02*
X7Y354D01*
X3850Y354D02*
X3857Y354D01*
X0Y353D02*
X7Y353D01*
X3850Y353D02*
X3857Y353D01*
X0Y352D02*
X7Y352D01*
X3850Y352D02*
X3857Y352D01*
X0Y351D02*
X7Y351D01*
X3850Y351D02*
X3857Y351D01*
X0Y350D02*
X7Y350D01*
X3850Y350D02*
X3857Y350D01*
X0Y349D02*
X7Y349D01*
X3850Y349D02*
X3857Y349D01*
X0Y348D02*
X7Y348D01*
X3850Y348D02*
X3857Y348D01*
X0Y347D02*
X7Y347D01*
X3850Y347D02*
X3857Y347D01*
X0Y346D02*
X7Y346D01*
X3850Y346D02*
X3857Y346D01*
X0Y345D02*
X7Y345D01*
X3850Y345D02*
X3857Y345D01*
X0Y344D02*
X7Y344D01*
X3850Y344D02*
X3857Y344D01*
X0Y343D02*
X7Y343D01*
X3850Y343D02*
X3857Y343D01*
X0Y342D02*
X7Y342D01*
X3850Y342D02*
X3857Y342D01*
X0Y341D02*
X7Y341D01*
X3850Y341D02*
X3857Y341D01*
X0Y340D02*
X7Y340D01*
X3850Y340D02*
X3857Y340D01*
X0Y339D02*
X7Y339D01*
X3850Y339D02*
X3857Y339D01*
X0Y338D02*
X7Y338D01*
X3850Y338D02*
X3857Y338D01*
X0Y337D02*
X7Y337D01*
X3850Y337D02*
X3857Y337D01*
X0Y336D02*
X7Y336D01*
X3850Y336D02*
X3857Y336D01*
X0Y335D02*
X7Y335D01*
X3850Y335D02*
X3857Y335D01*
X0Y334D02*
X7Y334D01*
X3850Y334D02*
X3857Y334D01*
X0Y333D02*
X7Y333D01*
X3850Y333D02*
X3857Y333D01*
X0Y332D02*
X7Y332D01*
X3850Y332D02*
X3857Y332D01*
X0Y331D02*
X7Y331D01*
X3850Y331D02*
X3857Y331D01*
X0Y330D02*
X7Y330D01*
X3850Y330D02*
X3857Y330D01*
X0Y329D02*
X7Y329D01*
X3850Y329D02*
X3857Y329D01*
X0Y328D02*
X7Y328D01*
X3850Y328D02*
X3857Y328D01*
X0Y327D02*
X7Y327D01*
X3850Y327D02*
X3857Y327D01*
X0Y326D02*
X7Y326D01*
X3850Y326D02*
X3857Y326D01*
X0Y325D02*
X7Y325D01*
X3850Y325D02*
X3857Y325D01*
X0Y324D02*
X7Y324D01*
X3850Y324D02*
X3857Y324D01*
X0Y323D02*
X7Y323D01*
X3850Y323D02*
X3857Y323D01*
X0Y322D02*
X7Y322D01*
X3850Y322D02*
X3857Y322D01*
X0Y321D02*
X7Y321D01*
X3850Y321D02*
X3857Y321D01*
X0Y320D02*
X7Y320D01*
X3850Y320D02*
X3857Y320D01*
X0Y319D02*
X7Y319D01*
X3850Y319D02*
X3857Y319D01*
X0Y318D02*
X7Y318D01*
X3850Y318D02*
X3857Y318D01*
X0Y317D02*
X7Y317D01*
X3850Y317D02*
X3857Y317D01*
X0Y316D02*
X7Y316D01*
X3850Y316D02*
X3857Y316D01*
X0Y315D02*
X7Y315D01*
X3850Y315D02*
X3857Y315D01*
X0Y314D02*
X7Y314D01*
X3850Y314D02*
X3857Y314D01*
X0Y313D02*
X7Y313D01*
X3850Y313D02*
X3857Y313D01*
X0Y312D02*
X7Y312D01*
X3850Y312D02*
X3857Y312D01*
X0Y311D02*
X7Y311D01*
X3850Y311D02*
X3857Y311D01*
X0Y310D02*
X7Y310D01*
X3850Y310D02*
X3857Y310D01*
X0Y309D02*
X7Y309D01*
X3850Y309D02*
X3857Y309D01*
X0Y308D02*
X7Y308D01*
X3850Y308D02*
X3857Y308D01*
X0Y307D02*
X7Y307D01*
X3850Y307D02*
X3857Y307D01*
X0Y306D02*
X7Y306D01*
X3850Y306D02*
X3857Y306D01*
X0Y305D02*
X7Y305D01*
X3850Y305D02*
X3857Y305D01*
X0Y304D02*
X7Y304D01*
X3850Y304D02*
X3857Y304D01*
X0Y303D02*
X7Y303D01*
X3850Y303D02*
X3857Y303D01*
X0Y302D02*
X7Y302D01*
X3850Y302D02*
X3857Y302D01*
X0Y301D02*
X7Y301D01*
X3850Y301D02*
X3857Y301D01*
X0Y300D02*
X7Y300D01*
X3850Y300D02*
X3857Y300D01*
X0Y299D02*
X7Y299D01*
X3850Y299D02*
X3857Y299D01*
X0Y298D02*
X7Y298D01*
X3850Y298D02*
X3857Y298D01*
X0Y297D02*
X7Y297D01*
X3850Y297D02*
X3857Y297D01*
X0Y296D02*
X7Y296D01*
X3850Y296D02*
X3857Y296D01*
X0Y295D02*
X7Y295D01*
X3850Y295D02*
X3857Y295D01*
X0Y294D02*
X7Y294D01*
X3850Y294D02*
X3857Y294D01*
X0Y293D02*
X7Y293D01*
X3850Y293D02*
X3857Y293D01*
X0Y292D02*
X7Y292D01*
X3850Y292D02*
X3857Y292D01*
X0Y291D02*
X7Y291D01*
X3850Y291D02*
X3857Y291D01*
X0Y290D02*
X7Y290D01*
X3850Y290D02*
X3857Y290D01*
X0Y289D02*
X7Y289D01*
X3850Y289D02*
X3857Y289D01*
X0Y288D02*
X7Y288D01*
X3850Y288D02*
X3857Y288D01*
X0Y287D02*
X7Y287D01*
X3850Y287D02*
X3857Y287D01*
X0Y286D02*
X7Y286D01*
X3850Y286D02*
X3857Y286D01*
X0Y285D02*
X7Y285D01*
X3850Y285D02*
X3857Y285D01*
X0Y284D02*
X7Y284D01*
X3850Y284D02*
X3857Y284D01*
X0Y283D02*
X7Y283D01*
X3850Y283D02*
X3857Y283D01*
X0Y282D02*
X7Y282D01*
X3850Y282D02*
X3857Y282D01*
X0Y281D02*
X7Y281D01*
X3850Y281D02*
X3857Y281D01*
X0Y280D02*
X7Y280D01*
X3850Y280D02*
X3857Y280D01*
X0Y279D02*
X7Y279D01*
X3850Y279D02*
X3857Y279D01*
X0Y278D02*
X7Y278D01*
X3850Y278D02*
X3857Y278D01*
X0Y277D02*
X7Y277D01*
X3850Y277D02*
X3857Y277D01*
X0Y276D02*
X7Y276D01*
X3850Y276D02*
X3857Y276D01*
X0Y275D02*
X7Y275D01*
X3850Y275D02*
X3857Y275D01*
X0Y274D02*
X7Y274D01*
X3850Y274D02*
X3857Y274D01*
X0Y273D02*
X7Y273D01*
X3850Y273D02*
X3857Y273D01*
X0Y272D02*
X7Y272D01*
X3850Y272D02*
X3857Y272D01*
X0Y271D02*
X7Y271D01*
X3850Y271D02*
X3857Y271D01*
X0Y270D02*
X7Y270D01*
X3850Y270D02*
X3857Y270D01*
X0Y269D02*
X7Y269D01*
X3850Y269D02*
X3857Y269D01*
X0Y268D02*
X7Y268D01*
X3850Y268D02*
X3857Y268D01*
X0Y267D02*
X7Y267D01*
X3850Y267D02*
X3857Y267D01*
X0Y266D02*
X7Y266D01*
X3850Y266D02*
X3857Y266D01*
X0Y265D02*
X7Y265D01*
X3850Y265D02*
X3857Y265D01*
X0Y264D02*
X7Y264D01*
X3850Y264D02*
X3857Y264D01*
X0Y263D02*
X7Y263D01*
X3850Y263D02*
X3857Y263D01*
X0Y262D02*
X7Y262D01*
X3850Y262D02*
X3857Y262D01*
X0Y261D02*
X7Y261D01*
X3850Y261D02*
X3857Y261D01*
X0Y260D02*
X7Y260D01*
X3850Y260D02*
X3857Y260D01*
X0Y259D02*
X7Y259D01*
X3850Y259D02*
X3857Y259D01*
X0Y258D02*
X7Y258D01*
X3850Y258D02*
X3857Y258D01*
X0Y257D02*
X7Y257D01*
X3850Y257D02*
X3857Y257D01*
X0Y256D02*
X7Y256D01*
X3850Y256D02*
X3857Y256D01*
X0Y255D02*
X7Y255D01*
X3850Y255D02*
X3857Y255D01*
X0Y254D02*
X7Y254D01*
X3850Y254D02*
X3857Y254D01*
X0Y253D02*
X7Y253D01*
X3850Y253D02*
X3857Y253D01*
X0Y252D02*
X7Y252D01*
X3850Y252D02*
X3857Y252D01*
X0Y251D02*
X7Y251D01*
X3850Y251D02*
X3857Y251D01*
X0Y250D02*
X7Y250D01*
X3850Y250D02*
X3857Y250D01*
X0Y249D02*
X7Y249D01*
X3850Y249D02*
X3857Y249D01*
X0Y248D02*
X7Y248D01*
X3850Y248D02*
X3857Y248D01*
X0Y247D02*
X7Y247D01*
X3850Y247D02*
X3857Y247D01*
X0Y246D02*
X7Y246D01*
X3850Y246D02*
X3857Y246D01*
X0Y245D02*
X7Y245D01*
X3850Y245D02*
X3857Y245D01*
X0Y244D02*
X7Y244D01*
X3850Y244D02*
X3857Y244D01*
X0Y243D02*
X7Y243D01*
X3850Y243D02*
X3857Y243D01*
X0Y242D02*
X7Y242D01*
X3850Y242D02*
X3857Y242D01*
X0Y241D02*
X7Y241D01*
X3850Y241D02*
X3857Y241D01*
X0Y240D02*
X7Y240D01*
X3850Y240D02*
X3857Y240D01*
X0Y239D02*
X7Y239D01*
X3850Y239D02*
X3857Y239D01*
X0Y238D02*
X7Y238D01*
X3850Y238D02*
X3857Y238D01*
X0Y237D02*
X7Y237D01*
X3850Y237D02*
X3857Y237D01*
X0Y236D02*
X7Y236D01*
X3850Y236D02*
X3857Y236D01*
X0Y235D02*
X7Y235D01*
X3850Y235D02*
X3857Y235D01*
X0Y234D02*
X7Y234D01*
X3850Y234D02*
X3857Y234D01*
X0Y233D02*
X7Y233D01*
X3850Y233D02*
X3857Y233D01*
X0Y232D02*
X7Y232D01*
X3850Y232D02*
X3857Y232D01*
X0Y231D02*
X7Y231D01*
X3850Y231D02*
X3857Y231D01*
X0Y230D02*
X7Y230D01*
X3850Y230D02*
X3857Y230D01*
X0Y229D02*
X7Y229D01*
X3850Y229D02*
X3857Y229D01*
X0Y228D02*
X7Y228D01*
X3850Y228D02*
X3857Y228D01*
X0Y227D02*
X7Y227D01*
X3850Y227D02*
X3857Y227D01*
X0Y226D02*
X7Y226D01*
X3850Y226D02*
X3857Y226D01*
X0Y225D02*
X7Y225D01*
X3850Y225D02*
X3857Y225D01*
X0Y224D02*
X7Y224D01*
X3850Y224D02*
X3857Y224D01*
X0Y223D02*
X7Y223D01*
X3850Y223D02*
X3857Y223D01*
X0Y222D02*
X7Y222D01*
X3850Y222D02*
X3857Y222D01*
X0Y221D02*
X7Y221D01*
X3850Y221D02*
X3857Y221D01*
X0Y220D02*
X7Y220D01*
X3850Y220D02*
X3857Y220D01*
X0Y219D02*
X7Y219D01*
X3850Y219D02*
X3857Y219D01*
X0Y218D02*
X7Y218D01*
X3850Y218D02*
X3857Y218D01*
X0Y217D02*
X7Y217D01*
X3850Y217D02*
X3857Y217D01*
X0Y216D02*
X7Y216D01*
X3850Y216D02*
X3857Y216D01*
X0Y215D02*
X7Y215D01*
X3850Y215D02*
X3857Y215D01*
X0Y214D02*
X7Y214D01*
X3850Y214D02*
X3857Y214D01*
X0Y213D02*
X7Y213D01*
X3850Y213D02*
X3857Y213D01*
X0Y212D02*
X7Y212D01*
X3850Y212D02*
X3857Y212D01*
X0Y211D02*
X7Y211D01*
X3850Y211D02*
X3857Y211D01*
X0Y210D02*
X7Y210D01*
X3850Y210D02*
X3857Y210D01*
X0Y209D02*
X7Y209D01*
X3850Y209D02*
X3857Y209D01*
X0Y208D02*
X7Y208D01*
X3850Y208D02*
X3857Y208D01*
X0Y207D02*
X7Y207D01*
X3850Y207D02*
X3857Y207D01*
X0Y206D02*
X7Y206D01*
X3850Y206D02*
X3857Y206D01*
X0Y205D02*
X7Y205D01*
X3850Y205D02*
X3857Y205D01*
X0Y204D02*
X7Y204D01*
X3850Y204D02*
X3857Y204D01*
X0Y203D02*
X7Y203D01*
X3850Y203D02*
X3857Y203D01*
X0Y202D02*
X7Y202D01*
X3850Y202D02*
X3857Y202D01*
X0Y201D02*
X7Y201D01*
X3850Y201D02*
X3857Y201D01*
X0Y200D02*
X7Y200D01*
X3850Y200D02*
X3857Y200D01*
X0Y199D02*
X7Y199D01*
X3850Y199D02*
X3857Y199D01*
X0Y198D02*
X7Y198D01*
X3850Y198D02*
X3857Y198D01*
X0Y197D02*
X7Y197D01*
X3850Y197D02*
X3857Y197D01*
X0Y196D02*
X7Y196D01*
X3850Y196D02*
X3857Y196D01*
X0Y195D02*
X7Y195D01*
X3850Y195D02*
X3857Y195D01*
X0Y194D02*
X7Y194D01*
X3850Y194D02*
X3857Y194D01*
X0Y193D02*
X7Y193D01*
X3850Y193D02*
X3857Y193D01*
X0Y192D02*
X7Y192D01*
X3850Y192D02*
X3857Y192D01*
X0Y191D02*
X7Y191D01*
X3850Y191D02*
X3857Y191D01*
X0Y190D02*
X7Y190D01*
X3850Y190D02*
X3857Y190D01*
X0Y189D02*
X7Y189D01*
X3850Y189D02*
X3857Y189D01*
X0Y188D02*
X7Y188D01*
X3850Y188D02*
X3857Y188D01*
X0Y187D02*
X7Y187D01*
X3850Y187D02*
X3857Y187D01*
X0Y186D02*
X7Y186D01*
X3850Y186D02*
X3857Y186D01*
X0Y185D02*
X7Y185D01*
X3850Y185D02*
X3857Y185D01*
X0Y184D02*
X7Y184D01*
X3850Y184D02*
X3857Y184D01*
X0Y183D02*
X7Y183D01*
X3850Y183D02*
X3857Y183D01*
X0Y182D02*
X7Y182D01*
X3850Y182D02*
X3857Y182D01*
X0Y181D02*
X7Y181D01*
X3850Y181D02*
X3857Y181D01*
X0Y180D02*
X7Y180D01*
X3850Y180D02*
X3857Y180D01*
X0Y179D02*
X7Y179D01*
X3850Y179D02*
X3857Y179D01*
X0Y178D02*
X7Y178D01*
X3850Y178D02*
X3857Y178D01*
X0Y177D02*
X7Y177D01*
X3850Y177D02*
X3857Y177D01*
X0Y176D02*
X7Y176D01*
X3850Y176D02*
X3857Y176D01*
X0Y175D02*
X7Y175D01*
X3850Y175D02*
X3857Y175D01*
X0Y174D02*
X7Y174D01*
X3850Y174D02*
X3857Y174D01*
X0Y173D02*
X7Y173D01*
X3850Y173D02*
X3857Y173D01*
X0Y172D02*
X7Y172D01*
X3850Y172D02*
X3857Y172D01*
X0Y171D02*
X7Y171D01*
X3850Y171D02*
X3857Y171D01*
X0Y170D02*
X7Y170D01*
X3850Y170D02*
X3857Y170D01*
X0Y169D02*
X7Y169D01*
X3850Y169D02*
X3857Y169D01*
X0Y168D02*
X7Y168D01*
X3850Y168D02*
X3857Y168D01*
X0Y167D02*
X7Y167D01*
X3850Y167D02*
X3857Y167D01*
X0Y166D02*
X7Y166D01*
X3850Y166D02*
X3857Y166D01*
X0Y165D02*
X7Y165D01*
X3850Y165D02*
X3857Y165D01*
X0Y164D02*
X7Y164D01*
X3850Y164D02*
X3857Y164D01*
X0Y163D02*
X7Y163D01*
X3850Y163D02*
X3857Y163D01*
X0Y162D02*
X7Y162D01*
X3850Y162D02*
X3857Y162D01*
X0Y161D02*
X7Y161D01*
X3850Y161D02*
X3857Y161D01*
X0Y160D02*
X7Y160D01*
X3850Y160D02*
X3857Y160D01*
X0Y159D02*
X7Y159D01*
X3850Y159D02*
X3857Y159D01*
X0Y158D02*
X7Y158D01*
X3850Y158D02*
X3857Y158D01*
X0Y157D02*
X7Y157D01*
X3850Y157D02*
X3857Y157D01*
X0Y156D02*
X7Y156D01*
X3850Y156D02*
X3857Y156D01*
X0Y155D02*
X7Y155D01*
X3850Y155D02*
X3857Y155D01*
X0Y154D02*
X7Y154D01*
X3850Y154D02*
X3857Y154D01*
X0Y153D02*
X7Y153D01*
X3850Y153D02*
X3857Y153D01*
X0Y152D02*
X7Y152D01*
X3850Y152D02*
X3857Y152D01*
X0Y151D02*
X7Y151D01*
X3850Y151D02*
X3857Y151D01*
X0Y150D02*
X7Y150D01*
X3850Y150D02*
X3857Y150D01*
X0Y149D02*
X7Y149D01*
X3850Y149D02*
X3857Y149D01*
X0Y148D02*
X7Y148D01*
X3850Y148D02*
X3857Y148D01*
X0Y147D02*
X7Y147D01*
X3850Y147D02*
X3857Y147D01*
X0Y146D02*
X7Y146D01*
X3850Y146D02*
X3857Y146D01*
X0Y145D02*
X7Y145D01*
X3850Y145D02*
X3857Y145D01*
X0Y144D02*
X7Y144D01*
X3850Y144D02*
X3857Y144D01*
X0Y143D02*
X7Y143D01*
X3850Y143D02*
X3857Y143D01*
X0Y142D02*
X7Y142D01*
X3850Y142D02*
X3857Y142D01*
X0Y141D02*
X7Y141D01*
X3850Y141D02*
X3857Y141D01*
X0Y140D02*
X7Y140D01*
X3850Y140D02*
X3857Y140D01*
X0Y139D02*
X7Y139D01*
X3850Y139D02*
X3857Y139D01*
X0Y138D02*
X7Y138D01*
X3850Y138D02*
X3857Y138D01*
X0Y137D02*
X7Y137D01*
X3850Y137D02*
X3857Y137D01*
X0Y136D02*
X7Y136D01*
X3850Y136D02*
X3857Y136D01*
X0Y135D02*
X7Y135D01*
X3850Y135D02*
X3857Y135D01*
X0Y134D02*
X7Y134D01*
X3850Y134D02*
X3857Y134D01*
X0Y133D02*
X7Y133D01*
X3850Y133D02*
X3857Y133D01*
X0Y132D02*
X7Y132D01*
X3850Y132D02*
X3857Y132D01*
X0Y131D02*
X7Y131D01*
X3850Y131D02*
X3857Y131D01*
X0Y130D02*
X7Y130D01*
X3850Y130D02*
X3857Y130D01*
X0Y129D02*
X7Y129D01*
X3850Y129D02*
X3857Y129D01*
X0Y128D02*
X7Y128D01*
X3850Y128D02*
X3857Y128D01*
X0Y127D02*
X7Y127D01*
X3850Y127D02*
X3857Y127D01*
X0Y126D02*
X7Y126D01*
X3850Y126D02*
X3857Y126D01*
X0Y125D02*
X7Y125D01*
X3850Y125D02*
X3857Y125D01*
X0Y124D02*
X7Y124D01*
X3850Y124D02*
X3857Y124D01*
X0Y123D02*
X7Y123D01*
X3850Y123D02*
X3857Y123D01*
X0Y122D02*
X7Y122D01*
X3850Y122D02*
X3857Y122D01*
X0Y121D02*
X7Y121D01*
X3850Y121D02*
X3857Y121D01*
X0Y120D02*
X6Y120D01*
X3850Y120D02*
X3857Y120D01*
X0Y119D02*
X6Y119D01*
X3850Y119D02*
X3857Y119D01*
X0Y118D02*
X6Y118D01*
X3850Y118D02*
X3857Y118D01*
X0Y117D02*
X6Y117D01*
X3850Y117D02*
X3857Y117D01*
X0Y116D02*
X5Y116D01*
X3850Y116D02*
X3857Y116D01*
X0Y115D02*
X5Y115D01*
X3850Y115D02*
X3857Y115D01*
X0Y114D02*
X5Y114D01*
X3850Y114D02*
X3857Y114D01*
X0Y113D02*
X5Y113D01*
X3850Y113D02*
X3857Y113D01*
X0Y112D02*
X4Y112D01*
X3850Y112D02*
X3857Y112D01*
X0Y111D02*
X4Y111D01*
X3850Y111D02*
X3857Y111D01*
X0Y110D02*
X4Y110D01*
X3850Y110D02*
X3857Y110D01*
X0Y109D02*
X4Y109D01*
X3850Y109D02*
X3857Y109D01*
X0Y108D02*
X4Y108D01*
X3850Y108D02*
X3857Y108D01*
X0Y107D02*
X4Y107D01*
X3850Y107D02*
X3857Y107D01*
X0Y106D02*
X3Y106D01*
X3850Y106D02*
X3857Y106D01*
X0Y105D02*
X3Y105D01*
X3850Y105D02*
X3857Y105D01*
X0Y104D02*
X3Y104D01*
X3850Y104D02*
X3857Y104D01*
X0Y103D02*
X3Y103D01*
X3850Y103D02*
X3857Y103D01*
X0Y102D02*
X3Y102D01*
X3850Y102D02*
X3857Y102D01*
X0Y101D02*
X3Y101D01*
X3850Y101D02*
X3857Y101D01*
X0Y100D02*
X3Y100D01*
X3850Y100D02*
X3857Y100D01*
X0Y99D02*
X3Y99D01*
X3850Y99D02*
X3857Y99D01*
X0Y98D02*
X3Y98D01*
X3850Y98D02*
X3857Y98D01*
X0Y97D02*
X3Y97D01*
X3850Y97D02*
X3857Y97D01*
X0Y96D02*
X3Y96D01*
X3850Y96D02*
X3857Y96D01*
X0Y95D02*
X3Y95D01*
X3850Y95D02*
X3857Y95D01*
X0Y94D02*
X3Y94D01*
X3850Y94D02*
X3857Y94D01*
X0Y93D02*
X3Y93D01*
X3850Y93D02*
X3857Y93D01*
X0Y92D02*
X3Y92D01*
X3850Y92D02*
X3857Y92D01*
X0Y91D02*
X3Y91D01*
X3850Y91D02*
X3857Y91D01*
X0Y90D02*
X3Y90D01*
X3850Y90D02*
X3857Y90D01*
X0Y89D02*
X3Y89D01*
X3850Y89D02*
X3857Y89D01*
X0Y88D02*
X3Y88D01*
X3850Y88D02*
X3857Y88D01*
X0Y87D02*
X3Y87D01*
X3850Y87D02*
X3857Y87D01*
X0Y86D02*
X3Y86D01*
X3850Y86D02*
X3857Y86D01*
X0Y85D02*
X3Y85D01*
X3850Y85D02*
X3857Y85D01*
X0Y84D02*
X4Y84D01*
X3850Y84D02*
X3857Y84D01*
X0Y83D02*
X4Y83D01*
X3850Y83D02*
X3857Y83D01*
X0Y82D02*
X4Y82D01*
X3850Y82D02*
X3857Y82D01*
X0Y81D02*
X4Y81D01*
X3850Y81D02*
X3857Y81D01*
X0Y80D02*
X4Y80D01*
X3850Y80D02*
X3857Y80D01*
X0Y79D02*
X5Y79D01*
X3850Y79D02*
X3857Y79D01*
X0Y78D02*
X5Y78D01*
X3850Y78D02*
X3857Y78D01*
X0Y77D02*
X5Y77D01*
X3850Y77D02*
X3857Y77D01*
X0Y76D02*
X5Y76D01*
X3850Y76D02*
X3857Y76D01*
X0Y75D02*
X6Y75D01*
X3850Y75D02*
X3857Y75D01*
X0Y74D02*
X6Y74D01*
X3850Y74D02*
X3857Y74D01*
X0Y73D02*
X6Y73D01*
X3850Y73D02*
X3857Y73D01*
X0Y72D02*
X6Y72D01*
X3850Y72D02*
X3857Y72D01*
X0Y71D02*
X7Y71D01*
X3850Y71D02*
X3857Y71D01*
X0Y70D02*
X7Y70D01*
X3850Y70D02*
X3857Y70D01*
X0Y69D02*
X7Y69D01*
X3850Y69D02*
X3857Y69D01*
X0Y68D02*
X7Y68D01*
X3850Y68D02*
X3857Y68D01*
X0Y67D02*
X7Y67D01*
X3850Y67D02*
X3857Y67D01*
X0Y66D02*
X7Y66D01*
X3850Y66D02*
X3857Y66D01*
X0Y65D02*
X7Y65D01*
X3850Y65D02*
X3857Y65D01*
X0Y64D02*
X7Y64D01*
X3850Y64D02*
X3857Y64D01*
X0Y63D02*
X7Y63D01*
X3850Y63D02*
X3857Y63D01*
X0Y62D02*
X7Y62D01*
X3850Y62D02*
X3857Y62D01*
X0Y61D02*
X7Y61D01*
X3850Y61D02*
X3857Y61D01*
X0Y60D02*
X7Y60D01*
X3850Y60D02*
X3857Y60D01*
X0Y59D02*
X7Y59D01*
X3850Y59D02*
X3857Y59D01*
X0Y58D02*
X7Y58D01*
X3850Y58D02*
X3857Y58D01*
X0Y57D02*
X7Y57D01*
X3850Y57D02*
X3857Y57D01*
X0Y56D02*
X7Y56D01*
X3850Y56D02*
X3857Y56D01*
X0Y55D02*
X7Y55D01*
X3850Y55D02*
X3857Y55D01*
X0Y54D02*
X7Y54D01*
X3850Y54D02*
X3857Y54D01*
X0Y53D02*
X7Y53D01*
X3850Y53D02*
X3857Y53D01*
X0Y52D02*
X7Y52D01*
X3850Y52D02*
X3857Y52D01*
X0Y51D02*
X7Y51D01*
X3850Y51D02*
X3857Y51D01*
X0Y50D02*
X7Y50D01*
X3850Y50D02*
X3857Y50D01*
X0Y49D02*
X7Y49D01*
X3850Y49D02*
X3857Y49D01*
X0Y48D02*
X7Y48D01*
X3850Y48D02*
X3857Y48D01*
X0Y47D02*
X7Y47D01*
X3850Y47D02*
X3857Y47D01*
X0Y46D02*
X7Y46D01*
X3850Y46D02*
X3857Y46D01*
X0Y45D02*
X7Y45D01*
X3850Y45D02*
X3857Y45D01*
X0Y44D02*
X7Y44D01*
X3850Y44D02*
X3857Y44D01*
X0Y43D02*
X7Y43D01*
X3850Y43D02*
X3857Y43D01*
X0Y42D02*
X7Y42D01*
X3850Y42D02*
X3857Y42D01*
X0Y41D02*
X7Y41D01*
X3850Y41D02*
X3857Y41D01*
X0Y40D02*
X7Y40D01*
X3850Y40D02*
X3857Y40D01*
X0Y39D02*
X7Y39D01*
X3850Y39D02*
X3857Y39D01*
X0Y38D02*
X7Y38D01*
X3850Y38D02*
X3857Y38D01*
X0Y37D02*
X7Y37D01*
X3850Y37D02*
X3857Y37D01*
X0Y36D02*
X7Y36D01*
X3850Y36D02*
X3857Y36D01*
X0Y35D02*
X7Y35D01*
X3850Y35D02*
X3857Y35D01*
X0Y34D02*
X7Y34D01*
X3850Y34D02*
X3857Y34D01*
X0Y33D02*
X7Y33D01*
X3850Y33D02*
X3857Y33D01*
X0Y32D02*
X7Y32D01*
X3850Y32D02*
X3857Y32D01*
X0Y31D02*
X7Y31D01*
X3850Y31D02*
X3857Y31D01*
X0Y30D02*
X7Y30D01*
X3850Y30D02*
X3857Y30D01*
X0Y29D02*
X7Y29D01*
X3850Y29D02*
X3857Y29D01*
X0Y28D02*
X7Y28D01*
X3850Y28D02*
X3857Y28D01*
X0Y27D02*
X7Y27D01*
X3850Y27D02*
X3857Y27D01*
X0Y26D02*
X7Y26D01*
X3850Y26D02*
X3857Y26D01*
X0Y25D02*
X7Y25D01*
X3850Y25D02*
X3857Y25D01*
X0Y24D02*
X7Y24D01*
X3850Y24D02*
X3857Y24D01*
X0Y23D02*
X7Y23D01*
X3850Y23D02*
X3857Y23D01*
X0Y22D02*
X7Y22D01*
X3850Y22D02*
X3857Y22D01*
X0Y21D02*
X7Y21D01*
X3850Y21D02*
X3857Y21D01*
X0Y20D02*
X7Y20D01*
X3850Y20D02*
X3857Y20D01*
X0Y19D02*
X7Y19D01*
X3850Y19D02*
X3857Y19D01*
X0Y18D02*
X7Y18D01*
X3850Y18D02*
X3857Y18D01*
X0Y17D02*
X7Y17D01*
X3850Y17D02*
X3857Y17D01*
X0Y16D02*
X7Y16D01*
X3850Y16D02*
X3857Y16D01*
X0Y15D02*
X7Y15D01*
X3850Y15D02*
X3857Y15D01*
X0Y14D02*
X7Y14D01*
X3850Y14D02*
X3857Y14D01*
X0Y13D02*
X7Y13D01*
X3850Y13D02*
X3857Y13D01*
X0Y12D02*
X7Y12D01*
X3850Y12D02*
X3857Y12D01*
X0Y11D02*
X7Y11D01*
X3850Y11D02*
X3857Y11D01*
X0Y10D02*
X7Y10D01*
X3850Y10D02*
X3857Y10D01*
X0Y9D02*
X7Y9D01*
X3850Y9D02*
X3857Y9D01*
X0Y8D02*
X3857Y8D01*
X0Y7D02*
X3857Y7D01*
X0Y6D02*
X3857Y6D01*
X0Y5D02*
X3857Y5D01*
X0Y4D02*
X3857Y4D01*
X0Y3D02*
X3857Y3D01*
X0Y2D02*
X3857Y2D01*
X0Y1D02*
X3857Y1D01*
D02*
G04 End of Silk0*
M02*