; NON-PLATED HOLES START AT T1
; THROUGH (PLATED) HOLES START AT T100
M48
INCH
T1C0.047244
T100C0.031496
T101C0.031497
T102C0.027559
T103C0.038000
T104C0.039370
T105C0.040000
T106C0.051181
T107C0.031555
T108C0.041000
T109C0.125984
T110C0.015748
T111C0.035000
T112C0.030000
%
T1
X001666Y006779
X036635Y006748
X037619Y006748
X036635Y010685
X037619Y010685
X003635Y008748
X000682Y010716
X001666Y010716
X034666Y008716
X000682Y006779
T100
X010666Y009748
T101
X009682Y022748
X008122Y022748
X010666Y022748
X007138Y022748
T102
X010666Y015748
X009666Y015748
X006666Y015748
X005666Y015748
T103
X012666Y014748
X017666Y022748
X015666Y022748
X019666Y022748
X012666Y006748
X016666Y022748
X002666Y015748
X035666Y013748
X012666Y012748
X007666Y002748
X009666Y002748
X021666Y008748
X020666Y022748
X022666Y022748
X012666Y004748
X008666Y002748
X035666Y018748
X012666Y017748
X021666Y022748
X023666Y022748
X025666Y022748
X027666Y022748
X029666Y022748
X036666Y018748
X002666Y013748
X024666Y022748
X026666Y022748
X028666Y022748
X021666Y006748
X010666Y002748
X012666Y002748
X035666Y016748
X012666Y015748
X019666Y002748
X011666Y002748
X013666Y002748
X012666Y007748
X036666Y016748
X030666Y022748
X032666Y022748
X014666Y002748
X031666Y022748
X033666Y022748
X021666Y004748
X002666Y016748
X012666Y013748
X034666Y022748
X012666Y005748
X020666Y002748
X022666Y002748
X021666Y002748
X035666Y012748
X021666Y007748
X035666Y017748
X012666Y016748
X036666Y017748
X002666Y012748
X021666Y005748
T104
X009666Y012748
X021666Y012748
X021666Y009748
X021666Y013748
X021666Y014748
X021666Y015748
X007666Y012748
X021666Y016748
X008666Y012748
X021666Y010748
X021666Y017748
X021666Y011748
T105
X034666Y002188
X005446Y018748
X032886Y002188
X003666Y018748
X005666Y004748
X005446Y021308
X003886Y004748
X003666Y021308
X034666Y004748
X005666Y002188
X032886Y004748
X003886Y002188
T106
X003635Y007764
X034666Y009701
X034666Y006748
X034666Y007732
X034666Y010685
X001666Y008748
X003635Y010716
X003635Y009732
X036635Y008716
X003635Y006779
T107
X010666Y007817
T108
X032666Y017748
X033666Y015748
X031666Y015748
T109
X037623Y000964
X000909Y022728
X037639Y022608
X000913Y000953
T110
X032666Y009748
T111
X026723Y012849
X026666Y005748
X029723Y012849
X015666Y014748
X008666Y017748
X006666Y017748
X026723Y009849
X015666Y006748
X018666Y014748
X010666Y020748
X029723Y009849
X018666Y006748
X026723Y010849
X017666Y020748
X029723Y010849
X015666Y012748
X010666Y017748
X014666Y020748
X015666Y004748
X018666Y012748
X015666Y017748
X018666Y004748
X015666Y009748
X018666Y017748
X024666Y001748
X029666Y006748
X018666Y009748
X015666Y010748
X026666Y006748
X018666Y010748
X015666Y015748
X015666Y007748
X018666Y015748
X029666Y004748
X018666Y007748
X031666Y001748
X026723Y011849
X024666Y004748
X026666Y004748
X029723Y011849
X015666Y013748
X015666Y005748
X018666Y013748
X018666Y005748
X029666Y007748
X031666Y004748
X015666Y011748
X026666Y007748
X018666Y011748
X015666Y016748
X015666Y008748
X018666Y016748
X029666Y005748
X008666Y020748
X006666Y020748
X018666Y008748
T112
X014666Y010748
X023666Y010748
X024666Y009750
X024668Y010748
X023666Y011748
X024668Y011748
X023666Y012748
X024666Y008748
X024668Y012748
X008666Y007748
X007664Y007748
X031666Y011750
X014666Y011750
X008666Y009748
X031666Y010748
X007664Y009748
T00
M30
